<?xml version="1.0" standalone="no"?>
<!DOCTYPE svg PUBLIC "-//W3C//DTD SVG 1.1//EN" "http://www.w3.org/Graphics/SVG/1.1/DTD/svg11.dtd" >
<svg>
<metadata>
Created by FontForge 20090914 at Thu Dec 24 14:38:28 2020
 By www-data
Copyright 1996, 2003 Adobe Systems Incorporated. All Rights Reserved. 
</metadata>
<defs>
<font id="KeplerStd-BoldScnDisp" horiz-adv-x="1000" >
  <font-face 
    font-family="Kepler Std"
    font-weight="700"
    font-stretch="semi-condensed"
    units-per-em="1000"
    panose-1="2 4 8 6 6 7 10 6 2 4"
    ascent="700"
    descent="-300"
    x-height="423"
    cap-height="628"
    bbox="-171 -258 3458.11 871"
    underline-thickness="58"
    underline-position="-82"
    stemh="12"
    stemv="122"
    unicode-range="U+0020-U+FB06"
  />
<missing-glyph horiz-adv-x="500" 
d="M0 0v700h500v-700h-500zM250 395l170 255h-340zM280 350l170 -255v510zM80 50h340l-170 255zM50 605v-510l170 255z" />
    <glyph glyph-name="T_h" unicode="Th" horiz-adv-x="912" 
d="M205 276v169c0 70 0 138 -1 165c-87 0 -116 -11 -133 -44c-23 -43 -34 -82 -44 -111l-11 4c8 33 16 132 18 176c26 -5 109 -10 194 -10h81c88 0 151 2 185 7v27c27 1 108 11 127 15c-2 -43 -4 -113 -4 -187v-113c29 25 72 59 130 59c62 0 85 -32 94 -47s13 -40 13 -61
c0 -96 -1 -202 -1 -288c0 -22 5 -27 46 -28v-12c-19 0 -67 3 -105 3c-42 0 -85 -3 -102 -3v12c25 1 35 6 37 24c1 19 3 60 3 131c0 157 -1 169 -4 184c-5 24 -18 43 -45 43c-23 0 -46 -13 -58 -34c-6 -10 -8 -21 -8 -37v-150c0 -63 0 -111 2 -137c2 -19 9 -21 40 -24v-12
c-20 0 -66 3 -104 3c-58 0 -87 -3 -109 -3v12c37 2 44 7 45 31c2 29 4 73 4 173v274v115c-32 4 -91 11 -159 8c-1 -26 -2 -83 -2 -150v-189c0 -131 2 -201 4 -226c1 -21 7 -27 24 -29c18 -3 26 -6 49 -7l-4 -12c-23 0 -78 3 -144 3c-48 0 -100 -3 -134 -3l-3 12
c14 1 19 4 43 6c21 2 32 7 33 27c1 35 3 94 3 234z" />
    <glyph glyph-name="f_f" unicode="ff" horiz-adv-x="498" 
d="M15 420h52v31c0 70 17 130 55 168c25 24 57 42 103 42c58 0 89 -30 89 -70c0 -27 -23 -48 -57 -48c-18 0 -27 12 -27 32c0 37 -4 66 -27 66c-18 0 -26 -18 -27 -49c0 -28 9 -72 12 -172h120v19c-2 68 1 117 36 165c25 38 64 72 130 72c67 0 95 -33 95 -73
c0 -25 -22 -47 -53 -47c-22 0 -31 13 -31 29c0 53 -7 73 -32 73c-16 0 -28 -14 -30 -49c-4 -22 1 -66 8 -189h78l-3 -15l-75 -5c-1 -46 -2 -104 -2 -169c0 -73 1 -142 4 -184c2 -24 6 -32 22 -34c10 -2 24 -3 35 -4l-3 -12c-31 0 -62 3 -103 3c-42 0 -95 -3 -119 -3v12
c31 0 38 5 39 23c2 28 4 80 4 144v225h-119c-1 -59 -1 -119 -1 -184c0 -73 1 -135 3 -172c1 -23 6 -33 19 -34c10 -1 18 -1 29 -2l-1 -12c-21 0 -55 3 -95 3c-44 0 -95 -3 -129 -3l1 12c38 4 46 5 47 23c3 28 4 80 4 145v224l-53 5z" />
    <glyph glyph-name="f_i" unicode="fi" horiz-adv-x="488" 
d="M11 407l1 13h55v23c0 77 19 131 50 165c38 41 89 68 158 68c101 0 141 -44 141 -97c0 -29 -22 -60 -66 -60c-24 0 -46 12 -46 41c0 13 6 29 6 48c0 32 -20 50 -52 50c-33 0 -53 -26 -60 -63c-6 -29 -9 -58 -9 -175h88c60 0 122 3 158 13c-3 -21 -5 -62 -5 -158v-117
c0 -74 2 -95 3 -117c3 -25 9 -28 51 -32l-1 -12c-37 0 -72 3 -120 3c-52 0 -78 -3 -100 -3l1 12c33 1 38 9 40 29c2 18 4 52 4 122v112c0 54 -2 97 -4 113c-3 11 -12 17 -38 17h-78v-188c0 -69 0 -124 2 -166c2 -33 6 -38 45 -39l-1 -12c-23 1 -53 3 -91 3
c-40 0 -97 -3 -134 -3v12c44 1 50 5 53 26c2 25 4 78 4 141v226z" />
    <glyph glyph-name="f_l" unicode="fl" horiz-adv-x="488" 
d="M12 420h55v33c0 86 19 138 56 173c34 32 77 50 134 50c32 0 56 -6 79 -19c11 2 56 8 99 14c-2 -27 -6 -81 -6 -210v-250c0 -107 0 -144 1 -169c2 -28 7 -31 54 -33v-12c-35 0 -126 3 -158 3s-49 -3 -68 -3v12c33 0 40 8 43 38c2 20 7 96 7 194c0 86 -1 177 -1 257
c0 62 -1 97 -4 108c-11 31 -29 53 -61 53c-21 0 -37 -13 -43 -40c-7 -27 -11 -75 -11 -199h84l-4 -14l-80 -6c0 -57 -1 -122 -1 -187c-1 -70 0 -123 2 -164c2 -34 6 -39 45 -40l-3 -12c-24 0 -50 3 -88 3c-42 0 -102 -3 -133 -3v12c42 1 49 6 52 26c2 26 4 77 4 141v224
l-56 6z" />
    <glyph glyph-name="f_f_i" unicode="ffi" horiz-adv-x="730" 
d="M15 420h53v35c0 53 16 107 46 140c34 39 83 66 156 66c45 0 84 -20 98 -39c38 34 91 54 150 54c97 0 140 -40 140 -94c0 -31 -20 -63 -65 -63c-24 0 -47 10 -47 41c0 11 3 27 3 45c0 37 -20 53 -49 53c-26 0 -48 -18 -55 -55c-7 -29 -13 -58 -13 -183h87
c60 0 122 3 157 13c-2 -21 -4 -62 -4 -159v-116c0 -74 2 -95 3 -117c2 -25 9 -28 50 -32v-12c-38 0 -72 3 -119 3c-53 0 -80 -3 -101 -3l1 12c33 1 39 9 41 29c1 18 3 52 3 122v111c0 54 -2 98 -4 114c-2 10 -11 16 -38 16h-77c0 -46 -1 -106 -1 -170c0 -73 1 -143 4 -184
c3 -34 10 -36 49 -38l-3 -12c-33 0 -55 3 -96 3c-42 0 -100 -3 -120 -3v12c31 1 37 5 40 23c3 28 4 81 4 144v225h-119c0 -46 -1 -105 -1 -173c0 -77 0 -143 3 -183c2 -30 9 -35 46 -36l-2 -12c-18 0 -52 3 -92 3c-44 0 -100 -3 -134 -3l1 12c43 1 50 5 52 23
c3 29 4 81 4 144v225l-53 5zM189 420h120c0 58 4 99 21 147c-10 35 -38 78 -76 78c-25 0 -46 -16 -53 -54c-8 -28 -12 -78 -12 -171z" />
    <glyph glyph-name="f_f_l" unicode="ffl" horiz-adv-x="730" 
d="M13 420h55v33c0 53 18 111 48 143c34 38 86 65 151 65c51 0 84 -21 101 -36c34 33 82 51 131 51c35 0 62 -8 82 -19c12 2 55 8 96 14c-2 -27 -5 -82 -5 -210v-251c0 -107 0 -143 1 -169c1 -27 7 -31 54 -32l-1 -12c-34 0 -125 3 -157 3c-31 0 -49 -3 -67 -3v12
c34 1 40 8 43 38c2 19 6 96 6 194l-1 257c0 62 -1 97 -4 108c-6 31 -30 53 -58 53c-23 0 -36 -12 -44 -37c-8 -27 -13 -77 -13 -202h85l-5 -16l-79 -4c-1 -47 -2 -105 -2 -169c0 -73 1 -142 4 -184c3 -34 7 -36 48 -38l-3 -12c-34 0 -60 3 -103 3c-46 0 -91 -3 -112 -3v12
c32 0 38 5 41 23c2 28 3 80 3 144v225h-119c0 -46 -1 -105 -1 -173c0 -76 0 -143 3 -181c3 -33 7 -37 48 -38l-1 -12c-19 0 -55 3 -95 3c-44 0 -102 -3 -134 -3l1 12c44 0 51 5 52 23c3 28 4 80 4 144v225l-55 5zM189 420h120c0 58 2 98 19 147c-9 36 -35 77 -75 77
c-24 0 -44 -14 -52 -51c-7 -23 -12 -70 -12 -173z" />
    <glyph glyph-name=".notdef" horiz-adv-x="500" 
d="M0 0v700h500v-700h-500zM250 395l170 255h-340zM280 350l170 -255v510zM80 50h340l-170 255zM50 605v-510l170 255z" />
    <glyph glyph-name="space" unicode=" " horiz-adv-x="144" 
 />
    <glyph glyph-name="exclam" unicode="!" horiz-adv-x="232" 
d="M117 649h1c29 0 82 -56 82 -96c0 -19 -8 -46 -19 -76c-34 -92 -56 -177 -56 -267h-17c0 90 -22 175 -56 267c-11 30 -19 57 -19 76c0 50 64 96 84 96zM119 -14h-1c-36 0 -67 31 -67 74c0 42 31 73 69 73s68 -31 68 -74c0 -41 -28 -73 -69 -73z" />
    <glyph glyph-name="quotedbl" unicode="&#x22;" horiz-adv-x="290" 
d="M234 696h1c20 0 26 -38 26 -51c0 -42 -37 -143 -49 -177l-12 4c-6 72 -21 161 -31 195c11 9 46 29 65 29zM103 696h1c20 0 27 -38 27 -51c0 -42 -37 -143 -50 -177l-12 4c-6 72 -20 163 -30 195c10 9 45 29 64 29z" />
    <glyph glyph-name="numbersign" unicode="#" horiz-adv-x="410" 
d="M260 381h-91l-22 -94h91zM191 564l27 3c-8 -16 -20 -64 -33 -118h90c10 43 20 85 26 115l28 3c-11 -30 -23 -74 -33 -118h81c-7 -20 -13 -52 -17 -69h-79l-23 -92c48 2 66 2 90 2c-5 -14 -12 -49 -15 -72c-20 1 -46 0 -90 2c-10 -51 -20 -100 -28 -132l-27 -4
c7 21 20 76 35 136h-91c-14 -56 -25 -108 -31 -132l-26 -6c7 16 17 64 35 138c-23 -2 -45 0 -77 -2c7 23 12 50 14 71c15 -1 37 -1 79 -2l24 94c-31 1 -64 0 -90 -1c5 17 11 46 15 69c18 0 56 1 91 0c10 42 19 88 25 115z" />
    <glyph glyph-name="dollar" unicode="$" horiz-adv-x="431" 
d="M315 119v1c0 54 -34 74 -90 107l-6 -198c55 3 96 35 96 90zM130 494v-1c0 -53 40 -78 85 -104l8 193c-67 -2 -93 -44 -93 -88zM227 663l23 6l-4 -72c40 -2 80 -17 101 -35l16 40l9 -5c-12 -70 -18 -136 -17 -180l-13 2c0 86 -29 147 -98 162l-12 -203
c76 -46 102 -60 120 -75c31 -25 48 -62 48 -116c0 -45 -15 -82 -37 -108c-32 -37 -81 -62 -144 -65l-2 -72l-24 -9l4 81c-60 0 -114 17 -156 25c7 52 12 107 14 168l13 5c-3 -132 59 -181 130 -183l9 208c-30 16 -70 41 -96 60c-49 36 -63 86 -63 130c0 56 23 99 53 126
c26 24 71 43 124 44z" />
    <glyph glyph-name="percent" unicode="%" horiz-adv-x="564" 
d="M104 1l-16 20l339 556c-25 -17 -54 -33 -114 -33c-30 0 -55 5 -68 11c8 -20 14 -41 14 -91c0 -89 -37 -161 -113 -161c-74 0 -116 51 -116 151c0 101 55 161 130 161c17 0 33 -5 48 -14l14 8c18 -26 51 -48 108 -48c73 0 101 35 111 49c7 9 13 18 20 29l32 5
c-71 -113 -252 -404 -389 -643zM168 597h-1c-12 0 -23 -6 -31 -17c-10 -18 -20 -58 -21 -122c-1 -56 7 -102 20 -120c7 -10 18 -17 33 -17c27 0 62 42 62 150c0 47 -10 126 -62 126zM431 330h1c81 0 102 -83 102 -152c0 -88 -36 -160 -112 -160c-73 0 -116 53 -116 149
c0 104 52 163 125 163zM445 313h-1c-14 0 -26 -5 -33 -19c-9 -16 -20 -59 -20 -121c0 -63 7 -103 20 -122c7 -10 18 -15 31 -15c33 0 62 50 62 144c0 46 -10 133 -59 133z" />
    <glyph glyph-name="ampersand" unicode="&#x26;" horiz-adv-x="617" 
d="M597 17l-1 -13c-40 -14 -82 -22 -131 -22c-39 0 -75 13 -138 93c-32 -54 -76 -89 -139 -89c-46 0 -83 10 -117 49c-22 25 -37 67 -37 115c0 49 16 80 44 107c20 21 49 41 72 58c-36 55 -50 101 -50 152c0 83 55 148 147 148c85 0 136 -52 136 -121c0 -44 -21 -69 -47 -88
c-19 -14 -36 -26 -74 -49c36 -52 83 -117 120 -162c22 66 27 69 38 99c23 60 49 110 98 110c27 0 44 -15 44 -46c0 -15 -8 -32 -20 -41c-7 -6 -13 -5 -20 -1c-6 3 -14 5 -22 5c-25 0 -43 -13 -64 -51c-12 -20 -28 -50 -44 -88c107 -128 162 -167 205 -165zM247 600h-1
c-26 0 -48 -27 -48 -87c0 -55 26 -101 56 -145c31 33 48 82 48 129c0 60 -18 103 -55 103zM137 216v-1c0 -84 47 -169 117 -169c32 0 52 18 64 39c-47 60 -109 139 -159 217c-12 -18 -22 -55 -22 -86z" />
    <glyph glyph-name="quotesingle" unicode="'" horiz-adv-x="154" 
d="M100 696h1c20 0 27 -38 27 -51c0 -42 -37 -143 -49 -177l-12 4c-6 72 -21 161 -31 195c10 9 45 29 64 29z" />
    <glyph glyph-name="parenleft" unicode="(" horiz-adv-x="310" 
d="M45 261v1c0 145 34 266 108 356c31 40 71 74 116 96l8 -13c-43 -22 -102 -75 -122 -210c-11 -75 -12 -155 -12 -230c0 -89 4 -173 12 -231c20 -138 79 -189 122 -209l-8 -15c-45 23 -85 58 -116 97c-74 90 -108 211 -108 358z" />
    <glyph glyph-name="parenright" unicode=")" horiz-adv-x="310" 
d="M266 259v-1c0 -145 -34 -266 -108 -356c-31 -39 -71 -74 -115 -96l-9 14c43 21 102 74 122 210c9 58 12 142 12 230c0 74 0 157 -12 231c-20 138 -79 188 -122 208l9 15c44 -23 84 -58 115 -97c74 -90 108 -211 108 -358z" />
    <glyph glyph-name="asterisk" unicode="*" horiz-adv-x="329" 
d="M191 539l-3 9c34 10 64 49 79 52c18 3 34 -23 36 -31s0 -40 -19 -41c-15 -3 -59 16 -93 11zM180 519l7 7c26 -25 75 -31 85 -42c11 -15 -3 -41 -9 -48c-6 -5 -34 -19 -46 -3c-9 9 -14 59 -37 86zM158 517l8 -2c-8 -34 11 -81 6 -94c-6 -17 -37 -18 -44 -16
c-8 3 -35 19 -27 38c5 13 44 42 57 74zM144 534l2 -8c-32 -9 -63 -49 -77 -52c-18 -3 -35 23 -37 31c-1 8 1 39 19 41c15 2 60 -17 93 -12zM154 556l-7 -7c-25 25 -75 31 -84 44c-11 13 2 40 8 46c6 5 35 20 46 4c9 -11 15 -60 37 -87zM177 556l-9 3c9 34 -11 80 -6 94
c6 17 37 18 45 17c8 -4 34 -21 27 -38c-5 -14 -45 -44 -57 -76z" />
    <glyph glyph-name="plus" unicode="+" horiz-adv-x="420" 
d="M232 29h-44v163h-149v41h149v149h44v-149h148v-41h-148v-163z" />
    <glyph glyph-name="comma" unicode="," horiz-adv-x="213" 
d="M35 -116l-5 12c62 9 114 52 114 118c0 7 -3 8 -8 3c-9 -8 -25 -12 -40 -12c-31 0 -60 23 -59 65c0 35 30 67 65 67c52 0 77 -42 77 -101c0 -104 -82 -150 -144 -152z" />
    <glyph glyph-name="hyphen" unicode="-" horiz-adv-x="282" 
d="M33 197l10 54c73 -2 130 -2 207 0l-10 -54c-77 3 -135 3 -207 0z" />
    <glyph glyph-name="period" unicode="." horiz-adv-x="213" 
d="M108 133h1c37 0 67 -31 67 -74s-31 -73 -69 -73c-39 0 -69 30 -69 73c0 42 32 74 70 74z" />
    <glyph glyph-name="slash" unicode="/" horiz-adv-x="342" 
d="M284 693l29 -15c-12 -28 -79 -232 -131 -397l-121 -389l-30 15c29 79 77 236 127 391c51 154 112 346 126 395z" />
    <glyph glyph-name="zero" unicode="0" horiz-adv-x="431" 
d="M220 617h1c54 0 94 -19 128 -61c39 -47 62 -139 62 -247c0 -147 -35 -235 -82 -280c-37 -34 -81 -42 -115 -42c-45 0 -90 15 -121 46c-54 56 -73 155 -73 270c0 107 25 205 82 261c31 33 69 53 118 53zM218 602h-1c-21 0 -32 -13 -44 -45c-16 -50 -25 -157 -25 -254
c0 -83 9 -196 23 -246c10 -32 21 -55 47 -55c23 0 35 18 44 54c14 52 21 155 21 246c0 111 -8 205 -22 252c-9 31 -20 48 -43 48z" />
    <glyph glyph-name="one" unicode="1" horiz-adv-x="431" 
d="M369 10v-13c-62 0 -111 3 -153 3c-43 0 -108 -3 -144 -3l-4 13l57 5c24 3 29 12 30 23c1 21 3 71 3 147v234c0 69 -1 124 -3 148c-1 8 -2 11 -10 11c-15 0 -43 -1 -61 -2l4 13c81 8 181 21 200 28l3 -2c-1 -38 -4 -94 -4 -201v-229c0 -81 1 -122 3 -148
c1 -13 7 -20 23 -21z" />
    <glyph glyph-name="two" unicode="2" horiz-adv-x="431" 
d="M396 178l11 -6c-15 -51 -25 -142 -26 -177c-22 2 -60 5 -265 5c-38 0 -68 0 -88 -2l-4 6c9 26 16 52 26 72c118 88 165 181 183 261c9 38 14 73 14 132c0 85 -20 132 -62 132c-38 0 -55 -26 -55 -88c0 -17 5 -35 9 -53c3 -12 -3 -24 -12 -34c-9 -9 -23 -17 -41 -17
c-33 0 -57 23 -57 65c0 34 16 67 48 97c31 28 81 46 134 46c50 0 92 -15 115 -35c45 -38 57 -87 57 -147c0 -67 -25 -118 -63 -155c-40 -39 -99 -85 -211 -178c152 4 231 8 249 10c14 2 19 7 24 22c4 12 9 23 14 44z" />
    <glyph glyph-name="three" unicode="3" horiz-adv-x="431" 
d="M212 617h1c90 0 161 -48 161 -138c0 -56 -32 -90 -62 -109c-36 -22 -69 -33 -108 -43v-6c72 -2 122 -18 151 -43c30 -25 47 -58 47 -106c0 -61 -25 -106 -59 -136c-36 -31 -92 -49 -153 -49c-110 0 -162 46 -162 98c0 31 30 54 59 54c21 0 29 -16 30 -27
c15 -85 34 -110 72 -110c49 0 70 63 70 158c0 94 -18 147 -87 147c-10 0 -27 -2 -40 -6l-13 12l1 3c31 3 61 11 80 27c26 19 45 60 45 129c0 67 -21 127 -65 127c-33 0 -53 -20 -53 -78c0 -12 3 -26 6 -37c2 -9 -2 -21 -8 -26c-9 -12 -23 -16 -36 -16c-28 0 -49 18 -49 55
c0 52 58 120 172 120z" />
    <glyph glyph-name="four" unicode="4" horiz-adv-x="431" 
d="M213 205c7 134 6 262 8 333c-57 -94 -118 -196 -178 -317c17 -6 88 -16 170 -16zM16 192l-11 18c83 141 169 277 222 373c38 7 97 25 114 35l4 -2c-4 -79 -6 -214 -6 -320v-88c45 1 68 7 89 15l1 -11c-17 -13 -45 -23 -90 -28c0 -63 0 -130 2 -184
c-60 -1 -106 -5 -132 -12l-3 2c2 34 3 86 6 189c-98 0 -170 9 -196 13z" />
    <glyph glyph-name="five" unicode="5" horiz-adv-x="431" 
d="M77 259l-16 16c21 78 35 298 34 331c8 -4 28 -7 53 -10c25 -2 56 -4 84 -4c86 0 135 2 159 38l9 -5c-12 -51 -39 -105 -72 -124c-29 -15 -74 -21 -116 -21c-41 0 -79 4 -102 9c-7 -60 -15 -136 -26 -192c32 31 88 62 148 62c91 0 167 -44 167 -164
c0 -52 -13 -93 -34 -125c-36 -54 -99 -83 -175 -83c-106 0 -157 45 -157 95c0 37 32 53 59 53c19 0 27 -17 30 -28c15 -76 33 -105 70 -105c44 0 67 60 67 167c0 56 -10 106 -37 132c-14 15 -32 21 -52 21c-45 0 -78 -29 -93 -63z" />
    <glyph glyph-name="six" unicode="6" horiz-adv-x="431" 
d="M373 608l1 -15c-10 3 -25 4 -33 4c-110 0 -180 -128 -185 -282c28 30 70 66 119 66c88 0 137 -75 137 -175c0 -69 -23 -120 -48 -152c-33 -41 -84 -66 -147 -66c-50 0 -98 15 -133 53c-39 40 -62 115 -62 202c0 128 34 225 108 298c56 54 121 76 194 76c27 0 42 -6 49 -9
zM219 336h-1c-25 0 -46 -20 -55 -45c-7 -18 -10 -37 -10 -77c0 -36 3 -85 11 -125c9 -52 27 -85 56 -85c27 0 40 24 48 51c12 40 14 89 14 123c0 36 -3 68 -9 96c-7 29 -22 62 -54 62z" />
    <glyph glyph-name="seven" unicode="7" horiz-adv-x="431" 
d="M46 407l-11 5c19 63 27 175 25 202c18 -5 47 -10 181 -10c117 0 143 1 162 2l2 -6c-10 -40 -24 -106 -50 -159c-72 -146 -134 -300 -134 -451l-3 -2c-33 -1 -60 3 -78 11c-14 7 -26 19 -26 35c0 26 12 48 18 64c43 107 180 282 223 391c-45 4 -96 3 -143 3
c-119 0 -134 -7 -144 -30c-6 -14 -15 -35 -22 -55z" />
    <glyph glyph-name="eight" unicode="8" horiz-adv-x="431" 
d="M227 617h1c83 0 146 -58 146 -141c0 -35 -15 -57 -28 -70c-13 -14 -36 -29 -73 -57c99 -65 127 -115 127 -179c0 -57 -18 -96 -48 -126c-36 -35 -91 -56 -144 -56c-101 0 -176 50 -176 149c0 46 18 71 37 89s38 31 74 58c-60 49 -92 89 -92 157c0 48 11 82 34 112
c27 36 75 64 142 64zM210 600h-1c-37 0 -72 -31 -72 -91c0 -33 8 -56 28 -78c22 -25 62 -51 96 -72c24 25 41 60 41 114c0 65 -27 127 -92 127zM222 5h1c58 0 81 44 81 98c0 50 -19 83 -149 173c-20 -20 -43 -56 -43 -116c0 -78 35 -155 110 -155z" />
    <glyph glyph-name="nine" unicode="9" horiz-adv-x="431" 
d="M72 -6l-2 13c30 -2 49 0 74 10c86 27 130 147 136 271c-32 -34 -79 -58 -113 -58c-89 0 -144 63 -144 180c0 53 15 96 43 134c31 42 84 73 150 73c53 0 97 -18 128 -52c51 -55 67 -134 67 -227c0 -119 -40 -222 -101 -281c-54 -52 -125 -70 -183 -70c-21 0 -42 2 -55 7z
M214 601h-1c-16 0 -36 -7 -48 -52c-9 -38 -13 -72 -13 -120c0 -70 19 -156 67 -156c29 0 42 14 52 37c7 18 9 42 10 97c1 72 -11 137 -27 164c-10 18 -20 30 -40 30z" />
    <glyph glyph-name="colon" unicode=":" horiz-adv-x="211" 
d="M106 126h1c39 0 67 -31 67 -70c0 -41 -31 -70 -68 -70c-36 0 -67 27 -67 70c0 39 30 70 67 70zM107 400h1c39 0 67 -30 67 -70s-30 -70 -68 -70c-36 0 -67 29 -67 70c0 40 31 70 67 70z" />
    <glyph glyph-name="semicolon" unicode=";" horiz-adv-x="213" 
d="M105 400h1c39 0 67 -30 67 -70s-31 -70 -68 -70c-38 0 -67 29 -67 70c0 40 31 70 67 70zM38 -116l-6 12c60 9 111 51 111 116c0 7 -3 7 -7 3c-9 -8 -26 -12 -40 -12c-31 0 -58 23 -57 64c1 35 29 66 63 66c51 0 76 -42 76 -100c0 -102 -81 -146 -140 -149z" />
    <glyph glyph-name="less" unicode="&#x3c;" horiz-adv-x="408" 
d="M50 196v37l308 170v-47l-260 -140v-2l260 -141v-47z" />
    <glyph glyph-name="equal" unicode="=" horiz-adv-x="420" 
d="M380 162v-41h-341v41h341zM380 300v-40h-341v40h341z" />
    <glyph glyph-name="greater" unicode="&#x3e;" horiz-adv-x="408" 
d="M357 233v-37l-307 -170v47l259 140v3l-259 140v47z" />
    <glyph glyph-name="question" unicode="?" horiz-adv-x="367" 
d="M180 213l-11 -6c-26 31 -48 64 -53 107c-3 25 5 47 23 68c25 29 79 83 95 101c14 14 23 28 23 55c0 65 -31 95 -69 95c-37 0 -61 -29 -61 -67c0 -20 4 -36 11 -50c7 -16 2 -24 -11 -36c-13 -11 -31 -17 -50 -17c-21 0 -46 16 -46 60c0 80 82 126 157 126
c111 0 155 -77 156 -178c0 -49 -23 -82 -46 -101c-37 -31 -85 -74 -98 -88c-22 -22 -29 -35 -20 -69zM179 -14h-1c-36 0 -67 31 -67 74c0 42 31 73 69 73c39 0 69 -31 69 -74c0 -41 -28 -73 -70 -73z" />
    <glyph glyph-name="at" unicode="@" horiz-adv-x="660" 
d="M280 97v-1c0 -14 7 -24 14 -24c42 0 83 81 104 150c11 36 18 69 22 85c1 29 -11 44 -31 44c-14 0 -34 -14 -47 -38c-45 -83 -62 -159 -62 -216zM481 -20l6 -16c-65 -70 -134 -93 -219 -93c-146 0 -230 92 -230 258c0 189 117 384 353 384c169 0 233 -111 233 -234
c0 -141 -83 -244 -194 -244c-73 0 -64 41 -47 112c-28 -56 -75 -111 -137 -111c-42 0 -53 37 -53 76c0 67 35 174 106 224c32 23 63 29 86 29s37 -13 44 -27l6 20h80c-32 -92 -57 -214 -64 -262c-3 -24 -2 -36 12 -36c70 0 140 89 140 209c0 133 -75 226 -213 226
c-87 0 -153 -42 -194 -105c-58 -88 -75 -174 -75 -266c0 -82 19 -141 48 -175c37 -43 82 -56 136 -56c78 0 132 33 176 87z" />
    <glyph glyph-name="A" unicode="A" horiz-adv-x="510" 
d="M525 9v-12c-21 0 -72 3 -130 3c-50 0 -85 -2 -127 -3l3 12c43 6 49 8 46 30c-5 28 -27 127 -45 209c-17 1 -46 1 -71 1c-27 0 -55 0 -73 -1c-31 -116 -41 -161 -45 -186c-5 -39 6 -46 73 -53l-1 -12c-22 0 -49 3 -85 3c-23 0 -64 -3 -94 -3v12c48 5 59 12 75 59
c33 100 122 417 146 504c6 19 7 30 9 47c22 0 92 9 110 18c21 -112 124 -540 150 -600c7 -17 15 -23 28 -24zM208 551c-16 -62 -40 -143 -74 -283c17 0 45 -1 69 -1c25 0 51 1 64 1c-17 84 -42 207 -59 283z" />
    <glyph glyph-name="B" unicode="B" horiz-adv-x="520" 
d="M11 -3l1 12c47 3 60 5 62 25c2 32 5 106 5 197v196c0 93 0 130 -3 166c-2 15 -18 19 -65 23l-1 12c25 0 75 -3 122 -3c31 0 102 3 149 3c86 0 114 -9 142 -31c29 -23 40 -62 40 -106c0 -71 -36 -106 -73 -125c-24 -13 -51 -21 -88 -27v-6c62 -6 106 -16 140 -40
c30 -22 51 -56 51 -115c0 -60 -20 -104 -60 -134c-43 -33 -108 -46 -185 -46c-39 0 -83 2 -122 2c-31 0 -82 -3 -115 -3zM210 474v-133c9 -1 25 -1 35 -1c53 0 82 31 82 139c0 45 -5 74 -17 98c-11 22 -35 36 -67 36c-25 0 -30 -5 -30 -17c-1 -30 -3 -68 -3 -122zM210 322
v-138c0 -77 1 -122 3 -153c1 -11 10 -17 33 -17c40 0 64 14 79 43c13 25 21 71 21 123c0 50 -5 87 -20 112c-15 22 -42 33 -81 33c-11 0 -28 -1 -35 -3z" />
    <glyph glyph-name="C" unicode="C" horiz-adv-x="515" 
d="M480 440l-13 -4c-8 81 -42 187 -135 187c-42 0 -72 -17 -98 -60c-32 -51 -54 -143 -54 -247c0 -87 12 -159 38 -212c26 -52 64 -79 123 -79c55 0 121 28 149 138l13 -8c-25 -109 -96 -170 -212 -170c-95 0 -162 33 -205 98c-38 54 -55 135 -55 216c0 119 35 210 96 269
c47 47 107 72 191 72c69 0 117 -18 143 -50l14 48l11 -5c-7 -63 -9 -150 -6 -193z" />
    <glyph glyph-name="D" unicode="D" horiz-adv-x="584" 
d="M79 257v158c0 100 -2 153 -3 174c0 17 -9 21 -24 23l-40 4l1 12c19 0 78 -3 125 -3c42 0 90 3 136 3c96 0 145 -16 179 -40c68 -46 101 -131 101 -250c0 -134 -39 -254 -141 -307c-41 -22 -94 -34 -162 -34c-45 0 -88 3 -133 3c-48 0 -91 -3 -110 -3v13l33 2
c23 3 30 11 31 28c2 21 7 109 7 217zM209 405v-153c0 -156 1 -196 3 -220c1 -14 6 -19 36 -19c58 0 93 23 114 56c25 41 49 119 49 261c0 112 -18 192 -48 233c-26 34 -60 50 -108 50c-39 0 -40 -8 -41 -21c-2 -15 -5 -67 -5 -187z" />
    <glyph glyph-name="E" unicode="E" horiz-adv-x="481" 
d="M12 617v11c26 0 104 -3 146 -3h146c57 0 101 3 117 8c-4 -33 -4 -130 -3 -164l-12 -2c-6 41 -13 66 -28 96c-18 36 -39 46 -118 46h-29c-12 0 -15 -6 -16 -16c-2 -32 -5 -96 -5 -164v-96c11 -1 37 -1 48 -1c68 0 89 26 98 90h11c-7 -59 -7 -166 -3 -210h-11
c-11 68 -23 102 -95 102c-12 0 -36 1 -48 -1v-77c0 -75 2 -160 4 -195c1 -18 9 -25 53 -25c69 0 91 4 122 32c32 29 51 83 62 123l10 -4c-1 -23 -20 -149 -25 -172c-37 3 -91 5 -178 5h-103c-54 0 -119 -3 -148 -3l1 12l38 4c17 2 26 8 28 31c3 37 5 104 5 197v174
c0 107 -1 147 -3 177c-1 16 -12 20 -31 22z" />
    <glyph glyph-name="F" unicode="F" horiz-adv-x="454" 
d="M12 617l-1 11c25 0 87 -3 146 -3h122c86 0 130 4 152 8c-7 -66 -6 -140 -5 -165l-11 -1c-4 31 -10 60 -25 88c-17 35 -44 54 -118 54h-41c-9 0 -16 -3 -17 -14c-1 -10 -4 -70 -4 -174v-95c10 -2 33 -2 51 -2c62 0 96 20 106 90l11 -2c-7 -52 -7 -168 -1 -211h-11
c-13 69 -25 104 -105 104c-19 0 -43 0 -51 -1v-100c0 -103 2 -140 3 -160c1 -17 7 -26 24 -28c12 -1 31 -5 53 -7l-2 -12c-27 0 -101 3 -141 3c-54 0 -115 -3 -135 -3l-2 12l38 5c14 1 24 6 25 24c2 22 6 105 6 196v186c0 107 -2 153 -3 170c0 14 -10 22 -20 23z" />
    <glyph glyph-name="G" unicode="G" horiz-adv-x="573" 
d="M495 432h-15c-10 124 -69 193 -146 193c-45 0 -76 -17 -105 -69c-30 -52 -48 -136 -48 -250c0 -91 14 -175 37 -224c25 -56 55 -81 103 -81c35 0 51 13 54 50c3 33 3 108 3 158c-1 58 -4 67 -35 70l-41 4l-2 12c27 -1 99 -3 134 -3s103 2 119 3l2 -11
c-38 -6 -43 -11 -45 -31c-5 -50 -4 -81 -4 -115c0 -63 2 -83 3 -110c-23 -6 -53 -16 -76 -23c-38 -12 -82 -20 -120 -20c-107 0 -182 28 -230 103c-34 51 -52 126 -52 219c0 120 43 223 121 282c47 37 106 51 179 51c75 0 129 -31 149 -52l17 52l10 -5
c-7 -32 -16 -147 -12 -203z" />
    <glyph glyph-name="H" unicode="H" horiz-adv-x="595" 
d="M79 216v184c0 95 0 152 -2 185c-1 26 -17 30 -60 31l1 12c26 0 87 -3 119 -3c30 0 106 3 131 3l-1 -12c-38 0 -50 -6 -52 -33c-3 -28 -5 -92 -5 -162v-81c20 -1 49 -1 82 -1s64 0 93 1v95c0 86 -2 122 -3 153c-1 23 -19 27 -56 28l2 12c30 -1 96 -3 120 -3
c42 0 111 2 129 3v-12c-43 -2 -55 -6 -56 -29c-3 -33 -5 -102 -5 -174v-170c0 -100 2 -184 5 -211c1 -15 13 -19 61 -23l-3 -12c-24 1 -78 3 -131 3c-50 0 -100 -2 -124 -3v12c41 4 55 8 56 33c1 21 5 72 5 175v101c-24 1 -58 2 -92 2s-63 -1 -83 -2v-102
c0 -85 2 -151 4 -175c1 -26 18 -31 60 -32v-12c-31 0 -90 3 -142 3c-39 0 -86 -3 -120 -3v12c43 2 60 7 61 31c2 23 6 75 6 176z" />
    <glyph glyph-name="I" unicode="I" horiz-adv-x="289" 
d="M79 221v188c0 115 -1 152 -2 175c-2 26 -13 28 -60 32l1 12c27 0 77 -3 127 -3c46 0 99 3 125 3l2 -12c-46 -3 -56 -7 -57 -29c-2 -24 -4 -81 -4 -177v-189c0 -101 3 -153 5 -179c1 -27 11 -29 58 -33l-2 -12c-29 0 -78 3 -129 3c-50 0 -106 -3 -129 -3l1 12
c47 3 58 7 60 32c2 21 4 78 4 180z" />
    <glyph glyph-name="J" unicode="J" horiz-adv-x="280" 
d="M14 616l3 12c26 0 77 -3 121 -3c43 0 106 3 131 3l-1 -12l-28 -3c-21 -2 -24 -11 -25 -27c-4 -78 -5 -194 -5 -455c0 -46 -8 -90 -15 -113c-12 -40 -30 -78 -59 -107c-44 -46 -100 -77 -153 -77c-38 0 -62 19 -62 36c0 20 25 46 43 46c8 0 13 -2 18 -10
c18 -27 37 -41 53 -41c21 0 34 21 37 67c5 71 6 161 7 289l1 215c1 75 -1 118 -2 148c0 17 -8 25 -20 27c-11 2 -30 4 -44 5z" />
    <glyph glyph-name="K" unicode="K" horiz-adv-x="554" 
d="M79 223v179c0 100 -1 161 -2 185s-13 26 -57 30l1 11c19 0 71 -3 122 -3c54 0 101 3 125 3l2 -11c-45 -4 -53 -5 -55 -30c-2 -27 -5 -88 -5 -189v-80c79 57 184 215 212 269c9 16 4 20 -9 22l-55 7l8 12c24 0 44 -3 86 -3c37 0 70 2 92 3l2 -11c-45 -2 -66 -12 -84 -29
c-31 -32 -97 -126 -147 -187c46 -94 168 -323 203 -368c14 -17 20 -19 63 -23l-4 -13c-44 3 -80 2 -112 0c-37 -2 -67 -5 -88 -8c-16 37 -111 216 -144 286c-8 15 -16 30 -23 31v-75c0 -108 3 -166 5 -191c2 -24 9 -26 61 -31l-1 -12c-27 0 -78 3 -136 3
c-51 0 -110 -3 -127 -3v12c49 5 60 7 62 31c3 20 5 85 5 183z" />
    <glyph glyph-name="L" unicode="L" horiz-adv-x="455" 
d="M431 176l11 -1c-6 -35 -12 -122 -18 -179c-13 1 -49 2 -97 3s-115 1 -182 1c-38 0 -121 -3 -136 -3v12l40 5c18 3 23 8 24 26c4 35 6 120 6 224v163c0 105 -1 142 -2 165c0 14 -7 19 -23 21l-37 3l1 12c24 0 89 -3 131 -3c47 0 87 2 126 3l3 -12l-38 -4
c-17 -2 -24 -8 -25 -25c-1 -42 -5 -124 -5 -220v-107c0 -113 1 -198 3 -226c0 -11 7 -18 32 -18c73 0 107 7 132 38c26 31 40 73 54 122z" />
    <glyph glyph-name="M" unicode="M" horiz-adv-x="695" 
d="M18 616v12c55 -3 87 -3 111 -3c39 0 71 2 84 3c18 -65 93 -259 146 -422c50 152 115 375 127 422c17 -2 39 -3 78 -3c50 0 87 3 111 3l3 -12c-14 -1 -38 -4 -50 -6c-9 -2 -13 -10 -14 -22c-1 -20 1 -65 0 -138c-2 -179 1 -350 4 -401c2 -27 8 -33 25 -35l39 -5l-1 -12
c-18 2 -83 3 -126 3c-46 0 -92 -2 -131 -3l2 12c42 4 51 9 52 28c3 47 7 310 13 546h-1c-74 -259 -133 -491 -157 -574l-58 -15c-30 120 -127 415 -175 582h-2c0 -231 4 -385 7 -489c0 -53 8 -67 35 -71l46 -7l-2 -12c-24 0 -64 3 -102 3c-36 0 -62 -3 -79 -3v12
c12 1 22 3 35 6c20 4 34 15 35 77c2 73 9 256 9 497l-3 10c-3 5 -11 11 -25 13z" />
    <glyph glyph-name="N" unicode="N" horiz-adv-x="539" 
d="M8 617v11c13 0 60 -3 101 -3c33 0 55 0 87 3c8 -17 20 -39 43 -81c25 -48 94 -165 213 -370c0 248 -3 364 -6 391c-5 34 -12 43 -45 46l-34 3l4 11c24 0 60 -3 91 -3c32 0 65 3 84 3v-11c-13 -3 -28 -4 -39 -7c-14 -4 -19 -14 -23 -34c-8 -42 -14 -176 -14 -339v-238
c-16 0 -53 -6 -71 -10l-300 548c0 -296 2 -442 6 -485c3 -23 14 -32 30 -35c12 -2 35 -5 51 -8l-2 -12c-24 0 -61 3 -107 3c-41 0 -58 -3 -76 -3v12c9 1 24 3 38 6c19 4 26 18 29 47c4 37 15 215 15 499c-3 9 -7 18 -15 32c-6 11 -13 16 -25 18z" />
    <glyph glyph-name="O" unicode="O" horiz-adv-x="581" 
d="M293 640h1c177 0 256 -154 256 -313c0 -201 -82 -342 -258 -342c-184 0 -261 152 -261 324c0 167 81 331 262 331zM289 625h-1c-31 0 -54 -20 -72 -57c-19 -40 -35 -132 -35 -242c0 -111 17 -227 40 -271c20 -39 42 -54 76 -54c32 0 55 16 73 63c18 46 30 137 30 242
c0 109 -14 209 -35 261c-18 42 -41 58 -76 58z" />
    <glyph glyph-name="P" unicode="P" horiz-adv-x="497" 
d="M79 292v130c0 94 -1 141 -3 168c-1 14 -3 19 -22 21l-45 4l5 13c18 0 78 -3 120 -3c45 0 77 3 136 3c96 0 132 -17 159 -46c24 -24 43 -71 43 -131c0 -62 -19 -107 -43 -135c-39 -45 -96 -60 -138 -60c-22 0 -43 3 -56 8v14c10 -3 21 -4 32 -4c17 0 34 11 42 28
c13 27 24 79 24 147c0 63 -12 116 -28 137c-12 17 -32 27 -62 27c-23 0 -28 -3 -29 -20c-2 -35 -5 -101 -5 -200v-114v-103c0 -76 2 -112 3 -131c2 -22 7 -27 30 -30l46 -6l-1 -12c-33 0 -85 3 -147 3c-49 0 -101 -3 -132 -3v12l30 4c28 3 33 8 35 38c4 51 6 152 6 241z" />
    <glyph glyph-name="Q" unicode="Q" horiz-adv-x="581" 
d="M635 -85l1 -6c-30 -46 -92 -66 -140 -66c-55 0 -106 31 -177 100c-36 36 -56 44 -94 53c-115 27 -194 125 -194 306s77 338 264 338c172 0 255 -144 255 -325c0 -226 -118 -308 -208 -323v-4c12 -4 54 -17 78 -29c57 -27 113 -49 157 -50c21 -1 41 1 58 6zM292 626h-1
c-32 0 -53 -18 -72 -56c-25 -50 -38 -155 -38 -258c0 -109 16 -216 41 -263c20 -37 41 -54 75 -54c30 0 52 11 70 50c18 47 33 164 33 275c0 107 -13 203 -36 254c-18 35 -38 52 -72 52z" />
    <glyph glyph-name="R" unicode="R" horiz-adv-x="531" 
d="M79 236v160c0 124 -1 171 -2 193c-1 15 -7 21 -23 23l-46 5l5 11c16 0 76 -3 118 -3c39 0 88 3 140 3c94 0 131 -13 157 -38c26 -24 36 -61 36 -101c0 -104 -71 -149 -180 -162v-5c125 -16 170 -61 181 -134c9 -43 15 -92 16 -133c1 -34 16 -47 38 -47c9 0 16 1 24 3
l-4 -13c-12 -4 -42 -7 -63 -7c-90 0 -136 34 -141 131c-2 33 -3 75 -5 103c-6 74 -33 88 -106 88h-14v-86c0 -106 2 -157 3 -187c2 -23 7 -26 59 -31l-2 -12c-26 0 -78 3 -125 3c-48 0 -106 -3 -132 -3l1 12c47 4 59 8 61 30c2 21 4 76 4 197zM210 414v-86h14
c88 0 104 59 104 150c0 46 -6 79 -17 100c-9 20 -33 35 -64 35c-10 0 -15 0 -21 -2c-7 -1 -11 -7 -12 -18c-1 -15 -4 -57 -4 -179z" />
    <glyph glyph-name="S" unicode="S" horiz-adv-x="412" 
d="M37 181l12 6c-5 -95 48 -186 140 -186c55 0 91 39 91 106c0 43 -15 71 -39 90l-132 104c-51 40 -73 90 -73 149c0 118 71 190 182 190c46 0 90 -16 110 -38l19 44l9 -3c-11 -82 -13 -146 -12 -177l-12 -4c-2 93 -51 163 -113 163c-56 0 -87 -43 -87 -106
c0 -35 15 -71 43 -91c71 -58 111 -86 144 -110c46 -31 68 -76 68 -139c-1 -121 -83 -194 -212 -194c-53 0 -114 18 -144 31c6 60 5 126 6 165z" />
    <glyph glyph-name="T" unicode="T" horiz-adv-x="492" 
d="M311 459v-188c0 -132 2 -201 4 -226c1 -21 7 -28 23 -29c28 -3 34 -6 57 -7l-4 -12c-22 0 -86 3 -151 3c-49 0 -107 -3 -142 -3l-3 12c14 1 24 4 48 6c21 2 33 8 34 27c1 35 3 94 3 234v168c0 71 0 138 -1 166c-85 0 -96 -12 -113 -45c-23 -42 -33 -82 -44 -111l-10 4
c8 33 15 133 17 177c27 -5 88 -10 173 -10h84c106 0 159 2 188 10c-2 -13 -10 -108 -8 -167l-11 -6c-9 57 -25 98 -36 117c-11 22 -27 34 -106 31c-1 -26 -2 -85 -2 -151z" />
    <glyph glyph-name="U" unicode="U" horiz-adv-x="539" 
d="M320 18h1c64 0 120 24 127 157c8 169 2 335 -1 393c-2 37 -15 41 -34 44l-41 4l-1 12c21 0 58 -3 87 -3s51 3 80 3l4 -12l-31 -3c-23 -2 -28 -13 -29 -42c-5 -120 -7 -319 -15 -404c-6 -75 -32 -118 -63 -142c-33 -27 -77 -39 -132 -39c-77 0 -134 19 -167 62
c-23 31 -32 72 -33 138c-1 97 1 327 -1 392c-1 23 -4 32 -19 34l-38 4v12c33 0 81 -3 125 -3c47 0 96 3 122 3l3 -11l-36 -5c-14 -2 -17 -9 -18 -24c-7 -91 -11 -278 -5 -424c2 -70 11 -97 32 -117c17 -18 52 -29 83 -29z" />
    <glyph glyph-name="V" unicode="V" horiz-adv-x="503" 
d="M-24 616v12c24 0 81 -3 131 -3c45 0 85 3 127 3l5 -12l-38 -6c-13 -2 -19 -6 -15 -21c5 -29 83 -297 127 -444c44 137 103 344 119 435c3 21 -3 27 -17 29c-15 3 -35 6 -50 7l-3 12c18 0 63 -3 92 -3c27 0 45 3 83 3l3 -12c-47 0 -62 -15 -82 -68
c-38 -104 -111 -349 -169 -556c-17 2 -53 2 -66 -2c-58 203 -136 449 -179 581c-12 36 -22 44 -68 45z" />
    <glyph glyph-name="W" unicode="W" horiz-adv-x="757" 
d="M615 616l-2 12c26 0 65 -3 94 -3c37 0 53 3 79 3v-12c-52 -6 -59 -12 -74 -60c-50 -171 -103 -380 -151 -564c-30 1 -49 1 -67 -2c-25 109 -80 304 -123 483l-105 -481c-19 2 -55 -1 -68 -2c-43 191 -107 443 -142 555c-19 62 -26 68 -73 71v12c24 0 84 -3 123 -3
c46 0 87 3 129 3l4 -12l-38 -6c-12 -2 -17 -7 -14 -25c19 -94 78 -323 98 -412c37 161 90 423 94 454c25 -3 67 -2 85 0c18 -87 68 -262 120 -466c38 138 86 328 99 411c5 29 -1 36 -19 38z" />
    <glyph glyph-name="X" unicode="X" horiz-adv-x="484" 
d="M-7 616l-1 12c34 0 86 -3 134 -3c41 0 79 3 117 3l5 -12l-33 -4c-15 -3 -17 -10 -12 -25c11 -28 34 -82 78 -178c32 60 69 128 82 165c10 24 9 34 -18 38l-39 4l5 12c30 0 66 -3 89 -3c34 -1 61 3 88 3l2 -12c-64 -6 -73 -15 -102 -58c-21 -30 -57 -89 -99 -170
c87 -203 128 -290 154 -342c10 -20 22 -30 42 -33l34 -4l-3 -12c-34 0 -91 3 -142 3c-43 0 -83 -3 -124 -3l1 12c43 5 51 10 45 25c-9 27 -26 67 -99 241c-34 -67 -81 -159 -100 -206c-17 -42 -7 -51 17 -54l48 -6l4 -12c-24 0 -56 3 -93 3c-46 0 -66 -3 -97 -3l-4 12
c43 4 58 7 84 47c29 44 92 163 132 238l-130 293c-8 18 -22 27 -65 29z" />
    <glyph glyph-name="Y" unicode="Y" horiz-adv-x="459" 
d="M378 9l3 -12c-41 0 -107 3 -150 3c-58 0 -102 -3 -141 -3l-2 12c21 2 35 5 50 7c19 2 29 10 30 34c3 37 5 149 6 213c0 14 -2 26 -9 43c-21 57 -80 193 -119 264c-21 38 -28 44 -73 46l-1 12c24 0 90 -3 131 -3c60 0 104 3 131 3l2 -12l-36 -5c-15 -2 -15 -11 -10 -28
c14 -37 71 -174 106 -260c53 130 79 200 95 251c8 29 1 34 -13 36c-16 3 -32 4 -46 6l1 12c16 0 49 -3 84 -3s53 3 83 3l3 -12c-48 -3 -60 -8 -79 -44c-34 -63 -82 -183 -112 -256c-7 -16 -7 -28 -7 -46c-1 -65 0 -188 4 -233c1 -12 4 -20 18 -21c11 -1 29 -4 51 -7z" />
    <glyph glyph-name="Z" unicode="Z" horiz-adv-x="498" 
d="M222 624h39c46 0 83 1 114 1s61 2 90 3c-11 -45 -19 -57 -23 -66c-22 -43 -55 -112 -120 -250c-65 -142 -102 -213 -139 -296c193 0 209 8 240 46c23 28 37 72 50 126l10 -5c-5 -43 -17 -110 -18 -189c-28 3 -61 5 -96 5c-36 0 -66 1 -105 1h-153c-41 0 -55 0 -84 -3
l-5 11l297 600h-75c-109 0 -133 -17 -152 -57c-16 -31 -25 -72 -34 -105l-10 6c6 45 11 135 7 181c18 -4 35 -6 58 -8c21 -1 56 -1 109 -1z" />
    <glyph glyph-name="bracketleft" unicode="[" horiz-adv-x="305" 
d="M271 -153l-6 -16c-85 2 -142 2 -173 -5c1 66 3 168 3 437c0 212 -1 371 -3 431c22 -5 132 -4 179 0l-3 -15c-32 0 -64 -6 -76 -8c-9 -1 -15 -5 -16 -18c-5 -33 -8 -140 -8 -390c0 -240 1 -359 6 -393c1 -10 7 -18 25 -19z" />
    <glyph glyph-name="backslash" unicode="\" horiz-adv-x="338" 
d="M30 678l29 15c13 -49 74 -242 124 -397c49 -152 97 -310 126 -390l-30 -14l-120 390c-51 164 -117 367 -129 396z" />
    <glyph glyph-name="bracketright" unicode="]" horiz-adv-x="305" 
d="M35 673l5 16c85 -2 140 -2 174 5c-2 -66 -3 -168 -3 -438c0 -211 0 -370 3 -430c-22 5 -132 4 -179 0l3 15c32 0 63 4 76 7c8 1 14 5 15 19c6 32 8 140 8 389c0 240 -1 366 -6 400c-1 9 -10 13 -28 14z" />
    <glyph glyph-name="asciicircum" unicode="^" horiz-adv-x="393" 
d="M355 332h-48l-112 249l-107 -249h-50l139 299h40z" />
    <glyph glyph-name="underscore" unicode="_" horiz-adv-x="500" 
d="M500 -111v-58h-500v58h500z" />
    <glyph glyph-name="grave" unicode="`" horiz-adv-x="456" 
d="M251 476l-10 -5l-107 105c-11 12 -24 30 -24 49c0 26 18 33 28 33c23 0 36 -18 46 -39c16 -30 51 -110 67 -143z" />
    <glyph glyph-name="a" unicode="a" horiz-adv-x="424" 
d="M245 275v63c0 56 -19 80 -48 80c-38 0 -57 -21 -57 -72c0 -12 2 -25 4 -35s-2 -18 -8 -23c-10 -9 -28 -13 -43 -13c-26 0 -50 15 -50 50c0 48 60 108 172 108c87 0 120 -35 135 -56c8 -12 12 -30 12 -45v-267c0 -32 8 -38 19 -38c17 0 32 29 39 65l14 -5
c-12 -77 -59 -100 -108 -100c-53 0 -76 23 -81 66c-37 -41 -76 -66 -116 -66c-64 0 -106 47 -106 122c0 45 17 73 45 86c58 26 135 50 177 80zM150 132v-1c0 -36 13 -91 48 -91c26 0 36 20 42 37c3 7 5 22 5 34v148c-20 -13 -43 -25 -60 -37c-16 -12 -35 -30 -35 -90z" />
    <glyph glyph-name="b" unicode="b" horiz-adv-x="466" 
d="M-4 647l1 12c38 1 133 6 182 17c0 -26 -5 -117 -5 -243v-61c45 41 82 61 129 61c49 0 86 -25 108 -62c19 -34 30 -83 30 -135c0 -157 -63 -248 -207 -248c-41 0 -84 11 -110 27c-27 -9 -50 -23 -68 -28l-6 3c1 48 2 132 2 251v240c0 68 -2 109 -4 142c-1 21 -7 24 -52 24
zM232 2h1c61 0 79 86 79 218c0 56 -7 104 -21 135c-11 24 -27 37 -51 37c-27 0 -46 -17 -60 -39c-8 -12 -9 -20 -9 -171c0 -129 5 -134 12 -148c12 -22 29 -32 49 -32z" />
    <glyph glyph-name="c" unicode="c" horiz-adv-x="387" 
d="M362 117l12 -6c-23 -80 -70 -124 -159 -124c-78 0 -121 22 -153 68c-24 34 -37 80 -37 148c0 126 69 230 210 230c73 0 135 -33 135 -99c0 -44 -34 -60 -61 -60c-9 0 -20 2 -28 8c-14 9 -15 19 -11 39c3 12 4 23 4 33c0 43 -13 65 -43 65c-47 0 -74 -78 -74 -200
c0 -43 6 -94 18 -125c17 -47 43 -71 85 -71c56 0 84 39 102 94z" />
    <glyph glyph-name="d" unicode="d" horiz-adv-x="473" 
d="M240 648l4 11c37 2 137 11 177 17c-1 -52 -5 -118 -5 -223l-1 -234c0 -79 1 -121 4 -178c2 -20 6 -23 20 -24l31 -1l-3 -12c-55 -4 -121 -8 -175 -17c0 18 1 43 1 58h-2c-31 -30 -70 -58 -118 -58c-43 0 -76 15 -102 46c-27 33 -46 87 -46 168c0 118 53 232 197 232
c29 0 58 -7 71 -17c0 62 1 148 -2 207c-1 23 -5 25 -51 25zM155 212v-1c0 -51 10 -114 25 -142c14 -26 34 -38 56 -38s38 11 50 33c5 11 7 25 7 175c0 93 -2 121 -6 132c-6 16 -19 47 -53 47c-53 0 -79 -83 -79 -206z" />
    <glyph glyph-name="e" unicode="e" horiz-adv-x="394" 
d="M373 110c-26 -87 -79 -123 -162 -123c-72 0 -117 23 -147 63c-24 33 -39 90 -39 151c0 119 57 232 192 232c145 0 158 -121 158 -168c0 -17 -6 -35 -13 -39c-16 -5 -53 -9 -127 -9c-15 0 -47 -1 -80 -1c-2 -58 7 -99 19 -131c15 -42 40 -63 83 -63c52 0 82 31 105 94z
M215 418h-1c-35 0 -54 -82 -57 -186h44c18 0 34 1 45 4s17 15 17 41c0 38 -2 141 -48 141z" />
    <glyph glyph-name="f" unicode="f" horiz-adv-x="257" 
d="M14 406l2 14h51v45c1 69 18 124 51 159c32 34 69 52 115 52c67 0 96 -32 96 -71c0 -29 -23 -49 -57 -49c-17 0 -28 9 -28 29c0 39 -2 74 -32 74c-20 0 -30 -21 -31 -52c-2 -31 4 -84 8 -187h70l-5 -15l-65 -6c-1 -45 -1 -104 -1 -168c0 -85 0 -142 2 -188
c1 -20 6 -28 21 -30c11 -2 22 -3 37 -4l-3 -12c-26 0 -76 3 -116 3c-37 0 -87 -3 -115 -3l1 12c39 1 46 7 47 24c2 30 4 79 4 143v224z" />
    <glyph glyph-name="g" unicode="g" horiz-adv-x="416" 
d="M114 -56l4 -8c-19 -9 -37 -21 -37 -53c0 -47 46 -95 135 -95c107 0 145 53 145 111c0 30 -22 53 -53 53h-165c-48 1 -77 14 -104 48c-13 16 -22 40 -22 68c0 54 33 91 60 113c-18 23 -29 54 -29 94c0 120 95 158 163 158c52 0 86 -17 95 -22c23 20 55 48 84 48
c23 0 40 -18 40 -28c-2 -16 -23 -39 -34 -42c-10 10 -33 17 -50 17c-12 0 -21 0 -29 -3c35 -33 51 -71 51 -117c0 -120 -93 -155 -165 -155c-58 0 -98 18 -115 37c-23 -8 -35 -32 -35 -54s18 -38 48 -38c55 0 112 4 213 4c24 0 48 -6 73 -28c23 -20 39 -58 39 -92
c0 -133 -131 -197 -243 -197c-111 0 -164 43 -164 105c0 22 9 36 35 52c15 10 44 21 60 24zM208 417h-1c-24 0 -43 -25 -43 -133c0 -87 16 -139 45 -139c34 0 42 51 42 135c0 58 -6 137 -43 137z" />
    <glyph glyph-name="h" unicode="h" horiz-adv-x="475" 
d="M13 649v11c51 1 148 11 171 16c-2 -44 -4 -120 -4 -195v-107c28 24 71 59 130 59c62 0 85 -32 94 -47s13 -40 13 -61c0 -102 -1 -235 -1 -288c0 -22 5 -27 47 -28l-1 -12c-18 0 -66 3 -104 3c-42 0 -86 -3 -103 -3v12c25 1 35 6 37 24c1 19 3 60 3 131
c0 157 0 169 -4 184c-5 24 -18 43 -45 43c-23 0 -46 -14 -58 -35c-6 -9 -8 -21 -8 -37v-149c0 -63 0 -111 2 -137c2 -19 9 -21 40 -24v-12c-20 0 -66 3 -104 3c-58 0 -87 -3 -109 -3v12c37 2 44 7 46 31c1 29 3 73 3 173v269c0 93 0 126 -2 147c-1 17 -9 20 -43 20z" />
    <glyph glyph-name="i" unicode="i" horiz-adv-x="246" 
d="M122 625h1c39 0 59 -24 59 -63c0 -34 -26 -59 -63 -59c-32 0 -56 24 -56 59c0 37 23 63 59 63zM235 9l-1 -12c-29 0 -62 3 -115 3c-54 0 -81 -3 -103 -3v12c39 2 45 9 47 29c2 19 3 52 3 120v114c0 44 -1 94 -2 108c-1 17 -8 21 -45 20v12c53 3 121 7 172 19
c-2 -22 -3 -63 -3 -157v-116c0 -72 1 -95 3 -118c2 -24 7 -27 44 -31z" />
    <glyph glyph-name="j" unicode="j" horiz-adv-x="240" 
d="M118 625h1c38 0 59 -23 59 -62c0 -35 -26 -60 -62 -60c-33 0 -57 24 -57 59c0 37 23 63 59 63zM13 405l-4 12c57 3 122 8 178 16l2 -3c-1 -69 -1 -122 -1 -358c0 -59 -4 -102 -12 -135c-8 -37 -25 -71 -47 -95c-52 -56 -121 -73 -134 -73c-9 0 -16 4 -20 9
c-5 5 -8 9 -9 13l4 7c11 -3 25 -6 42 -6c25 0 41 14 46 54c5 43 8 146 8 300c0 166 -2 215 -3 243c-1 13 -6 16 -19 16h-31z" />
    <glyph glyph-name="k" unicode="k" horiz-adv-x="440" 
d="M14 647v12c57 3 130 7 170 17c-3 -57 -4 -145 -4 -233v-218c31 10 108 110 133 163c5 11 6 15 -7 17l-38 3v12c54 0 110 4 165 8v-10c-45 -6 -64 -11 -80 -28c-25 -26 -52 -56 -78 -89c19 -38 105 -223 140 -271c11 -15 20 -19 31 -20l23 -1v-12c-71 0 -142 -3 -176 -10
c-21 49 -79 168 -96 208c-7 15 -9 20 -18 17c0 -69 -1 -123 2 -172c2 -24 10 -29 49 -31l-1 -12c-26 0 -61 3 -111 3c-62 0 -88 -3 -109 -3v12c37 0 43 9 45 26c2 20 4 69 4 175v218c0 92 0 153 -2 205c0 10 -7 13 -20 14h-22z" />
    <glyph glyph-name="l" unicode="l" horiz-adv-x="238" 
d="M11 648l1 12c54 1 129 9 173 16c-2 -27 -5 -83 -5 -212v-253c0 -107 0 -144 1 -169c1 -28 7 -31 46 -33l-1 -12c-25 0 -79 3 -112 3c-45 0 -88 -3 -108 -3l1 12c37 0 44 7 46 38c2 20 5 97 5 194v231c0 93 -1 129 -2 152c-2 21 -5 24 -45 24z" />
    <glyph glyph-name="m" unicode="m" horiz-adv-x="718" 
d="M66 159v103c0 59 -2 95 -3 126c-1 13 -6 17 -47 15l4 12c49 0 113 4 161 14c3 -17 7 -50 8 -65c29 26 77 69 140 69c42 0 63 -17 74 -32c10 -11 15 -25 18 -36c31 25 76 68 140 68c49 0 74 -25 86 -47c10 -17 13 -37 13 -54v-295c0 -21 5 -23 46 -29l-1 -11
c-31 0 -65 3 -114 3c-53 0 -81 -3 -93 -3l1 11c29 3 34 7 36 24c1 25 3 60 3 142c0 160 -1 169 -4 180c-6 17 -18 32 -43 32c-26 0 -47 -16 -60 -40c-6 -10 -7 -22 -7 -38v-180c0 -39 0 -74 2 -97c1 -15 6 -19 43 -22l-3 -12c-17 0 -66 3 -106 3c-54 0 -84 -3 -99 -3v13
c32 3 37 5 39 25c1 28 2 69 2 124v133c0 45 0 56 -5 66c-6 14 -18 28 -40 28c-23 0 -44 -15 -58 -38c-9 -13 -11 -28 -11 -46v-174c0 -39 0 -66 3 -93c2 -20 7 -22 41 -26l-2 -12c-19 0 -62 3 -102 3c-46 0 -89 -3 -111 -3v12c39 3 44 5 46 30c2 26 3 65 3 120z" />
    <glyph glyph-name="n" unicode="n" horiz-adv-x="483" 
d="M16 -3v12c40 2 45 4 47 31c2 31 3 64 3 112v110c0 59 0 97 -3 122c-1 15 -5 18 -41 19v12c53 0 108 4 159 14c3 -23 7 -44 8 -61c31 29 73 65 132 65c51 0 79 -25 91 -48c9 -16 13 -32 13 -51v-296c0 -21 4 -24 47 -29l-1 -12c-35 0 -69 3 -109 3c-51 0 -89 -3 -100 -3
l1 12c30 2 35 7 37 26c1 20 3 57 3 153c1 151 -1 163 -8 176c-8 14 -18 23 -39 23c-24 0 -45 -12 -59 -35c-7 -12 -9 -20 -9 -37v-165c0 -39 0 -88 3 -116c1 -15 6 -21 41 -25l-1 -12c-18 0 -69 3 -107 3c-45 0 -85 -3 -108 -3z" />
    <glyph glyph-name="o" unicode="o" horiz-adv-x="456" 
d="M232 433h1c135 0 198 -98 198 -218c0 -141 -79 -228 -204 -228c-142 0 -202 101 -202 220c0 129 70 226 207 226zM228 419h-1c-25 0 -38 -19 -48 -40c-12 -26 -20 -83 -20 -155c0 -76 8 -143 23 -181c11 -27 29 -42 53 -42c21 0 39 12 49 41c10 34 16 92 16 165
c0 74 -8 136 -19 167c-11 29 -26 45 -53 45z" />
    <glyph glyph-name="p" unicode="p" horiz-adv-x="473" 
d="M-7 -223l4 12c47 4 53 9 55 29c3 38 6 110 6 233v210c0 70 -2 105 -3 122c-1 18 -7 22 -47 22l5 10c42 1 127 7 165 18c1 -22 2 -53 3 -68c34 33 72 68 132 68c48 0 79 -22 101 -58c21 -32 34 -88 34 -142c0 -170 -77 -246 -200 -246c-29 0 -55 10 -69 19
c-1 -82 0 -129 2 -180c1 -27 9 -31 61 -34l-3 -13c-19 0 -59 3 -120 3c-68 0 -102 -4 -126 -5zM240 2h1c66 0 77 126 77 215c0 54 -8 100 -19 129c-11 26 -27 43 -51 43c-25 0 -44 -16 -58 -41c-6 -10 -9 -18 -9 -34c-2 -103 -2 -147 -1 -246c0 -11 2 -20 7 -29
c12 -22 33 -37 53 -37z" />
    <glyph glyph-name="q" unicode="q" horiz-adv-x="466" 
d="M414 217v-245c0 -69 2 -117 5 -153c1 -16 8 -20 56 -21l-4 -14c-81 1 -169 -1 -249 -10l4 14c48 6 61 11 62 32c2 19 3 51 3 122v95c-33 -28 -66 -50 -115 -50c-42 0 -78 15 -102 40c-30 34 -49 89 -49 165c0 151 75 241 204 241c38 0 71 -9 95 -24l84 23h8
c0 -27 -2 -92 -2 -215zM237 418h-1c-58 0 -81 -103 -81 -199c0 -78 13 -134 29 -160c14 -22 33 -34 54 -34c22 0 35 9 46 31c6 10 8 14 8 136c0 71 0 125 -2 172c-1 10 -5 20 -13 32c-10 14 -19 22 -40 22z" />
    <glyph glyph-name="r" unicode="r" horiz-adv-x="348" 
d="M66 168v90c0 62 -2 101 -7 123c-2 12 -7 17 -17 17h-26v12c43 2 116 8 158 20l3 -2c2 -23 6 -66 5 -107h3c21 69 47 112 104 112c34 0 58 -26 58 -63c0 -53 -38 -65 -54 -65c-18 0 -31 7 -34 20c-6 22 -10 32 -26 32s-28 -15 -37 -43c-5 -17 -8 -36 -8 -79
c0 -108 0 -170 2 -196c1 -21 8 -28 63 -30l-2 -12c-36 1 -71 3 -117 3c-48 0 -87 -2 -123 -3l4 12c37 2 45 7 46 24c3 24 5 69 5 135z" />
    <glyph glyph-name="s" unicode="s" horiz-adv-x="334" 
d="M278 292l-12 -4c-1 59 -35 130 -96 130c-40 0 -62 -25 -62 -60c0 -22 8 -37 28 -52c31 -21 98 -54 124 -71c37 -25 51 -58 51 -98c0 -99 -69 -149 -162 -149c-43 0 -90 11 -117 24c0 23 2 86 0 139l11 1c2 -21 7 -47 21 -78c19 -45 59 -70 99 -70c46 0 65 26 65 63
c0 20 -10 37 -30 50c-27 18 -68 43 -93 58c-53 30 -71 68 -71 117c0 83 60 141 145 141c32 0 70 -11 84 -27l12 34l10 -5c-8 -62 -8 -114 -7 -143z" />
    <glyph glyph-name="t" unicode="t" horiz-adv-x="283" 
d="M184 420h95l-2 -16l-95 -6c0 -36 -2 -105 -2 -177c0 -80 0 -140 4 -175c2 -21 10 -29 25 -29c39 0 64 50 68 85h5l9 -21c-17 -56 -65 -93 -135 -93c-36 0 -67 10 -83 28c-12 15 -16 31 -17 58c-1 75 4 234 4 325l-52 6l4 15h50c0 31 0 72 1 100c55 15 99 32 120 47l6 -1
c-1 -25 -4 -101 -5 -146z" />
    <glyph glyph-name="u" unicode="u" horiz-adv-x="474" 
d="M247 406v12c28 0 69 1 103 5c34 2 59 5 69 5c-2 -23 -3 -69 -3 -133v-128c0 -52 0 -90 4 -126c2 -23 6 -26 48 -25v-12c-28 -1 -55 -4 -92 -8c-37 -3 -63 -7 -78 -9c-1 23 -3 60 -4 77c-24 -28 -73 -77 -146 -77c-52 0 -79 26 -86 49c-5 13 -7 31 -7 52c0 76 1 156 2 229
c0 39 0 54 -2 70c-2 19 -9 20 -44 20l1 13c28 0 64 1 96 3s60 4 78 6c-4 -22 -9 -69 -9 -192c0 -105 0 -148 4 -174c2 -21 14 -33 33 -33c39 0 61 31 72 61c8 19 8 35 8 54v155c0 40 0 64 -2 88c-1 14 -13 16 -45 18z" />
    <glyph glyph-name="v" unicode="v" horiz-adv-x="383" 
d="M-17 411l-2 12c29 -1 66 -3 108 -3c45 1 92 2 116 3l3 -12l-24 -3c-17 -3 -21 -6 -17 -20c19 -69 66 -204 81 -252c27 84 60 170 78 247c3 15 -3 21 -17 23l-37 5v12c20 0 47 -3 73 -3c31 0 50 3 69 3v-12c-36 -3 -47 -11 -63 -47c-50 -116 -99 -270 -132 -371
c-18 0 -29 -2 -48 -5l-132 379c-16 39 -20 43 -56 44z" />
    <glyph glyph-name="w" unicode="w" horiz-adv-x="600" 
d="M-13 411v12c30 -2 64 -3 110 -3c45 0 87 2 117 3l1 -12l-26 -4c-18 -2 -21 -5 -17 -21c19 -81 54 -180 69 -239c19 59 48 152 81 273c20 -1 28 0 47 1c11 -33 83 -222 104 -285c26 84 60 191 68 248c2 16 -4 19 -28 23l-29 4l1 12c20 0 48 -3 77 -3c33 0 55 3 71 3v-12
c-41 -3 -50 -9 -71 -63c-18 -47 -69 -201 -114 -355c-20 0 -28 -3 -47 -5c-16 51 -75 200 -103 278c-32 -100 -65 -200 -87 -278c-19 3 -30 4 -48 5c-26 88 -94 302 -121 381c-11 29 -19 35 -55 37z" />
    <glyph glyph-name="x" unicode="x" horiz-adv-x="393" 
d="M-8 411v12c26 -1 74 -3 107 -3c39 0 66 2 104 3l4 -12l-21 -3c-13 -2 -12 -10 -7 -20c17 -39 36 -75 50 -106c28 46 48 84 56 104c7 16 0 18 -12 20l-26 5l2 12c18 0 45 -3 71 -3c25 0 56 3 74 3l-1 -11c-39 -5 -55 -11 -74 -31c-17 -19 -52 -68 -81 -116
c58 -114 101 -198 123 -231c11 -17 17 -20 60 -25l-2 -12c-26 0 -67 3 -114 3c-40 0 -74 -3 -112 -3l-1 12l17 4c17 3 14 13 10 23l-63 135c-25 -45 -56 -100 -70 -132c-8 -19 -1 -24 18 -26l30 -4l-2 -12c-25 0 -58 3 -85 3c-28 0 -55 -3 -71 -3v12c46 4 60 16 84 48
c21 27 65 95 87 133c-31 62 -60 126 -96 189c-15 26 -27 30 -59 32z" />
    <glyph glyph-name="y" unicode="y" horiz-adv-x="375" 
d="M-14 411v12c32 -1 63 -3 102 -3c49 0 89 2 112 3l3 -12l-23 -4c-16 -2 -18 -5 -13 -21c18 -60 71 -201 86 -249c20 62 49 171 63 229c8 32 0 36 -31 41l-26 4l1 12c18 0 44 -3 70 -3c24 0 58 3 75 3l-1 -12c-39 -2 -47 -6 -65 -58c-31 -90 -97 -300 -137 -429
c-32 -105 -54 -156 -110 -156c-37 0 -58 25 -58 58s22 54 48 54c15 0 26 -7 30 -18c7 -16 12 -23 23 -23c28 0 53 105 62 137c-11 7 -22 27 -30 49c-43 124 -107 297 -131 351c-11 22 -15 29 -31 32z" />
    <glyph glyph-name="z" unicode="z" horiz-adv-x="380" 
d="M47 283h-13c4 29 11 105 12 148c18 -10 51 -11 94 -11h79c51 0 89 1 133 2c-2 -13 -9 -31 -18 -49l-163 -358c41 -1 66 1 100 6c44 7 60 32 83 124l11 -8c-7 -43 -15 -105 -14 -142c-20 2 -112 5 -224 5c-53 0 -89 -3 -103 -3l-5 8c54 90 173 345 190 399
c-33 0 -64 -2 -87 -5c-29 -4 -39 -11 -52 -41c-11 -25 -18 -56 -23 -75z" />
    <glyph glyph-name="braceleft" unicode="{" horiz-adv-x="312" 
d="M277 701l-3 -17c-75 0 -90 -11 -79 -114c7 -63 14 -113 13 -167c-2 -78 -38 -119 -119 -146c78 -29 119 -63 119 -141c0 -49 -4 -98 -9 -153c-10 -113 -14 -134 75 -134l3 -17c-65 -8 -164 39 -164 138c0 54 4 160 4 227c0 59 -26 72 -79 72l-6 15c59 0 85 19 85 78
c0 67 -7 155 -4 204c0 117 96 162 164 155z" />
    <glyph glyph-name="bar" unicode="|" horiz-adv-x="224" 
d="M84 750h58v-1000h-58v1000z" />
    <glyph glyph-name="braceright" unicode="}" horiz-adv-x="312" 
d="M35 -188l3 18c75 0 93 10 81 114c-7 62 -16 113 -14 167c1 78 37 118 118 147c-78 27 -118 67 -118 146c0 48 3 91 9 146c13 113 11 134 -75 135l-4 16c66 8 168 -39 168 -138c0 -54 -8 -153 -8 -220c0 -59 27 -78 80 -78l6 -15c-59 0 -86 -19 -86 -78
c-1 -67 7 -155 7 -205c0 -118 -101 -163 -167 -155z" />
    <glyph glyph-name="asciitilde" unicode="~" horiz-adv-x="431" 
d="M354 286l37 -10c-14 -104 -47 -143 -101 -143c-36 0 -62 27 -94 68c-23 28 -39 48 -62 48c-26 0 -43 -29 -58 -111l-36 7c18 128 68 145 99 145c35 0 60 -23 89 -60c24 -32 48 -54 68 -54c21 0 46 16 58 110z" />
    <glyph glyph-name="uni00A0" unicode="&#xa0;" horiz-adv-x="144" 
 />
    <glyph glyph-name="exclamdown" unicode="&#xa1;" horiz-adv-x="230" 
d="M115 -229h-1c-19 0 -82 47 -82 95c0 19 8 46 19 76c34 91 56 178 56 268h17c0 -90 21 -176 55 -268c11 -30 20 -57 20 -76c0 -40 -55 -95 -84 -95zM112 433h1c40 0 68 -31 68 -74c0 -42 -32 -73 -69 -73c-39 0 -69 31 -69 71c0 43 30 76 69 76z" />
    <glyph glyph-name="cent" unicode="&#xa2;" horiz-adv-x="431" 
d="M389 228l-5 -33c-29 -56 -89 -81 -130 -84l-2 -75l-24 -9l6 83c-71 0 -120 21 -150 58c-27 31 -45 75 -45 143c0 125 81 219 213 221l2 67l24 6l-4 -73c78 -4 119 -40 119 -92c0 -32 -20 -47 -46 -47c-19 0 -37 11 -30 31c4 11 6 23 6 33c0 31 -16 53 -50 59
c-7 -129 -15 -250 -18 -379c59 -1 102 24 125 94zM165 325v-1c0 -64 9 -124 25 -151c12 -19 25 -29 45 -34c6 125 12 249 17 379c-70 -9 -87 -121 -87 -193z" />
    <glyph glyph-name="sterling" unicode="&#xa3;" horiz-adv-x="431" 
d="M10 310l11 24c19 -1 30 -2 67 -2c-6 64 -8 107 0 146c9 46 33 81 71 108c27 19 64 31 104 31c106 0 135 -57 135 -92c0 -45 -27 -64 -62 -64c-8 0 -20 2 -26 7c-6 4 -11 10 -8 22s5 28 5 39c0 31 -9 72 -49 72c-30 0 -49 -28 -49 -105c0 -47 4 -91 9 -164
c64 0 101 1 127 2l-11 -24c-22 1 -54 2 -114 2c1 -45 -6 -99 -27 -132c-19 -31 -54 -63 -100 -90c193 4 276 8 285 14c4 3 7 7 10 16c7 20 13 40 16 48l14 5c-16 -67 -22 -137 -21 -179l-9 -4c-77 6 -182 10 -267 10c-63 0 -86 -3 -107 -4l-3 6l23 64c27 15 63 35 64 132
c0 33 -4 86 -8 114c-21 0 -60 0 -80 -2z" />
    <glyph glyph-name="currency" unicode="&#xa4;" horiz-adv-x="433" 
d="M215 452h-1c-56 1 -84 -63 -84 -146c0 -106 36 -148 83 -148c57 0 83 63 83 145c0 74 -19 149 -81 149zM217 473h1c27 0 63 -8 89 -28l49 64l34 -34l-61 -53c30 -30 40 -74 40 -119c0 -40 -13 -85 -39 -115l62 -58l-32 -33l-54 69c-24 -18 -56 -29 -91 -29
c-36 0 -71 10 -95 28l-52 -67l-31 33l60 57c-27 30 -39 72 -39 112c0 48 14 92 44 122l-61 53l32 35l52 -67c27 21 61 30 92 30z" />
    <glyph glyph-name="yen" unicode="&#xa5;" horiz-adv-x="431" 
d="M-13 594l3 12c47 0 91 -2 125 -2c72 0 93 2 114 2v-12c-10 -2 -24 -3 -37 -6c-11 -2 -14 -9 -10 -22c7 -22 53 -144 83 -223c40 103 72 202 77 216c7 27 -2 32 -60 35l5 12c27 0 50 -2 78 -2c23 0 51 2 72 2l-1 -12c-39 0 -51 -10 -68 -42c-30 -59 -73 -182 -91 -231
c39 0 59 1 99 4l-8 -24c-10 0 -48 1 -94 2l1 -72c60 0 78 0 101 2l-9 -23c-12 0 -51 2 -92 3c0 -45 1 -123 3 -173c1 -17 7 -24 17 -25c14 -2 28 -4 55 -5l-2 -13c-29 0 -77 3 -143 3c-35 0 -89 -3 -126 -3v12c24 3 40 5 50 7c13 3 20 12 21 26c2 16 5 106 6 171
c-43 0 -74 0 -98 -3l7 25c24 -1 46 -3 91 -3v72c-42 0 -68 0 -99 -2l9 23c10 0 28 -3 86 -4c-26 71 -84 206 -103 239c-16 29 -28 34 -62 34z" />
    <glyph glyph-name="brokenbar" unicode="&#xa6;" horiz-adv-x="224" 
d="M85 676h59v-350h-59v350zM85 -174v350h59v-350h-59z" />
    <glyph glyph-name="section" unicode="&#xa7;" horiz-adv-x="384" 
d="M218 580h1c50 0 94 -25 94 -72c0 -25 -20 -41 -41 -41c-14 0 -27 2 -37 11c-5 4 -7 8 -5 12c4 8 8 20 8 32c0 24 -18 40 -48 40c-25 0 -46 -20 -46 -48c0 -23 7 -35 22 -54c17 -23 112 -106 156 -169c18 -25 31 -65 31 -106c0 -85 -28 -144 -56 -182
c-55 -74 -98 -83 -136 -83c-42 0 -99 23 -99 77c0 30 20 49 44 49c25 0 36 -13 42 -23c5 -7 4 -14 0 -18c-6 -7 -11 -19 -11 -28c0 -23 17 -40 46 -40c35 0 61 23 60 58c0 26 -20 48 -43 73c-30 33 -101 104 -127 138c-21 28 -40 68 -40 123c0 91 43 161 76 198
c26 28 60 53 109 53zM319 106v1c0 37 -15 75 -37 104c-34 47 -125 132 -145 159c-19 25 -41 57 -39 126c-13 -20 -26 -53 -26 -99c0 -47 22 -92 62 -135l110 -118c27 -32 47 -68 52 -114c14 16 23 45 23 76z" />
    <glyph glyph-name="dieresis" unicode="&#xa8;" horiz-adv-x="456" 
d="M149 617h1c32 0 51 -22 51 -55c0 -38 -30 -57 -54 -57c-25 0 -52 15 -52 54c0 35 22 58 54 58zM309 617h1c32 0 51 -20 51 -53c0 -38 -28 -59 -52 -59c-28 0 -54 16 -54 54c0 36 23 58 54 58z" />
    <glyph glyph-name="copyright" unicode="&#xa9;" horiz-adv-x="627" 
d="M313 616h1c161 0 278 -130 278 -292c0 -163 -120 -293 -279 -293c-158 0 -278 130 -278 293c0 162 120 292 278 292zM314 595h-1c-143 0 -250 -112 -250 -271c0 -158 107 -273 252 -273c143 0 250 115 250 273c0 153 -100 271 -251 271zM450 268l9 -5
c-16 -63 -71 -95 -134 -95c-56 0 -103 17 -129 47c-22 27 -35 60 -35 111s18 94 52 124c23 21 61 39 121 39c46 0 72 -12 88 -22c6 -4 7 -4 9 -1l11 21l7 -1c-4 -31 -7 -76 -4 -120h-9c-3 34 -14 63 -30 82c-17 20 -36 29 -61 29c-26 0 -43 -10 -58 -29
c-16 -22 -28 -61 -28 -114c0 -48 8 -84 26 -107c19 -24 48 -32 72 -32c45 0 75 21 93 73z" />
    <glyph glyph-name="ordfeminine" unicode="&#xaa;" horiz-adv-x="310" 
d="M172 466v41c0 26 -9 41 -29 41s-32 -15 -32 -29c0 -7 2 -16 4 -22c4 -12 1 -18 -9 -25s-21 -11 -39 -11c-22 0 -32 14 -32 29c0 37 48 71 122 71c57 0 84 -21 93 -34c5 -7 9 -20 9 -30c0 -13 -1 -92 -1 -139c0 -20 7 -26 15 -26s18 9 25 36l10 -4
c-10 -50 -45 -66 -80 -66c-38 0 -53 15 -55 37l-1 6c-25 -27 -54 -42 -82 -42c-42 0 -70 29 -70 71c0 26 14 46 33 52c26 8 99 33 119 44zM172 383v72c-12 -5 -31 -14 -42 -23c-11 -7 -20 -16 -20 -42c0 -40 14 -54 31 -54c15 0 23 10 28 22c2 7 3 16 3 25z" />
    <glyph glyph-name="guillemotleft" unicode="&#xab;" horiz-adv-x="422" 
d="M210 381l11 -7c-15 -66 -52 -129 -74 -165c25 -37 65 -105 74 -158l-9 -7c-38 87 -119 148 -168 162l4 9c61 21 128 86 162 166zM369 384l11 -8c-15 -64 -52 -131 -74 -167c26 -37 65 -108 74 -161l-8 -7c-39 86 -119 151 -169 165l4 9c61 20 128 90 162 169z" />
    <glyph glyph-name="logicalnot" unicode="&#xac;" horiz-adv-x="431" 
d="M343 101v159h-298v40h341v-199h-43z" />
    <glyph glyph-name="uni00AD" unicode="&#xad;" horiz-adv-x="282" 
d="M33 197l10 54c73 -2 130 -2 207 0l-10 -54c-77 3 -135 3 -207 0z" />
    <glyph glyph-name="registered" unicode="&#xae;" horiz-adv-x="166" 
d="M84 630h1c45 0 77 -34 77 -79c0 -44 -33 -79 -78 -79c-44 0 -77 35 -77 79c0 45 34 79 77 79zM84 622h-1c-35 0 -65 -28 -65 -71c0 -40 30 -71 67 -71c38 0 66 31 66 71s-27 71 -67 71zM44 586l1 5c3 0 13 -1 18 -1s15 1 27 1c16 0 25 -8 25 -19c0 -14 -10 -17 -23 -19
v-1c14 -1 21 -3 24 -14c2 -4 2 -8 3 -13c0 -4 1 -7 4 -7c2 1 4 1 6 1v-5c-5 -2 -12 -2 -16 -2c-12 0 -17 7 -18 18c0 4 -1 9 -1 11c-1 6 -4 8 -11 8h-7c0 -8 0 -21 1 -27c0 -3 1 -3 3 -3l7 -1l-1 -5h-41v5l7 1c3 1 3 1 3 3c1 5 1 15 1 32v28c0 2 -1 3 -3 3zM94 569v1
c0 10 -4 16 -11 16c-5 0 -6 -1 -6 -2c-1 -2 -1 -6 -1 -30h7c5 0 11 4 11 15z" />
    <glyph glyph-name="macron" unicode="&#xaf;" horiz-adv-x="456" 
d="M128 520l9 53h191l-7 -53h-193z" />
    <glyph glyph-name="degree" unicode="&#xb0;" horiz-adv-x="275" 
d="M142 649h1c59 0 102 -39 102 -102c0 -70 -48 -108 -109 -108c-60 0 -106 33 -106 100c0 74 48 110 112 110zM139 635c-47 1 -53 -59 -53 -89c0 -63 22 -90 51 -90c50 0 53 59 53 92c0 28 -5 86 -51 87z" />
    <glyph glyph-name="plusminus" unicode="&#xb1;" horiz-adv-x="420" 
d="M381 45v-40h-342v40h342zM232 80h-44v151h-149v40h149v143h44v-143h149v-40h-149v-151z" />
    <glyph glyph-name="two.superior" unicode="&#xb2;" horiz-adv-x="301" 
d="M285 577l12 -6c-16 -50 -19 -99 -20 -119c-15 1 -39 3 -174 3c-30 0 -55 0 -67 -1l-2 4l17 48c76 40 109 83 120 126c5 19 7 40 7 68c0 37 -7 65 -32 65s-32 -20 -32 -54c0 -12 3 -25 4 -33s1 -12 -7 -18s-22 -8 -28 -8c-23 0 -43 12 -43 43c0 21 13 40 32 56
c20 17 58 28 89 28c34 0 63 -8 80 -21c24 -18 35 -41 35 -74c0 -32 -11 -53 -37 -73c-24 -19 -75 -52 -133 -87c88 3 139 6 149 7c8 1 11 3 15 10c3 7 11 24 15 36z" />
    <glyph glyph-name="three.superior" unicode="&#xb3;" horiz-adv-x="301" 
d="M162 779h1c50 0 108 -17 108 -75c0 -30 -19 -47 -39 -57c-16 -7 -41 -14 -71 -21v-3c49 -3 81 -12 100 -26c18 -12 27 -28 27 -53c0 -34 -19 -55 -39 -68c-18 -14 -56 -28 -105 -28c-68 0 -112 26 -112 63c0 22 21 39 46 39c16 0 22 -8 23 -26c4 -45 24 -64 46 -64
c28 0 41 27 41 77c0 42 -13 77 -54 77c-12 0 -20 -1 -31 -5l-10 12l1 3c24 0 44 4 54 10c21 10 32 33 31 69c0 35 -10 63 -35 63c-21 0 -35 -13 -35 -50c0 -6 2 -16 3 -23c1 -17 -12 -22 -29 -22c-20 0 -40 9 -40 32c0 34 40 76 119 76z" />
    <glyph glyph-name="acute" unicode="&#xb4;" horiz-adv-x="456" 
d="M228 474l-11 6c19 34 59 112 75 142c12 21 30 39 51 39c17 0 24 -15 23 -33c-1 -15 -15 -35 -29 -50c-27 -28 -67 -64 -109 -104z" />
    <glyph glyph-name="mu" unicode="&#xb5;" horiz-adv-x="480" 
d="M480 84l14 -15c-18 -56 -62 -81 -124 -81c-60 0 -72 37 -74 84c-24 -37 -64 -84 -115 -82c-15 0 -31 4 -39 12c1 -90 14 -194 20 -245l-4 -5c-68 1 -114 25 -117 32c11 137 18 279 19 300v233c0 39 -1 82 -2 104c34 0 89 3 131 8c-2 -21 -7 -68 -7 -191
c0 -105 0 -157 5 -179c5 -19 13 -28 31 -28c39 0 60 35 73 82c5 20 6 37 6 57v135c0 38 -1 95 -2 114c38 2 107 7 127 8c-2 -23 -3 -69 -3 -132v-127c0 -52 0 -89 3 -123c1 -15 5 -25 15 -25c12 0 31 13 43 64z" />
    <glyph glyph-name="paragraph" unicode="&#xb6;" horiz-adv-x="446" 
d="M420 542v-13l-54 -6c-15 -1 -21 -6 -21 -56v-306c0 -173 -8 -245 -53 -295c-24 -27 -57 -37 -88 -37c-47 0 -99 21 -99 85c0 33 24 60 51 60c33 0 41 -25 46 -37c3 -8 2 -14 -4 -12c-5 2 -12 5 -18 5c-22 0 -32 -16 -32 -34c0 -30 24 -50 63 -50c52 0 98 25 98 222v75
c-25 -12 -67 -21 -80 -21c-109 0 -183 84 -183 203c0 79 29 150 99 190c34 20 68 24 103 24h83c33 0 70 2 89 3z" />
    <glyph glyph-name="periodcentered" unicode="&#xb7;" horiz-adv-x="227" 
d="M113 295h1c37 0 67 -31 67 -74c0 -42 -30 -73 -68 -73c-37 0 -69 31 -69 73c0 43 32 74 69 74z" />
    <glyph glyph-name="cedilla" unicode="&#xb8;" horiz-adv-x="456" 
d="M235 -3h18c-9 -14 -22 -32 -33 -51c31 -5 70 -21 70 -68c0 -51 -38 -78 -88 -78c-23 0 -45 11 -54 18l7 15c14 -8 28 -11 44 -11c25 0 36 13 36 32c0 22 -25 37 -61 37l-4 9z" />
    <glyph glyph-name="one.superior" unicode="&#xb9;" horiz-adv-x="301" 
d="M259 466v-13c-32 0 -67 3 -99 3c-39 0 -72 -3 -91 -3l-2 12l32 4c14 1 20 6 21 13c1 10 3 34 3 74v116c0 34 0 58 -2 70c-1 5 -4 7 -8 6c-10 -2 -25 -3 -45 -7l3 15c43 6 113 16 138 24l2 -2c0 -18 -2 -49 -2 -106v-116c0 -43 1 -60 2 -74c1 -5 4 -11 14 -12z" />
    <glyph glyph-name="ordmasculine" unicode="&#xba;" horiz-adv-x="322" 
d="M167 560h1c81 0 131 -46 131 -128c0 -71 -46 -132 -143 -132s-133 59 -133 126c0 71 44 134 144 134zM163 548h-1c-14 0 -22 -9 -29 -20c-8 -15 -14 -51 -14 -97c0 -39 3 -71 11 -93c6 -17 15 -26 31 -26c15 0 24 8 31 25c8 21 12 54 12 98c0 43 -3 70 -9 89
c-7 15 -14 24 -32 24z" />
    <glyph glyph-name="guillemotright" unicode="&#xbb;" horiz-adv-x="422" 
d="M214 44l-11 7c15 66 52 129 74 165c-25 37 -65 105 -74 158l9 7c38 -87 119 -148 168 -162l-4 -9c-61 -21 -128 -86 -162 -166zM55 41l-11 8c15 64 52 131 74 167c-26 37 -65 108 -74 161l8 7c39 -86 119 -151 169 -165l-4 -9c-61 -20 -128 -90 -162 -169z" />
    <glyph glyph-name="onequarter" unicode="&#xbc;" horiz-adv-x="612" 
d="M243 318v-13c-32 0 -67 3 -99 3c-39 0 -72 -3 -91 -3l-2 12l32 4c14 1 20 6 21 13c1 10 3 34 3 74v116c0 34 0 58 -2 70c-1 5 -4 7 -8 6c-10 -2 -25 -3 -45 -7l3 15c43 6 113 16 138 24l2 -2c0 -18 -2 -49 -2 -106v-116c0 -43 1 -60 2 -74c1 -5 4 -11 14 -12zM498 656
l16 -17l-392 -631l-16 17zM297 137l-7 14c56 70 110 145 145 197c26 3 68 14 82 19l3 -3c-1 -34 -3 -110 -3 -167v-46c25 1 46 7 56 12l2 -9c-12 -11 -30 -18 -58 -23c0 -32 1 -64 2 -88c-54 -2 -78 -5 -94 -10l-3 3c3 22 3 42 5 92c-49 0 -109 3 -130 9zM428 151
c3 70 4 134 4 166l-108 -157c16 -4 51 -9 104 -9z" />
    <glyph glyph-name="onehalf" unicode="&#xbd;" horiz-adv-x="612" 
d="M226 318v-13c-32 0 -67 3 -99 3c-39 0 -72 -3 -91 -3l-2 12l32 4c14 1 20 5 21 12c1 11 3 35 3 74v117c0 34 0 58 -2 70c-1 5 -4 7 -8 6c-10 -2 -25 -3 -45 -7l3 15c43 6 113 16 138 24l2 -2c0 -18 -2 -50 -2 -106v-117c0 -43 1 -59 2 -74c1 -5 4 -10 14 -11zM476 656
l16 -17l-392 -631l-16 17zM571 166l12 -6c-16 -50 -19 -99 -20 -119c-15 1 -39 3 -174 3c-30 0 -55 0 -68 -1l-2 4c6 14 13 34 18 49c76 39 109 82 120 125c5 20 7 41 7 68c0 38 -7 65 -32 65s-32 -20 -32 -53c0 -12 3 -25 4 -33c2 -8 1 -12 -7 -19c-8 -5 -22 -7 -28 -7
c-23 0 -43 12 -43 43c0 21 13 40 32 56c20 16 58 27 89 27c34 0 64 -8 81 -21c23 -17 34 -40 34 -73s-11 -53 -37 -73c-24 -20 -75 -52 -133 -88c88 3 139 6 148 7s12 3 16 10c3 7 11 24 15 36z" />
    <glyph glyph-name="threequarters" unicode="&#xbe;" horiz-adv-x="612" 
d="M160 631h1c50 0 108 -18 108 -76c0 -28 -19 -46 -39 -56c-16 -7 -41 -14 -71 -21v-3c49 -3 81 -12 100 -26c18 -12 27 -28 27 -53c0 -34 -19 -55 -39 -68c-18 -14 -56 -28 -105 -28c-68 0 -112 26 -112 63c0 22 21 39 46 39c16 0 22 -8 23 -26c4 -45 24 -64 46 -64
c28 0 41 27 41 77c0 42 -13 77 -54 77c-12 0 -20 -1 -31 -5l-10 12l1 3c24 0 44 4 54 10c21 10 32 33 31 69c0 35 -10 63 -35 63c-21 0 -35 -13 -35 -50c0 -6 2 -16 3 -23c1 -17 -12 -22 -29 -22c-20 0 -40 9 -40 32c0 34 40 76 119 76zM515 656l16 -17l-391 -630l-16 17z
M305 137l-7 14c56 70 110 146 145 196c26 3 68 14 82 19l3 -2c-1 -35 -3 -110 -3 -167v-46c25 1 46 7 56 12l2 -9c-12 -11 -30 -18 -58 -23c0 -32 1 -64 2 -88c-54 -2 -78 -5 -94 -10l-3 3c3 22 3 42 5 92c-49 0 -108 3 -130 9zM436 151c3 70 4 134 4 165l-107 -156
c15 -4 50 -9 103 -9z" />
    <glyph glyph-name="questiondown" unicode="&#xbf;" horiz-adv-x="367" 
d="M191 206l11 6c26 -31 48 -64 53 -107c3 -25 -5 -47 -23 -68c-25 -29 -79 -83 -95 -101c-14 -14 -23 -28 -23 -55c0 -65 31 -95 69 -95c37 0 61 29 61 67c0 20 -4 36 -11 50c-7 16 -2 24 11 36c12 11 30 17 49 17c21 0 46 -16 46 -60c0 -80 -83 -126 -156 -126
c-111 0 -155 77 -156 178c0 49 24 82 47 101c37 31 84 74 97 88c22 22 29 35 20 69zM192 433h1c36 0 67 -31 67 -74c0 -42 -31 -73 -69 -73c-39 0 -69 31 -69 74c0 41 28 73 70 73z" />
    <glyph glyph-name="Agrave" unicode="&#xc0;" horiz-adv-x="510" 
d="M525 9v-12c-21 0 -72 3 -130 3c-50 0 -85 -2 -127 -3l3 12c43 6 49 8 46 30c-5 28 -27 127 -45 209c-17 1 -46 1 -71 1c-27 0 -55 0 -73 -1c-31 -116 -41 -161 -45 -186c-5 -39 6 -46 73 -53l-1 -12c-22 0 -49 3 -85 3c-23 0 -64 -3 -94 -3v12c48 5 59 12 75 59
c33 100 122 417 146 504c6 19 7 30 9 47c22 0 92 9 110 18c21 -112 124 -540 150 -600c7 -17 15 -23 28 -24zM208 551c-16 -62 -40 -143 -74 -283c17 0 45 -1 69 -1c25 0 51 1 64 1c-17 84 -42 207 -59 283zM287 676l-6 -8c-57 21 -130 48 -143 54c-12 5 -25 17 -30 29
c-9 24 3 35 16 40c14 5 32 1 49 -11c13 -10 92 -83 114 -104z" />
    <glyph glyph-name="Aacute" unicode="&#xc1;" horiz-adv-x="510" 
d="M525 9v-12c-21 0 -72 3 -130 3c-50 0 -85 -2 -127 -3l3 12c43 6 49 8 46 30c-5 28 -27 127 -45 209c-17 1 -46 1 -71 1c-27 0 -55 0 -73 -1c-31 -116 -41 -161 -45 -186c-5 -39 6 -46 73 -53l-1 -12c-22 0 -49 3 -85 3c-23 0 -64 -3 -94 -3v12c48 5 59 12 75 59
c33 100 122 417 146 504c6 19 7 30 9 47c22 0 92 9 110 18c21 -112 124 -540 150 -600c7 -17 15 -23 28 -24zM208 551c-16 -62 -40 -143 -74 -283c17 0 45 -1 69 -1c25 0 51 1 64 1c-17 84 -42 207 -59 283zM217 668l-7 9l128 102c17 12 39 15 53 9c13 -6 19 -18 11 -37
c-6 -16 -26 -27 -41 -33z" />
    <glyph glyph-name="Acircumflex" unicode="&#xc2;" horiz-adv-x="510" 
d="M525 9v-12c-21 0 -72 3 -130 3c-50 0 -85 -2 -127 -3l3 12c43 6 49 8 46 30c-5 28 -27 127 -45 209c-17 1 -46 1 -71 1c-27 0 -55 0 -73 -1c-31 -116 -41 -161 -45 -186c-5 -39 6 -46 73 -53l-1 -12c-22 0 -49 3 -85 3c-23 0 -64 -3 -94 -3v12c48 5 59 12 75 59
c33 100 122 417 146 504c6 19 7 30 9 47c22 0 92 9 110 18c21 -112 124 -540 150 -600c7 -17 15 -23 28 -24zM208 551c-16 -62 -40 -143 -74 -283c17 0 45 -1 69 -1c25 0 51 1 64 1c-17 84 -42 207 -59 283zM256 777l8 3c12 -19 45 -67 119 -113l-5 -8
c-34 12 -84 27 -118 47c-39 -20 -83 -35 -118 -47l-5 8c74 46 108 93 119 110z" />
    <glyph glyph-name="Atilde" unicode="&#xc3;" horiz-adv-x="510" 
d="M525 9v-12c-21 0 -72 3 -130 3c-50 0 -85 -2 -127 -3l3 12c43 6 49 8 46 30c-5 28 -27 127 -45 209c-17 1 -46 1 -71 1c-27 0 -55 0 -73 -1c-31 -116 -41 -161 -45 -186c-5 -39 6 -46 73 -53l-1 -12c-22 0 -49 3 -85 3c-23 0 -64 -3 -94 -3v12c48 5 59 12 75 59
c33 100 122 417 146 504c6 19 7 30 9 47c22 0 92 9 110 18c21 -112 124 -540 150 -600c7 -17 15 -23 28 -24zM208 551c-16 -62 -40 -143 -74 -283c17 0 45 -1 69 -1c25 0 51 1 64 1c-17 84 -42 207 -59 283zM158 669l-14 3c3 45 23 96 70 96c15 0 32 -5 59 -26
c28 -21 38 -24 48 -24c17 0 31 21 33 54l14 -5c-3 -39 -20 -97 -68 -97c-19 0 -34 7 -62 28c-20 15 -30 21 -44 21c-20 0 -34 -21 -36 -50z" />
    <glyph glyph-name="Adieresis" unicode="&#xc4;" horiz-adv-x="510" 
d="M525 9v-12c-21 0 -72 3 -130 3c-50 0 -85 -2 -127 -3l3 12c43 6 49 8 46 30c-5 28 -27 127 -45 209c-17 1 -46 1 -71 1c-27 0 -55 0 -73 -1c-31 -116 -41 -161 -45 -186c-5 -39 6 -46 73 -53l-1 -12c-22 0 -49 3 -85 3c-23 0 -64 -3 -94 -3v12c48 5 59 12 75 59
c33 100 122 417 146 504c6 19 7 30 9 47c22 0 92 9 110 18c21 -112 124 -540 150 -600c7 -17 15 -23 28 -24zM208 551c-16 -62 -40 -143 -74 -283c17 0 45 -1 69 -1c25 0 51 1 64 1c-17 84 -42 207 -59 283zM174 765h1c29 0 45 -21 45 -46c0 -32 -24 -50 -48 -50
c-21 0 -44 13 -44 45c0 30 19 51 46 51zM339 765h1c28 0 45 -21 45 -46c0 -32 -26 -50 -48 -50c-21 0 -44 13 -44 45c0 30 19 51 46 51z" />
    <glyph glyph-name="Aring" unicode="&#xc5;" horiz-adv-x="510" 
d="M259 819h1c43 0 77 -27 77 -77s-37 -78 -82 -78c-48 0 -81 26 -81 74c0 52 37 81 85 81zM257 804h-1c-29 0 -35 -38 -35 -62c0 -45 16 -65 36 -65c32 0 33 44 33 66c0 21 -4 61 -33 61zM525 9v-12c-21 0 -72 3 -130 3c-50 0 -85 -2 -127 -3l3 12c43 6 49 8 46 30
c-5 28 -27 127 -45 209c-17 1 -46 1 -71 1c-27 0 -55 0 -73 -1c-31 -116 -41 -161 -45 -186c-5 -39 6 -46 73 -53l-1 -12c-22 0 -49 3 -85 3c-23 0 -64 -3 -94 -3v12c48 5 59 12 75 59c33 100 122 417 146 504c6 19 7 30 9 47c22 0 92 9 110 18c21 -112 124 -540 150 -600
c7 -17 15 -23 28 -24zM208 551c-16 -62 -40 -143 -74 -283c17 0 45 -1 69 -1c25 0 51 1 64 1c-17 84 -42 207 -59 283z" />
    <glyph glyph-name="AE" unicode="&#xc6;" horiz-adv-x="724" 
d="M378 625h166c29 0 55 1 75 2s35 3 44 5c-4 -33 -4 -127 -3 -162h-11c-6 30 -10 56 -25 88c-19 40 -53 51 -131 51h-23c-12 0 -15 -6 -16 -16c-3 -32 -5 -94 -5 -162v-114h44c69 0 93 29 100 84h10c-6 -60 -6 -162 -2 -204h-11c-10 51 -21 103 -98 102h-43v-59
c0 -74 1 -165 4 -200c1 -18 4 -23 52 -23c63 0 98 2 128 29c34 31 51 80 62 122l11 -3c-3 -26 -19 -143 -23 -170c-26 3 -56 3 -94 4c-37 1 -76 1 -122 1h-62c-54 0 -127 -3 -156 -3l2 13l38 4c16 2 22 7 23 29c2 38 6 114 6 202v54c-28 -1 -108 -1 -141 -3
c-38 -85 -73 -162 -94 -239c-7 -26 -1 -37 34 -41l41 -6l-1 -13c-32 0 -61 3 -99 3c-29 0 -59 -3 -87 -3v13c46 6 62 14 89 73l225 511c7 12 3 16 -8 17l-70 6l-2 11c43 0 125 -3 173 -3zM318 317v288h-8c-39 -87 -87 -195 -124 -287c29 -2 85 -2 132 -1z" />
    <glyph glyph-name="Ccedilla" unicode="&#xc7;" horiz-adv-x="519" 
d="M320 -14c-8 -12 -17 -25 -25 -39c30 -5 68 -21 68 -66c0 -50 -37 -76 -85 -76c-23 0 -43 10 -53 17l7 15c13 -8 27 -11 43 -11c24 0 35 12 35 31c0 21 -25 36 -60 36l-3 9c16 25 33 49 56 83h-8c-98 0 -169 35 -211 100c-38 54 -53 132 -53 213c0 120 33 208 94 267
c47 47 110 75 196 75c65 0 116 -19 144 -48l16 46l9 -5c-7 -63 -10 -143 -6 -186l-12 -4c-8 81 -41 180 -136 180c-44 0 -74 -17 -101 -60c-34 -52 -55 -145 -55 -249c0 -87 12 -161 38 -213c26 -53 65 -81 126 -81s122 32 151 135l13 -9c-26 -94 -82 -153 -188 -160z" />
    <glyph glyph-name="Egrave" unicode="&#xc8;" horiz-adv-x="481" 
d="M12 617v11c26 0 104 -3 146 -3h146c57 0 101 3 117 8c-4 -33 -4 -130 -3 -164l-12 -2c-6 41 -13 66 -28 96c-18 36 -39 46 -118 46h-29c-12 0 -15 -6 -16 -16c-2 -32 -5 -96 -5 -164v-96c11 -1 37 -1 48 -1c68 0 89 26 98 90h11c-7 -59 -7 -166 -3 -210h-11
c-11 68 -23 102 -95 102c-12 0 -36 1 -48 -1v-77c0 -75 2 -160 4 -195c1 -18 9 -25 53 -25c69 0 91 4 122 32c32 29 51 83 62 123l10 -4c-1 -23 -20 -149 -25 -172c-37 3 -91 5 -178 5h-103c-27 0 -57 -1 -83 -1c-27 -1 -50 -2 -65 -2l1 12l38 4c17 2 26 8 28 31
c3 37 5 104 5 197v174c0 107 -1 147 -3 177c-1 16 -12 20 -31 22zM279 676l-6 -8c-57 21 -130 48 -143 54c-12 5 -25 17 -30 29c-9 24 3 35 16 40c14 5 32 1 49 -11c13 -10 92 -83 114 -104z" />
    <glyph glyph-name="Eacute" unicode="&#xc9;" horiz-adv-x="481" 
d="M12 617v11c26 0 104 -3 146 -3h146c57 0 101 3 117 8c-4 -33 -4 -130 -3 -164l-12 -2c-6 41 -13 66 -28 96c-18 36 -39 46 -118 46h-29c-12 0 -15 -6 -16 -16c-2 -32 -5 -96 -5 -164v-96c11 -1 37 -1 48 -1c68 0 89 26 98 90h11c-7 -59 -7 -166 -3 -210h-11
c-11 68 -23 102 -95 102c-12 0 -36 1 -48 -1v-77c0 -75 2 -160 4 -195c1 -18 9 -25 53 -25c69 0 91 4 122 32c32 29 51 83 62 123l10 -4c-1 -23 -20 -149 -25 -172c-37 3 -91 5 -178 5h-103c-27 0 -57 -1 -83 -1c-27 -1 -50 -2 -65 -2l1 12l38 4c17 2 26 8 28 31
c3 37 5 104 5 197v174c0 107 -1 147 -3 177c-1 16 -12 20 -31 22zM197 668l-7 9l128 102c17 12 39 15 53 9c13 -6 19 -18 11 -37c-6 -16 -26 -27 -41 -33z" />
    <glyph glyph-name="Ecircumflex" unicode="&#xca;" horiz-adv-x="481" 
d="M12 617v11c26 0 104 -3 146 -3h146c57 0 101 3 117 8c-4 -33 -4 -130 -3 -164l-12 -2c-6 41 -13 66 -28 96c-18 36 -39 46 -118 46h-29c-12 0 -15 -6 -16 -16c-2 -32 -5 -96 -5 -164v-96c11 -1 37 -1 48 -1c68 0 89 26 98 90h11c-7 -59 -7 -166 -3 -210h-11
c-11 68 -23 102 -95 102c-12 0 -36 1 -48 -1v-77c0 -75 2 -160 4 -195c1 -18 9 -25 53 -25c69 0 91 4 122 32c32 29 51 83 62 123l10 -4c-1 -23 -20 -149 -25 -172c-37 3 -91 5 -178 5h-103c-27 0 -57 -1 -83 -1c-27 -1 -50 -2 -65 -2l1 12l38 4c17 2 26 8 28 31
c3 37 5 104 5 197v174c0 107 -1 147 -3 177c-1 16 -12 20 -31 22zM238 792l8 3c12 -19 45 -67 119 -113l-5 -8c-34 12 -84 27 -118 47c-39 -20 -83 -35 -118 -47l-5 8c74 46 108 93 119 110z" />
    <glyph glyph-name="Edieresis" unicode="&#xcb;" horiz-adv-x="481" 
d="M12 617v11c26 0 104 -3 146 -3h146c57 0 101 3 117 8c-4 -33 -4 -130 -3 -164l-12 -2c-6 41 -13 66 -28 96c-18 36 -39 46 -118 46h-29c-12 0 -15 -6 -16 -16c-2 -32 -5 -96 -5 -164v-96c11 -1 37 -1 48 -1c68 0 89 26 98 90h11c-7 -59 -7 -166 -3 -210h-11
c-11 68 -23 102 -95 102c-12 0 -36 1 -48 -1v-77c0 -75 2 -160 4 -195c1 -18 9 -25 53 -25c69 0 91 4 122 32c32 29 51 83 62 123l10 -4c-1 -23 -20 -149 -25 -172c-37 3 -91 5 -178 5h-103c-27 0 -57 -1 -83 -1c-27 -1 -50 -2 -65 -2l1 12l38 4c17 2 26 8 28 31
c3 37 5 104 5 197v174c0 107 -1 147 -3 177c-1 16 -12 20 -31 22zM158 771h1c29 0 45 -21 45 -46c0 -32 -24 -50 -48 -50c-21 0 -44 13 -44 45c0 30 19 51 46 51zM323 771h1c28 0 45 -21 45 -46c0 -32 -26 -50 -48 -50c-21 0 -44 13 -44 45c0 30 19 51 46 51z" />
    <glyph glyph-name="Igrave" unicode="&#xcc;" horiz-adv-x="289" 
d="M79 221v188c0 115 -1 152 -2 175c-2 26 -13 28 -60 32l1 12c27 0 77 -3 127 -3c46 0 99 3 125 3l2 -12c-46 -3 -56 -7 -57 -29c-2 -24 -4 -81 -4 -177v-189c0 -101 3 -153 5 -179c1 -27 11 -29 58 -33l-2 -12c-29 0 -78 3 -129 3c-50 0 -106 -3 -129 -3l1 12
c47 3 58 7 60 32c2 21 4 78 4 180zM188 676l-6 -8c-57 21 -130 48 -143 54c-12 5 -25 17 -30 29c-9 24 3 35 16 40c14 5 32 1 49 -11c13 -10 92 -83 114 -104z" />
    <glyph glyph-name="Iacute" unicode="&#xcd;" horiz-adv-x="289" 
d="M79 221v188c0 115 -1 152 -2 175c-2 26 -13 28 -60 32l1 12c27 0 77 -3 127 -3c46 0 99 3 125 3l2 -12c-46 -3 -56 -7 -57 -29c-2 -24 -4 -81 -4 -177v-189c0 -101 3 -153 5 -179c1 -27 11 -29 58 -33l-2 -12c-29 0 -78 3 -129 3c-50 0 -106 -3 -129 -3l1 12
c47 3 58 7 60 32c2 21 4 78 4 180zM96 664l-7 9l128 102c17 12 39 15 53 9c13 -6 19 -18 11 -37c-6 -16 -26 -27 -41 -33z" />
    <glyph glyph-name="Icircumflex" unicode="&#xce;" horiz-adv-x="289" 
d="M79 221v188c0 115 -1 152 -2 175c-2 26 -13 28 -60 32l1 12c27 0 77 -3 127 -3c46 0 99 3 125 3l2 -12c-46 -3 -56 -7 -57 -29c-2 -24 -4 -81 -4 -177v-189c0 -101 3 -153 5 -179c1 -27 11 -29 58 -33l-2 -12c-29 0 -78 3 -129 3c-50 0 -106 -3 -129 -3l1 12
c47 3 58 7 60 32c2 21 4 78 4 180zM142 783l8 3c12 -19 45 -67 119 -113l-5 -8c-34 12 -84 27 -118 47c-39 -20 -83 -35 -118 -47l-5 8c74 46 108 93 119 110z" />
    <glyph glyph-name="Idieresis" unicode="&#xcf;" horiz-adv-x="289" 
d="M79 221v188c0 115 -1 152 -2 175c-2 26 -13 28 -60 32l1 12c27 0 77 -3 127 -3c46 0 99 3 125 3l2 -12c-46 -3 -56 -7 -57 -29c-2 -24 -4 -81 -4 -177v-189c0 -101 3 -153 5 -179c1 -27 11 -29 58 -33l-2 -12c-29 0 -78 3 -129 3c-50 0 -106 -3 -129 -3l1 12
c47 3 58 7 60 32c2 21 4 78 4 180zM63 771h1c29 0 45 -21 45 -46c0 -32 -24 -50 -48 -50c-21 0 -44 13 -44 45c0 30 19 51 46 51zM228 771h1c28 0 45 -21 45 -46c0 -32 -26 -50 -48 -50c-21 0 -44 13 -44 45c0 30 19 51 46 51z" />
    <glyph glyph-name="Eth" unicode="&#xd0;" horiz-adv-x="595" 
d="M6 320l1 27c14 -1 43 -2 83 -2v71c0 100 -1 149 -2 171c0 17 -7 24 -20 25l-45 5l1 11c15 0 67 -3 120 -3c40 0 85 3 138 3c96 0 145 -13 179 -37c68 -47 104 -123 104 -256c0 -127 -39 -251 -141 -305c-41 -22 -92 -33 -161 -33c-25 0 -52 2 -77 2c-21 0 -41 1 -61 1
c-35 0 -92 -3 -107 -3l1 12l34 3c24 3 30 10 31 28c1 21 6 110 6 217v66c-30 0 -61 -1 -84 -3zM332 347l-4 -28c-10 0 -52 2 -107 3v-70c0 -156 0 -197 3 -221c1 -13 9 -19 36 -19c59 0 91 22 112 56c25 40 51 126 51 258c0 113 -19 197 -50 238c-26 34 -48 49 -112 49
c-24 0 -35 -6 -36 -19c-1 -15 -4 -68 -4 -188v-62c43 0 77 1 111 3z" />
    <glyph glyph-name="Ntilde" unicode="&#xd1;" horiz-adv-x="539" 
d="M8 617v11c13 0 60 -3 101 -3c33 0 55 0 87 3c8 -17 20 -39 43 -81c25 -48 94 -165 213 -370c0 248 -3 364 -6 391c-5 34 -12 43 -45 46l-34 3l4 11c24 0 60 -3 91 -3c32 0 65 3 84 3v-11c-13 -3 -28 -4 -39 -7c-14 -4 -19 -14 -23 -34c-8 -42 -14 -176 -14 -339v-238
c-16 0 -53 -6 -71 -10l-300 548c0 -296 2 -442 6 -485c3 -23 14 -32 30 -35c12 -2 35 -5 51 -8l-2 -12c-24 0 -61 3 -107 3c-41 0 -58 -3 -76 -3v12c9 1 24 3 38 6c19 4 26 18 29 47c4 37 15 215 15 499c-3 9 -7 18 -15 32c-6 11 -13 16 -25 18zM184 674l-14 3
c3 45 23 96 70 96c15 0 32 -5 59 -26c28 -21 38 -24 48 -24c17 0 31 21 33 54l14 -5c-3 -39 -20 -97 -68 -97c-19 0 -34 7 -62 28c-20 15 -30 21 -44 21c-20 0 -34 -21 -36 -50z" />
    <glyph glyph-name="Ograve" unicode="&#xd2;" horiz-adv-x="581" 
d="M293 640h1c177 0 256 -154 256 -313c0 -201 -82 -342 -258 -342c-184 0 -261 152 -261 324c0 167 81 331 262 331zM289 625h-1c-31 0 -54 -20 -72 -57c-19 -40 -35 -132 -35 -242c0 -111 17 -227 40 -271c20 -39 42 -54 76 -54c32 0 55 16 73 63c18 46 30 137 30 242
c0 109 -14 209 -35 261c-18 42 -41 58 -76 58zM326 679l-6 -8c-57 21 -130 48 -143 54c-12 5 -25 17 -30 29c-9 24 3 35 16 40c14 5 32 1 49 -11c13 -10 92 -83 114 -104z" />
    <glyph glyph-name="Oacute" unicode="&#xd3;" horiz-adv-x="581" 
d="M293 640h1c177 0 256 -154 256 -313c0 -201 -82 -342 -258 -342c-184 0 -261 152 -261 324c0 167 81 331 262 331zM289 625h-1c-31 0 -54 -20 -72 -57c-19 -40 -35 -132 -35 -242c0 -111 17 -227 40 -271c20 -39 42 -54 76 -54c32 0 55 16 73 63c18 46 30 137 30 242
c0 109 -14 209 -35 261c-18 42 -41 58 -76 58zM234 676l-7 9l128 102c17 12 39 15 53 9c13 -6 19 -18 11 -37c-6 -16 -26 -27 -41 -33z" />
    <glyph glyph-name="Ocircumflex" unicode="&#xd4;" horiz-adv-x="581" 
d="M293 640h1c177 0 256 -154 256 -313c0 -201 -82 -342 -258 -342c-184 0 -261 152 -261 324c0 167 81 331 262 331zM289 625h-1c-31 0 -54 -20 -72 -57c-19 -40 -35 -132 -35 -242c0 -111 17 -227 40 -271c20 -39 42 -54 76 -54c32 0 55 16 73 63c18 46 30 137 30 242
c0 109 -14 209 -35 261c-18 42 -41 58 -76 58zM285 791l8 3c12 -19 45 -67 119 -113l-5 -8c-34 12 -84 27 -118 47c-39 -20 -83 -35 -118 -47l-5 8c74 46 108 93 119 110z" />
    <glyph glyph-name="Otilde" unicode="&#xd5;" horiz-adv-x="581" 
d="M293 640h1c177 0 256 -154 256 -313c0 -201 -82 -342 -258 -342c-184 0 -261 152 -261 324c0 167 81 331 262 331zM289 625h-1c-31 0 -54 -20 -72 -57c-19 -40 -35 -132 -35 -242c0 -111 17 -227 40 -271c20 -39 42 -54 76 -54c32 0 55 16 73 63c18 46 30 137 30 242
c0 109 -14 209 -35 261c-18 42 -41 58 -76 58zM193 680l-14 3c3 45 23 96 70 96c15 0 32 -5 59 -26c28 -21 38 -24 48 -24c17 0 31 21 33 54l14 -5c-3 -39 -20 -97 -68 -97c-19 0 -34 7 -62 28c-20 15 -30 21 -44 21c-20 0 -34 -21 -36 -50z" />
    <glyph glyph-name="Odieresis" unicode="&#xd6;" horiz-adv-x="581" 
d="M293 640h1c177 0 256 -154 256 -313c0 -201 -82 -342 -258 -342c-184 0 -261 152 -261 324c0 167 81 331 262 331zM289 625h-1c-31 0 -54 -20 -72 -57c-19 -40 -35 -132 -35 -242c0 -111 17 -227 40 -271c20 -39 42 -54 76 -54c32 0 55 16 73 63c18 46 30 137 30 242
c0 109 -14 209 -35 261c-18 42 -41 58 -76 58zM207 774h1c29 0 45 -21 45 -46c0 -32 -24 -50 -48 -50c-21 0 -44 13 -44 45c0 30 19 51 46 51zM372 774h1c28 0 45 -21 45 -46c0 -32 -26 -50 -48 -50c-21 0 -44 13 -44 45c0 30 19 51 46 51z" />
    <glyph glyph-name="multiply" unicode="&#xd7;" horiz-adv-x="420" 
d="M376 353l-138 -141l138 -140l-29 -30l-138 140l-137 -140l-28 30l136 140l-136 139l28 31l137 -139l138 140z" />
    <glyph glyph-name="Oslash" unicode="&#xd8;" horiz-adv-x="583" 
d="M477 649l22 -11l-37 -59c59 -62 89 -159 89 -252c0 -188 -85 -342 -262 -342c-61 0 -114 19 -152 50l-37 -63l-23 10l43 67c-59 61 -89 156 -89 257c0 168 85 334 270 334c59 0 107 -17 144 -45zM293 625h-1c-30 0 -50 -17 -68 -48c-25 -45 -43 -164 -43 -264
c0 -52 3 -102 16 -160l187 362c-15 69 -39 110 -91 110zM292 1h1c33 0 57 12 76 59c20 46 33 136 33 263c0 55 -3 106 -12 157l-186 -360c12 -53 37 -119 88 -119z" />
    <glyph glyph-name="Ugrave" unicode="&#xd9;" horiz-adv-x="539" 
d="M320 18h1c64 0 120 24 127 157c8 169 2 335 -1 393c-2 37 -15 41 -34 44l-41 4l-1 12c21 0 58 -3 87 -3s51 3 80 3l4 -12l-31 -3c-23 -2 -28 -13 -29 -42c-5 -120 -7 -319 -15 -404c-6 -75 -32 -118 -63 -142c-33 -27 -77 -39 -132 -39c-77 0 -134 19 -167 62
c-23 31 -32 72 -33 138c-1 97 1 327 -1 392c-1 23 -4 32 -19 34l-38 4v12c33 0 81 -3 125 -3c47 0 96 3 122 3l3 -11l-36 -5c-14 -2 -17 -9 -18 -24c-7 -91 -11 -278 -5 -424c2 -70 11 -97 32 -117c17 -18 52 -29 83 -29zM350 674l-6 -8c-57 21 -130 48 -143 54
c-12 5 -25 17 -30 29c-9 24 3 35 16 40c14 5 32 1 49 -11c13 -10 92 -83 114 -104z" />
    <glyph glyph-name="Uacute" unicode="&#xda;" horiz-adv-x="539" 
d="M320 18h1c64 0 120 24 127 157c8 169 2 335 -1 393c-2 37 -15 41 -34 44l-41 4l-1 12c21 0 58 -3 87 -3s51 3 80 3l4 -12l-31 -3c-23 -2 -28 -13 -29 -42c-5 -120 -7 -319 -15 -404c-6 -75 -32 -118 -63 -142c-33 -27 -77 -39 -132 -39c-77 0 -134 19 -167 62
c-23 31 -32 72 -33 138c-1 97 1 327 -1 392c-1 23 -4 32 -19 34l-38 4v12c33 0 81 -3 125 -3c47 0 96 3 122 3l3 -11l-36 -5c-14 -2 -17 -9 -18 -24c-7 -91 -11 -278 -5 -424c2 -70 11 -97 32 -117c17 -18 52 -29 83 -29zM239 670l-7 9l128 102c17 12 39 15 53 9
c13 -6 19 -18 11 -37c-6 -16 -26 -27 -41 -33z" />
    <glyph glyph-name="Ucircumflex" unicode="&#xdb;" horiz-adv-x="539" 
d="M320 18h1c64 0 120 24 127 157c8 169 2 335 -1 393c-2 37 -15 41 -34 44l-41 4l-1 12c21 0 58 -3 87 -3s51 3 80 3l4 -12l-31 -3c-23 -2 -28 -13 -29 -42c-5 -120 -7 -319 -15 -404c-6 -75 -32 -118 -63 -142c-33 -27 -77 -39 -132 -39c-77 0 -134 19 -167 62
c-23 31 -32 72 -33 138c-1 97 1 327 -1 392c-1 23 -4 32 -19 34l-38 4v12c33 0 81 -3 125 -3c47 0 96 3 122 3l3 -11l-36 -5c-14 -2 -17 -9 -18 -24c-7 -91 -11 -278 -5 -424c2 -70 11 -97 32 -117c17 -18 52 -29 83 -29zM289 787l8 3c12 -19 45 -67 119 -113l-5 -8
c-34 12 -84 27 -118 47c-39 -20 -83 -35 -118 -47l-5 8c74 46 108 93 119 110z" />
    <glyph glyph-name="Udieresis" unicode="&#xdc;" horiz-adv-x="539" 
d="M320 18h1c64 0 120 24 127 157c8 169 2 335 -1 393c-2 37 -15 41 -34 44l-41 4l-1 12c21 0 58 -3 87 -3s51 3 80 3l4 -12l-31 -3c-23 -2 -28 -13 -29 -42c-5 -120 -7 -319 -15 -404c-6 -75 -32 -118 -63 -142c-33 -27 -77 -39 -132 -39c-77 0 -134 19 -167 62
c-23 31 -32 72 -33 138c-1 97 1 327 -1 392c-1 23 -4 32 -19 34l-38 4v12c33 0 81 -3 125 -3c47 0 96 3 122 3l3 -11l-36 -5c-14 -2 -17 -9 -18 -24c-7 -91 -11 -278 -5 -424c2 -70 11 -97 32 -117c17 -18 52 -29 83 -29zM211 772h1c29 0 45 -21 45 -46
c0 -32 -24 -50 -48 -50c-21 0 -44 13 -44 45c0 30 19 51 46 51zM376 772h1c28 0 45 -21 45 -46c0 -32 -26 -50 -48 -50c-21 0 -44 13 -44 45c0 30 19 51 46 51z" />
    <glyph glyph-name="Yacute" unicode="&#xdd;" horiz-adv-x="459" 
d="M378 9l3 -12c-41 0 -107 3 -150 3c-58 0 -102 -3 -141 -3l-2 12c21 2 35 5 50 7c19 2 29 10 30 34c3 37 5 149 6 213c0 14 -2 26 -9 43c-21 57 -80 193 -119 264c-21 38 -28 44 -73 46l-1 12c24 0 90 -3 131 -3c60 0 104 3 131 3l2 -12l-36 -5c-15 -2 -15 -11 -10 -28
c14 -37 71 -174 106 -260c53 130 79 200 95 251c8 29 1 34 -13 36c-16 3 -32 4 -46 6l1 12c16 0 49 -3 84 -3s53 3 83 3l3 -12c-48 -3 -60 -8 -79 -44c-34 -63 -82 -183 -112 -256c-7 -16 -7 -28 -7 -46c-1 -65 0 -188 4 -233c1 -12 4 -20 18 -21c11 -1 29 -4 51 -7z
M205 671l-7 9l128 102c17 12 39 15 53 9c13 -6 19 -18 11 -37c-6 -16 -26 -27 -41 -33z" />
    <glyph glyph-name="Thorn" unicode="&#xde;" horiz-adv-x="498" 
d="M79 237v176c0 115 0 151 -1 172c-1 25 -14 29 -57 31l3 12c20 -1 65 -2 117 -3c64 -1 97 3 126 3l1 -12c-45 -2 -52 -10 -53 -30c-2 -25 -3 -57 -3 -86c17 2 44 3 77 3c73 0 115 -18 140 -45c30 -32 43 -78 43 -129c0 -60 -15 -102 -42 -133c-38 -44 -97 -62 -158 -62
c-23 0 -45 2 -62 7c0 -31 -1 -71 2 -99c2 -26 7 -29 65 -33l-1 -12c-33 0 -87 3 -136 3c-45 0 -108 -3 -126 -3v12c49 4 58 7 61 37c2 34 4 103 4 191zM210 406v-242c15 -12 31 -16 49 -16c21 0 41 12 51 33c13 28 22 80 22 144c0 55 -5 99 -20 126s-36 36 -70 36
c-22 0 -30 -4 -30 -12c-1 -9 -2 -32 -2 -69z" />
    <glyph glyph-name="germandbls" unicode="&#xdf;" horiz-adv-x="508" 
d="M16 420h51v15c0 74 20 131 64 177c31 34 80 64 154 64c112 0 158 -64 158 -139c0 -17 -1 -35 -8 -50c-74 -25 -101 -64 -101 -99c0 -19 7 -37 21 -54c15 -19 40 -40 63 -62c40 -36 66 -67 66 -130c0 -101 -73 -154 -158 -154c-32 0 -58 6 -87 13c3 35 2 55 1 80l10 4
c8 -41 35 -81 83 -81c33 0 64 25 64 68c0 24 -9 45 -31 66l-57 58c-38 37 -53 70 -53 116c0 60 37 104 92 139c7 14 11 47 11 73c0 76 -23 136 -80 136c-71 0 -91 -105 -91 -271v-198c0 -78 0 -123 1 -153c1 -23 5 -26 34 -29l-1 -12c-53 1 -80 3 -119 3
c-32 0 -66 -3 -88 -3l1 12c37 1 45 7 46 31c1 21 4 99 4 199v160l-51 6z" />
    <glyph glyph-name="agrave" unicode="&#xe0;" horiz-adv-x="424" 
d="M245 275v63c0 56 -19 80 -48 80c-38 0 -57 -21 -57 -72c0 -12 2 -25 4 -35s-2 -18 -8 -23c-10 -9 -28 -13 -43 -13c-26 0 -50 15 -50 50c0 48 60 108 172 108c87 0 120 -35 135 -56c8 -12 12 -30 12 -45v-267c0 -32 8 -38 19 -38c17 0 32 29 39 65l14 -5
c-12 -77 -59 -100 -108 -100c-53 0 -76 23 -81 66c-37 -41 -76 -66 -116 -66c-64 0 -106 47 -106 122c0 45 17 73 45 86c58 26 135 50 177 80zM150 132v-1c0 -36 13 -91 48 -91c26 0 36 20 42 37c3 7 5 22 5 34v148c-20 -13 -43 -25 -60 -37c-16 -12 -35 -30 -35 -90z
M235 476l-10 -5l-107 105c-11 12 -24 30 -24 49c0 26 18 33 28 33c23 0 36 -18 46 -39c16 -30 51 -110 67 -143z" />
    <glyph glyph-name="aacute" unicode="&#xe1;" horiz-adv-x="424" 
d="M245 275v63c0 56 -19 80 -48 80c-38 0 -57 -21 -57 -72c0 -12 2 -25 4 -35s-2 -18 -8 -23c-10 -9 -28 -13 -43 -13c-26 0 -50 15 -50 50c0 48 60 108 172 108c87 0 120 -35 135 -56c8 -12 12 -30 12 -45v-267c0 -32 8 -38 19 -38c17 0 32 29 39 65l14 -5
c-12 -77 -59 -100 -108 -100c-53 0 -76 23 -81 66c-37 -41 -76 -66 -116 -66c-64 0 -106 47 -106 122c0 45 17 73 45 86c58 26 135 50 177 80zM150 132v-1c0 -36 13 -91 48 -91c26 0 36 20 42 37c3 7 5 22 5 34v148c-20 -13 -43 -25 -60 -37c-16 -12 -35 -30 -35 -90z
M194 474l-11 6c19 34 59 112 75 142c12 21 30 39 51 39c17 0 24 -15 23 -33c-1 -15 -15 -35 -29 -50c-27 -28 -67 -64 -109 -104z" />
    <glyph glyph-name="acircumflex" unicode="&#xe2;" horiz-adv-x="424" 
d="M245 275v63c0 56 -19 80 -48 80c-38 0 -57 -21 -57 -72c0 -12 2 -25 4 -35s-2 -18 -8 -23c-10 -9 -28 -13 -43 -13c-26 0 -50 15 -50 50c0 48 60 108 172 108c87 0 120 -35 135 -56c8 -12 12 -30 12 -45v-267c0 -32 8 -38 19 -38c17 0 32 29 39 65l14 -5
c-12 -77 -59 -100 -108 -100c-53 0 -76 23 -81 66c-37 -41 -76 -66 -116 -66c-64 0 -106 47 -106 122c0 45 17 73 45 86c58 26 135 50 177 80zM150 132v-1c0 -36 13 -91 48 -91c26 0 36 20 42 37c3 7 5 22 5 34v148c-20 -13 -43 -25 -60 -37c-16 -12 -35 -30 -35 -90z
M207 661l11 4c10 -31 40 -102 101 -181l-7 -10c-29 20 -71 58 -100 91c-30 -33 -70 -71 -100 -91l-7 10c62 79 93 150 102 177z" />
    <glyph glyph-name="atilde" unicode="&#xe3;" horiz-adv-x="424" 
d="M245 275v63c0 56 -19 80 -48 80c-38 0 -57 -21 -57 -72c0 -12 2 -25 4 -35s-2 -18 -8 -23c-10 -9 -28 -13 -43 -13c-26 0 -50 15 -50 50c0 48 60 108 172 108c87 0 120 -35 135 -56c8 -12 12 -30 12 -45v-267c0 -32 8 -38 19 -38c17 0 32 29 39 65l14 -5
c-12 -77 -59 -100 -108 -100c-53 0 -76 23 -81 66c-37 -41 -76 -66 -116 -66c-64 0 -106 47 -106 122c0 45 17 73 45 86c58 26 135 50 177 80zM150 132v-1c0 -36 13 -91 48 -91c26 0 36 20 42 37c3 7 5 22 5 34v148c-20 -13 -43 -25 -60 -37c-16 -12 -35 -30 -35 -90z
M117 498l-13 4c2 43 18 99 66 99c15 0 30 -6 58 -27c26 -20 40 -25 47 -25c15 0 28 15 31 56l13 -5c-3 -48 -19 -102 -66 -102c-15 0 -32 8 -59 30c-18 13 -30 22 -44 22c-18 0 -30 -18 -33 -52z" />
    <glyph glyph-name="adieresis" unicode="&#xe4;" horiz-adv-x="424" 
d="M245 275v63c0 56 -19 80 -48 80c-38 0 -57 -21 -57 -72c0 -12 2 -25 4 -35s-2 -18 -8 -23c-10 -9 -28 -13 -43 -13c-26 0 -50 15 -50 50c0 48 60 108 172 108c87 0 120 -35 135 -56c8 -12 12 -30 12 -45v-267c0 -32 8 -38 19 -38c17 0 32 29 39 65l14 -5
c-12 -77 -59 -100 -108 -100c-53 0 -76 23 -81 66c-37 -41 -76 -66 -116 -66c-64 0 -106 47 -106 122c0 45 17 73 45 86c58 26 135 50 177 80zM150 132v-1c0 -36 13 -91 48 -91c26 0 36 20 42 37c3 7 5 22 5 34v148c-20 -13 -43 -25 -60 -37c-16 -12 -35 -30 -35 -90z
M133 617h1c32 0 51 -22 51 -55c0 -38 -30 -57 -54 -57c-25 0 -52 15 -52 54c0 35 22 58 54 58zM293 617h1c32 0 51 -20 51 -53c0 -38 -28 -59 -52 -59c-28 0 -54 16 -54 54c0 36 23 58 54 58z" />
    <glyph glyph-name="aring" unicode="&#xe5;" horiz-adv-x="424" 
d="M245 275v63c0 56 -19 80 -48 80c-38 0 -57 -21 -57 -72c0 -12 2 -25 4 -35s-2 -18 -8 -23c-10 -9 -28 -13 -43 -13c-26 0 -50 15 -50 50c0 48 60 108 172 108c87 0 120 -35 135 -56c8 -12 12 -30 12 -45v-267c0 -32 8 -38 19 -38c17 0 32 29 39 65l14 -5
c-12 -77 -59 -100 -108 -100c-53 0 -76 23 -81 66c-37 -41 -76 -66 -116 -66c-64 0 -106 47 -106 122c0 45 17 73 45 86c58 26 135 50 177 80zM150 132v-1c0 -36 13 -91 48 -91c26 0 36 20 42 37c3 7 5 22 5 34v148c-20 -13 -43 -25 -60 -37c-16 -12 -35 -30 -35 -90z
M216 640h1c44 0 78 -26 78 -77s-37 -79 -83 -79c-48 0 -82 27 -82 75c0 52 37 81 86 81zM213 626h-1c-29 0 -35 -39 -35 -63c0 -46 16 -65 36 -65c33 0 35 43 35 66c0 20 -5 62 -35 62z" />
    <glyph glyph-name="ae" unicode="&#xe6;" horiz-adv-x="604" 
d="M150 121v-1c0 -30 13 -83 46 -83c25 0 37 17 43 37c4 11 5 23 5 50l1 133c-21 -10 -47 -26 -63 -39c-15 -13 -32 -34 -32 -97zM582 105c-24 -80 -73 -118 -160 -118c-75 0 -132 31 -154 83c-33 -32 -82 -84 -141 -83c-65 1 -104 49 -104 118c0 52 17 77 52 93
c55 24 125 49 170 76v64c0 59 -23 80 -50 80c-33 0 -57 -19 -54 -68c0 -13 2 -28 3 -39c2 -8 0 -17 -9 -24s-23 -12 -41 -12c-24 0 -52 13 -52 50c0 50 70 108 171 108c56 0 90 -18 108 -49c27 34 69 49 111 49c141 0 154 -120 153 -170c0 -14 -3 -28 -13 -34
c-11 -6 -40 -9 -71 -11c-34 -2 -89 -2 -137 -2c-2 -62 7 -104 20 -137c16 -40 39 -58 85 -58c59 0 85 42 102 89zM422 418h-1c-33 0 -55 -83 -56 -183c13 -2 27 -3 44 -3c19 0 37 1 49 5c11 3 14 18 14 29c0 48 -2 152 -50 152z" />
    <glyph glyph-name="ccedilla" unicode="&#xe7;" horiz-adv-x="387" 
d="M233 -13c-7 -10 -14 -20 -21 -31c31 -5 70 -21 70 -68c0 -51 -38 -78 -88 -78c-23 0 -45 11 -54 18l6 15c14 -8 29 -11 45 -11c25 0 36 13 36 32c0 22 -25 37 -62 37l-3 9l52 77c-65 0 -114 13 -153 67c-25 34 -37 83 -37 148c0 127 69 231 210 231
c73 0 135 -33 135 -100c0 -43 -34 -58 -61 -58c-10 0 -20 1 -31 8c-7 4 -14 13 -11 25c4 17 8 33 8 46c0 43 -13 65 -44 65c-47 0 -74 -79 -74 -201c0 -43 6 -94 18 -125c18 -47 43 -71 86 -71c55 0 82 38 101 95l13 -7c-19 -68 -58 -117 -141 -123z" />
    <glyph glyph-name="egrave" unicode="&#xe8;" horiz-adv-x="394" 
d="M373 110c-26 -87 -79 -123 -162 -123c-72 0 -117 23 -147 63c-24 33 -39 90 -39 151c0 119 57 232 192 232c145 0 158 -121 158 -168c0 -17 -6 -35 -13 -39c-16 -5 -53 -9 -127 -9c-15 0 -47 -1 -80 -1c-2 -58 7 -99 19 -131c15 -42 40 -63 83 -63c52 0 82 31 105 94z
M215 418h-1c-35 0 -54 -82 -57 -186h44c18 0 34 1 45 4s17 15 17 41c0 38 -2 141 -48 141zM234 476l-10 -5l-107 105c-11 12 -24 30 -24 49c0 26 18 33 28 33c23 0 36 -18 46 -39c16 -30 51 -110 67 -143z" />
    <glyph glyph-name="eacute" unicode="&#xe9;" horiz-adv-x="394" 
d="M373 110c-26 -87 -79 -123 -162 -123c-72 0 -117 23 -147 63c-24 33 -39 90 -39 151c0 119 57 232 192 232c145 0 158 -121 158 -168c0 -17 -6 -35 -13 -39c-16 -5 -53 -9 -127 -9c-15 0 -47 -1 -80 -1c-2 -58 7 -99 19 -131c15 -42 40 -63 83 -63c52 0 82 31 105 94z
M215 418h-1c-35 0 -54 -82 -57 -186h44c18 0 34 1 45 4s17 15 17 41c0 38 -2 141 -48 141zM191 474l-11 6c19 34 59 112 75 142c12 21 30 39 51 39c17 0 24 -15 23 -33c-1 -15 -15 -35 -29 -50c-27 -28 -67 -64 -109 -104z" />
    <glyph glyph-name="ecircumflex" unicode="&#xea;" horiz-adv-x="394" 
d="M373 110c-26 -87 -79 -123 -162 -123c-72 0 -117 23 -147 63c-24 33 -39 90 -39 151c0 119 57 232 192 232c145 0 158 -121 158 -168c0 -17 -6 -35 -13 -39c-16 -5 -53 -9 -127 -9c-15 0 -47 -1 -80 -1c-2 -58 7 -99 19 -131c15 -42 40 -63 83 -63c52 0 82 31 105 94z
M215 418h-1c-35 0 -54 -82 -57 -186h44c18 0 34 1 45 4s17 15 17 41c0 38 -2 141 -48 141zM206 661l11 4c10 -31 40 -102 101 -181l-7 -10c-29 20 -71 58 -100 91c-30 -33 -70 -71 -100 -91l-7 10c62 79 93 150 102 177z" />
    <glyph glyph-name="edieresis" unicode="&#xeb;" horiz-adv-x="394" 
d="M373 110c-26 -87 -79 -123 -162 -123c-72 0 -117 23 -147 63c-24 33 -39 90 -39 151c0 119 57 232 192 232c145 0 158 -121 158 -168c0 -17 -6 -35 -13 -39c-16 -5 -53 -9 -127 -9c-15 0 -47 -1 -80 -1c-2 -58 7 -99 19 -131c15 -42 40 -63 83 -63c52 0 82 31 105 94z
M215 418h-1c-35 0 -54 -82 -57 -186h44c18 0 34 1 45 4s17 15 17 41c0 38 -2 141 -48 141zM129 617h1c32 0 51 -22 51 -55c0 -38 -30 -57 -54 -57c-25 0 -52 15 -52 54c0 35 22 58 54 58zM289 617h1c32 0 51 -20 51 -53c0 -38 -28 -59 -52 -59c-28 0 -54 16 -54 54
c0 36 23 58 54 58z" />
    <glyph glyph-name="igrave" unicode="&#xec;" horiz-adv-x="246" 
d="M233 9l-1 -12c-28 0 -61 3 -114 3c-54 0 -81 -3 -102 -3v12c38 2 44 9 46 29c2 18 3 52 3 122v112c0 44 -1 94 -2 109c-2 16 -9 20 -46 19l1 12c53 3 121 7 172 19c-2 -22 -3 -62 -3 -157v-116c0 -72 1 -95 3 -118c2 -24 7 -27 43 -31zM146 476l-10 -5l-107 105
c-11 12 -24 30 -24 49c0 26 18 33 28 33c23 0 36 -18 46 -39c16 -30 51 -110 67 -143z" />
    <glyph glyph-name="iacute" unicode="&#xed;" horiz-adv-x="246" 
d="M233 9l-1 -12c-28 0 -61 3 -114 3c-54 0 -81 -3 -102 -3v12c38 2 44 9 46 29c2 18 3 52 3 122v112c0 44 -1 94 -2 109c-2 16 -9 20 -46 19l1 12c53 3 121 7 172 19c-2 -22 -3 -62 -3 -157v-116c0 -72 1 -95 3 -118c2 -24 7 -27 43 -31zM117 474l-11 6
c19 34 59 112 75 142c12 21 30 39 51 39c17 0 24 -15 23 -33c-1 -15 -15 -35 -29 -50c-27 -28 -67 -64 -109 -104z" />
    <glyph glyph-name="icircumflex" unicode="&#xee;" horiz-adv-x="246" 
d="M233 9l-1 -12c-28 0 -61 3 -114 3c-54 0 -81 -3 -102 -3v12c38 2 44 9 46 29c2 18 3 52 3 122v112c0 44 -1 94 -2 109c-2 16 -9 20 -46 19l1 12c53 3 121 7 172 19c-2 -22 -3 -62 -3 -157v-116c0 -72 1 -95 3 -118c2 -24 7 -27 43 -31zM118 661l11 4
c10 -31 40 -102 101 -181l-7 -10c-29 20 -71 58 -100 91c-30 -33 -70 -71 -100 -91l-7 10c62 79 93 150 102 177z" />
    <glyph glyph-name="idieresis" unicode="&#xef;" horiz-adv-x="246" 
d="M233 9l-1 -12c-28 0 -61 3 -114 3c-54 0 -81 -3 -102 -3v12c38 2 44 9 46 29c2 18 3 52 3 122v112c0 44 -1 94 -2 109c-2 16 -9 20 -46 19l1 12c53 3 121 7 172 19c-2 -22 -3 -62 -3 -157v-116c0 -72 1 -95 3 -118c2 -24 7 -27 43 -31zM44 617h1c32 0 51 -22 51 -55
c0 -38 -30 -57 -54 -57c-25 0 -52 15 -52 54c0 35 22 58 54 58zM204 617h1c32 0 51 -20 51 -53c0 -38 -28 -59 -52 -59c-28 0 -54 16 -54 54c0 36 23 58 54 58z" />
    <glyph glyph-name="eth" unicode="&#xf0;" horiz-adv-x="451" 
d="M78 663l5 13c72 3 145 -26 202 -73l97 59l9 -23c-20 -9 -50 -28 -90 -50c83 -78 122 -200 122 -318c0 -157 -61 -284 -212 -284c-118 0 -186 92 -186 215c0 124 70 231 196 231c30 0 50 -8 69 -21c-4 53 -16 101 -46 145c-40 -23 -82 -48 -114 -69l-11 23
c47 24 86 47 113 64c-36 51 -96 86 -154 88zM224 420h-1c-16 0 -30 -8 -42 -30c-18 -34 -24 -110 -24 -182c0 -57 6 -116 16 -151c11 -35 30 -56 55 -56c23 0 41 14 52 48c10 29 19 119 18 216c0 42 -3 78 -7 109c-14 26 -31 46 -67 46z" />
    <glyph glyph-name="ntilde" unicode="&#xf1;" horiz-adv-x="483" 
d="M16 -3v12c40 2 45 4 47 31c2 31 3 64 3 112v110c0 59 0 97 -3 122c-1 15 -5 18 -41 19v12c53 0 108 4 159 14c3 -23 7 -44 8 -61c31 29 73 65 132 65c51 0 79 -25 91 -48c9 -16 13 -32 13 -51v-296c0 -21 4 -24 47 -29l-1 -12c-35 0 -69 3 -109 3c-51 0 -89 -3 -100 -3
l1 12c30 2 35 7 37 26c1 20 3 57 3 153c1 151 -1 163 -8 176c-8 14 -18 23 -39 23c-24 0 -45 -12 -59 -35c-7 -12 -9 -20 -9 -37v-165c0 -39 0 -88 3 -116c1 -15 6 -21 41 -25l-1 -12c-18 0 -69 3 -107 3c-45 0 -85 -3 -108 -3zM147 498l-13 4c2 43 18 99 66 99
c15 0 30 -6 58 -27c26 -20 40 -25 47 -25c15 0 28 15 31 56l13 -5c-3 -48 -19 -102 -66 -102c-15 0 -32 8 -59 30c-18 13 -30 22 -44 22c-18 0 -30 -18 -33 -52z" />
    <glyph glyph-name="ograve" unicode="&#xf2;" horiz-adv-x="456" 
d="M232 433h1c135 0 198 -98 198 -218c0 -141 -79 -228 -204 -228c-142 0 -202 101 -202 220c0 129 70 226 207 226zM228 419h-1c-25 0 -38 -19 -48 -40c-12 -26 -20 -83 -20 -155c0 -76 8 -143 23 -181c11 -27 29 -42 53 -42c21 0 39 12 49 41c10 34 16 92 16 165
c0 74 -8 136 -19 167c-11 29 -26 45 -53 45zM255 476l-10 -5l-107 105c-11 12 -24 30 -24 49c0 26 18 33 28 33c23 0 36 -18 46 -39c16 -30 51 -110 67 -143z" />
    <glyph glyph-name="oacute" unicode="&#xf3;" horiz-adv-x="456" 
d="M232 433h1c135 0 198 -98 198 -218c0 -141 -79 -228 -204 -228c-142 0 -202 101 -202 220c0 129 70 226 207 226zM228 419h-1c-25 0 -38 -19 -48 -40c-12 -26 -20 -83 -20 -155c0 -76 8 -143 23 -181c11 -27 29 -42 53 -42c21 0 39 12 49 41c10 34 16 92 16 165
c0 74 -8 136 -19 167c-11 29 -26 45 -53 45zM210 474l-11 6c19 34 59 112 75 142c12 21 30 39 51 39c17 0 24 -15 23 -33c-1 -15 -15 -35 -29 -50c-27 -28 -67 -64 -109 -104z" />
    <glyph glyph-name="ocircumflex" unicode="&#xf4;" horiz-adv-x="456" 
d="M232 433h1c135 0 198 -98 198 -218c0 -141 -79 -228 -204 -228c-142 0 -202 101 -202 220c0 129 70 226 207 226zM228 419h-1c-25 0 -38 -19 -48 -40c-12 -26 -20 -83 -20 -155c0 -76 8 -143 23 -181c11 -27 29 -42 53 -42c21 0 39 12 49 41c10 34 16 92 16 165
c0 74 -8 136 -19 167c-11 29 -26 45 -53 45zM231 661l11 4c10 -31 40 -102 101 -181l-7 -10c-29 20 -71 58 -100 91c-30 -33 -70 -71 -100 -91l-7 10c62 79 93 150 102 177z" />
    <glyph glyph-name="otilde" unicode="&#xf5;" horiz-adv-x="456" 
d="M232 433h1c135 0 198 -98 198 -218c0 -141 -79 -228 -204 -228c-142 0 -202 101 -202 220c0 129 70 226 207 226zM228 419h-1c-25 0 -38 -19 -48 -40c-12 -26 -20 -83 -20 -155c0 -76 8 -143 23 -181c11 -27 29 -42 53 -42c21 0 39 12 49 41c10 34 16 92 16 165
c0 74 -8 136 -19 167c-11 29 -26 45 -53 45zM135 498l-13 4c2 43 18 99 66 99c15 0 30 -6 58 -27c26 -20 40 -25 47 -25c15 0 28 15 31 56l13 -5c-3 -48 -19 -102 -66 -102c-15 0 -32 8 -59 30c-18 13 -30 22 -44 22c-18 0 -30 -18 -33 -52z" />
    <glyph glyph-name="odieresis" unicode="&#xf6;" horiz-adv-x="456" 
d="M232 433h1c135 0 198 -98 198 -218c0 -141 -79 -228 -204 -228c-142 0 -202 101 -202 220c0 129 70 226 207 226zM228 419h-1c-25 0 -38 -19 -48 -40c-12 -26 -20 -83 -20 -155c0 -76 8 -143 23 -181c11 -27 29 -42 53 -42c21 0 39 12 49 41c10 34 16 92 16 165
c0 74 -8 136 -19 167c-11 29 -26 45 -53 45zM148 617h1c32 0 51 -22 51 -55c0 -38 -30 -57 -54 -57c-25 0 -52 15 -52 54c0 35 22 58 54 58zM308 617h1c32 0 51 -20 51 -53c0 -38 -28 -59 -52 -59c-28 0 -54 16 -54 54c0 36 23 58 54 58z" />
    <glyph glyph-name="divide" unicode="&#xf7;" horiz-adv-x="420" 
d="M210 129h1c20 0 35 -15 35 -35c0 -18 -15 -34 -35 -34c-18 0 -35 16 -35 34c0 19 17 35 34 35zM210 291h-1c-16 0 -33 16 -33 35c0 18 17 35 35 35c20 0 35 -17 35 -35c0 -20 -15 -35 -36 -35zM40 230h341v-40h-341v40z" />
    <glyph glyph-name="oslash" unicode="&#xf8;" horiz-adv-x="456" 
d="M369 448l24 -10l-33 -46c48 -39 72 -109 72 -179c0 -123 -77 -226 -207 -226c-46 0 -85 10 -112 29l-29 -45l-23 10l35 49c-48 40 -71 108 -71 173c0 129 76 230 209 230c44 0 79 -8 108 -27zM158 209v-1c0 -26 3 -61 7 -87c42 71 89 150 126 218c-6 27 -17 81 -58 81
c-25 1 -39 -16 -51 -39c-12 -25 -24 -85 -24 -172zM302 216v1c0 32 -2 58 -5 88l-127 -219c6 -28 19 -85 59 -85c26 0 43 13 53 39c13 36 20 96 20 176z" />
    <glyph glyph-name="ugrave" unicode="&#xf9;" horiz-adv-x="474" 
d="M247 406v12c28 0 69 1 103 5c34 2 59 5 69 5c-2 -23 -3 -69 -3 -133v-128c0 -52 0 -90 4 -126c2 -23 6 -26 48 -25v-12c-28 -1 -55 -4 -92 -8c-37 -3 -63 -7 -78 -9c-1 23 -3 60 -4 77c-24 -28 -73 -77 -146 -77c-52 0 -79 26 -86 49c-5 13 -7 31 -7 52c0 76 1 156 2 229
c0 39 0 54 -2 70c-2 19 -9 20 -44 20l1 13c28 0 64 1 96 3s60 4 78 6c-4 -22 -9 -69 -9 -192c0 -105 0 -148 4 -174c2 -21 14 -33 33 -33c39 0 61 31 72 61c8 19 8 35 8 54v155c0 40 0 64 -2 88c-1 14 -13 16 -45 18zM260 476l-10 -5l-107 105c-11 12 -24 30 -24 49
c0 26 18 33 28 33c23 0 36 -18 46 -39c16 -30 51 -110 67 -143z" />
    <glyph glyph-name="uacute" unicode="&#xfa;" horiz-adv-x="474" 
d="M247 406v12c28 0 69 1 103 5c34 2 59 5 69 5c-2 -23 -3 -69 -3 -133v-128c0 -52 0 -90 4 -126c2 -23 6 -26 48 -25v-12c-28 -1 -55 -4 -92 -8c-37 -3 -63 -7 -78 -9c-1 23 -3 60 -4 77c-24 -28 -73 -77 -146 -77c-52 0 -79 26 -86 49c-5 13 -7 31 -7 52c0 76 1 156 2 229
c0 39 0 54 -2 70c-2 19 -9 20 -44 20l1 13c28 0 64 1 96 3s60 4 78 6c-4 -22 -9 -69 -9 -192c0 -105 0 -148 4 -174c2 -21 14 -33 33 -33c39 0 61 31 72 61c8 19 8 35 8 54v155c0 40 0 64 -2 88c-1 14 -13 16 -45 18zM216 474l-11 6c19 34 59 112 75 142c12 21 30 39 51 39
c17 0 24 -15 23 -33c-1 -15 -15 -35 -29 -50c-27 -28 -67 -64 -109 -104z" />
    <glyph glyph-name="ucircumflex" unicode="&#xfb;" horiz-adv-x="474" 
d="M247 406v12c28 0 69 1 103 5c34 2 59 5 69 5c-2 -23 -3 -69 -3 -133v-128c0 -52 0 -90 4 -126c2 -23 6 -26 48 -25v-12c-28 -1 -55 -4 -92 -8c-37 -3 -63 -7 -78 -9c-1 23 -3 60 -4 77c-24 -28 -73 -77 -146 -77c-52 0 -79 26 -86 49c-5 13 -7 31 -7 52c0 76 1 156 2 229
c0 39 0 54 -2 70c-2 19 -9 20 -44 20l1 13c28 0 64 1 96 3s60 4 78 6c-4 -22 -9 -69 -9 -192c0 -105 0 -148 4 -174c2 -21 14 -33 33 -33c39 0 61 31 72 61c8 19 8 35 8 54v155c0 40 0 64 -2 88c-1 14 -13 16 -45 18zM231 661l11 4c10 -31 40 -102 101 -181l-7 -10
c-29 20 -71 58 -100 91c-30 -33 -70 -71 -100 -91l-7 10c62 79 93 150 102 177z" />
    <glyph glyph-name="udieresis" unicode="&#xfc;" horiz-adv-x="474" 
d="M247 406v12c28 0 69 1 103 5c34 2 59 5 69 5c-2 -23 -3 -69 -3 -133v-128c0 -52 0 -90 4 -126c2 -23 6 -26 48 -25v-12c-28 -1 -55 -4 -92 -8c-37 -3 -63 -7 -78 -9c-1 23 -3 60 -4 77c-24 -28 -73 -77 -146 -77c-52 0 -79 26 -86 49c-5 13 -7 31 -7 52c0 76 1 156 2 229
c0 39 0 54 -2 70c-2 19 -9 20 -44 20l1 13c28 0 64 1 96 3s60 4 78 6c-4 -22 -9 -69 -9 -192c0 -105 0 -148 4 -174c2 -21 14 -33 33 -33c39 0 61 31 72 61c8 19 8 35 8 54v155c0 40 0 64 -2 88c-1 14 -13 16 -45 18zM158 617h1c32 0 51 -22 51 -55c0 -38 -30 -57 -54 -57
c-25 0 -52 15 -52 54c0 35 22 58 54 58zM318 617h1c32 0 51 -20 51 -53c0 -38 -28 -59 -52 -59c-28 0 -54 16 -54 54c0 36 23 58 54 58z" />
    <glyph glyph-name="yacute" unicode="&#xfd;" horiz-adv-x="375" 
d="M-14 411v12c32 -1 63 -3 102 -3c49 0 89 2 112 3l3 -12l-23 -4c-16 -2 -18 -5 -13 -21c18 -60 71 -201 86 -249c20 62 49 171 63 229c8 32 0 36 -31 41l-26 4l1 12c18 0 44 -3 70 -3c24 0 58 3 75 3l-1 -12c-39 -2 -47 -6 -65 -58c-31 -90 -97 -300 -137 -429
c-32 -105 -54 -156 -110 -156c-37 0 -58 25 -58 58s22 54 48 54c15 0 26 -7 30 -18c7 -16 12 -23 23 -23c28 0 53 105 62 137c-11 7 -22 27 -30 49c-43 124 -107 297 -131 351c-11 22 -15 29 -31 32zM197 474l-11 6c19 34 59 112 75 142c12 21 30 39 51 39
c17 0 24 -15 23 -33c-1 -15 -15 -35 -29 -50c-27 -28 -67 -64 -109 -104z" />
    <glyph glyph-name="thorn" unicode="&#xfe;" horiz-adv-x="466" 
d="M-12 -224l4 13c44 5 52 9 54 28c3 40 6 112 6 235v440c0 76 -1 111 -2 133c-1 17 -7 21 -48 20l5 13c20 0 135 7 169 18c-3 -25 -2 -136 -2 -305c34 28 76 62 133 62c46 0 79 -21 101 -56c20 -33 33 -88 33 -142c0 -173 -83 -247 -191 -247c-32 0 -60 8 -79 24
c0 -90 0 -135 3 -187c1 -26 6 -32 58 -34l-4 -12c-15 0 -56 3 -116 2c-64 0 -101 -3 -124 -5zM234 3h1c66 0 74 146 74 220c0 56 -8 113 -22 138c-10 19 -25 31 -47 31s-44 -14 -58 -45c-5 -12 -8 -26 -8 -42c-3 -92 -2 -147 -2 -226c0 -16 2 -32 11 -45
c13 -19 28 -31 51 -31z" />
    <glyph glyph-name="ydieresis" unicode="&#xff;" horiz-adv-x="375" 
d="M-14 411v12c32 -1 63 -3 102 -3c49 0 89 2 112 3l3 -12l-23 -4c-16 -2 -18 -5 -13 -21c18 -60 71 -201 86 -249c20 62 49 171 63 229c8 32 0 36 -31 41l-26 4l1 12c18 0 44 -3 70 -3c24 0 58 3 75 3l-1 -12c-39 -2 -47 -6 -65 -58c-31 -90 -97 -300 -137 -429
c-32 -105 -54 -156 -110 -156c-37 0 -58 25 -58 58s22 54 48 54c15 0 26 -7 30 -18c7 -16 12 -23 23 -23c28 0 53 105 62 137c-11 7 -22 27 -30 49c-43 124 -107 297 -131 351c-11 22 -15 29 -31 32zM129 617h1c32 0 51 -22 51 -55c0 -38 -30 -57 -54 -57
c-25 0 -52 15 -52 54c0 35 22 58 54 58zM289 617h1c32 0 51 -20 51 -53c0 -38 -28 -59 -52 -59c-28 0 -54 16 -54 54c0 36 23 58 54 58z" />
    <glyph glyph-name="dotlessi" unicode="&#x131;" horiz-adv-x="246" 
d="M233 9l-1 -12c-28 0 -61 3 -114 3c-54 0 -81 -3 -102 -3v12c38 2 44 9 46 29c2 18 3 52 3 122v112c0 44 -1 94 -2 109c-2 16 -9 20 -46 19l1 12c53 3 121 7 172 19c-2 -22 -3 -62 -3 -157v-116c0 -72 1 -95 3 -118c2 -24 7 -27 43 -31z" />
    <glyph glyph-name="Lslash" unicode="&#x141;" horiz-adv-x="463" 
d="M33 616l1 12c25 0 85 -3 127 -3c47 0 84 3 122 3l3 -12l-39 -4c-17 -2 -23 -7 -23 -24c-1 -35 -4 -91 -4 -175v-58c26 16 62 40 84 55l18 -14c-15 -10 -68 -41 -102 -64v-92c0 -92 0 -179 3 -207c1 -13 8 -17 32 -17c73 0 103 7 128 37c26 32 42 74 54 120l12 -1
c-6 -42 -12 -120 -18 -177c-16 2 -54 4 -104 5c-49 1 -111 1 -172 1c-37 0 -120 -3 -137 -3v11l39 4c19 2 26 9 28 25c3 30 4 87 4 157v72c-17 -11 -36 -22 -55 -35l-17 14c23 13 51 30 72 44v137c0 105 -1 143 -2 165c0 15 -7 19 -23 21z" />
    <glyph glyph-name="lslash" unicode="&#x142;" horiz-adv-x="249" 
d="M23 654l1 12c54 2 123 9 171 16c-1 -29 -4 -83 -4 -212v-56c14 8 39 24 48 31l15 -16c-12 -7 -45 -27 -63 -37v-181c0 -107 0 -144 1 -169c0 -28 6 -31 46 -33l-1 -12c-25 0 -67 3 -113 3c-47 0 -84 -3 -107 -3v12c37 1 45 6 47 34c1 24 5 101 5 198v89
c-12 -7 -31 -20 -45 -29l-14 17c20 11 43 24 59 35v125c0 92 0 130 -1 151c-1 22 -5 26 -45 25z" />
    <glyph glyph-name="OE" unicode="&#x152;" horiz-adv-x="847" 
d="M183 304v-1c0 -103 13 -181 41 -231c23 -41 56 -61 94 -61c49 0 79 15 106 66c14 26 22 57 22 240c0 156 -2 181 -10 202c-15 43 -47 103 -117 103c-38 0 -63 -13 -85 -52c-33 -58 -51 -161 -51 -266zM524 625h144c29 0 54 0 74 2c21 1 36 3 44 6c-4 -34 -4 -123 -4 -165
h-12c-6 37 -13 63 -27 93c-19 40 -50 48 -125 48h-24c-11 -1 -14 -6 -15 -17c-4 -31 -6 -94 -6 -163v-90c11 -1 31 -1 44 -1c60 0 87 29 94 85h12c-6 -61 -8 -155 -3 -207l-12 1c-9 58 -23 103 -91 103c-13 0 -33 0 -44 -2v-79c0 -75 1 -165 3 -200c2 -17 5 -23 52 -23
c62 0 97 3 127 32s51 85 62 123l11 -4c-3 -31 -19 -145 -23 -173c-16 2 -37 2 -68 4c-29 1 -68 2 -116 2h-81c-53 0 -86 0 -103 -2c0 11 0 28 1 59c-35 -46 -93 -71 -154 -71c-55 0 -109 14 -141 35c-81 55 -112 163 -112 279c0 119 38 235 117 293c38 28 96 46 149 46
c63 0 114 -20 147 -66v54c23 -1 48 -2 80 -2z" />
    <glyph glyph-name="oe" unicode="&#x153;" horiz-adv-x="660" 
d="M234 419h-1c-25 1 -39 -17 -50 -39c-11 -25 -23 -82 -23 -170c0 -64 7 -127 19 -167c10 -28 25 -41 48 -41c27 0 45 12 55 40c12 35 18 97 18 177c0 78 -4 129 -14 158c-9 29 -23 42 -52 42zM639 107c-17 -67 -64 -120 -157 -120c-64 0 -106 22 -129 64
c-30 -43 -81 -64 -134 -64c-134 0 -194 98 -194 215c0 119 71 231 204 231c65 0 107 -23 135 -67c30 42 74 67 126 67c138 0 152 -120 151 -164c0 -20 -3 -34 -14 -40c-9 -6 -41 -9 -72 -11c-34 -1 -86 -1 -134 -2c-2 -62 7 -102 20 -136c13 -39 38 -59 84 -59
c58 0 86 42 102 90zM480 418h-1c-34 0 -55 -79 -56 -183c13 -2 25 -2 41 -2c22 0 40 3 50 6c9 4 15 15 15 40c0 68 -7 139 -49 139z" />
    <glyph glyph-name="Scaron" unicode="&#x160;" horiz-adv-x="412" 
d="M37 181l12 6c-5 -95 48 -186 140 -186c55 0 91 39 91 106c0 43 -15 71 -39 90l-132 104c-51 40 -73 90 -73 149c0 118 71 190 182 190c46 0 90 -16 110 -38l19 44l9 -3c-11 -82 -13 -146 -12 -177l-12 -4c-2 93 -51 163 -113 163c-56 0 -87 -43 -87 -106
c0 -35 15 -71 43 -91c71 -58 111 -86 144 -110c46 -31 68 -76 68 -139c-1 -121 -83 -194 -212 -194c-53 0 -114 18 -144 31c6 60 5 126 6 165zM216 677l-8 -3c-11 19 -45 66 -119 112l5 9c34 -12 84 -27 118 -47c40 20 83 35 118 47l5 -9c-74 -46 -108 -92 -119 -109z" />
    <glyph glyph-name="scaron" unicode="&#x161;" horiz-adv-x="334" 
d="M278 292l-12 -4c-1 59 -35 130 -96 130c-40 0 -62 -25 -62 -60c0 -22 8 -37 28 -52c31 -21 98 -54 124 -71c37 -25 51 -58 51 -98c0 -99 -69 -149 -162 -149c-43 0 -90 11 -117 24c0 23 2 86 0 139l11 1c2 -21 7 -47 21 -78c19 -45 59 -70 99 -70c46 0 65 26 65 63
c0 20 -10 37 -30 50c-27 18 -68 43 -93 58c-53 30 -71 68 -71 117c0 83 60 141 145 141c32 0 70 -11 84 -27l12 34l10 -5c-8 -62 -8 -114 -7 -143zM179 477l-11 -4c-10 31 -40 102 -101 182l7 9c30 -20 72 -59 100 -90c30 32 71 70 100 90l7 -9c-62 -80 -93 -151 -102 -178z
" />
    <glyph glyph-name="Ydieresis" unicode="&#x178;" horiz-adv-x="459" 
d="M378 9l3 -12c-41 0 -107 3 -150 3c-58 0 -102 -3 -141 -3l-2 12c21 2 35 5 50 7c19 2 29 10 30 34c3 37 5 149 6 213c0 14 -2 26 -9 43c-21 57 -80 193 -119 264c-21 38 -28 44 -73 46l-1 12c24 0 90 -3 131 -3c60 0 104 3 131 3l2 -12l-36 -5c-15 -2 -15 -11 -10 -28
c14 -37 71 -174 106 -260c53 130 79 200 95 251c8 29 1 34 -13 36c-16 3 -32 4 -46 6l1 12c16 0 49 -3 84 -3s53 3 83 3l3 -12c-48 -3 -60 -8 -79 -44c-34 -63 -82 -183 -112 -256c-7 -16 -7 -28 -7 -46c-1 -65 0 -188 4 -233c1 -12 4 -20 18 -21c11 -1 29 -4 51 -7z
M176 773h1c29 0 45 -21 45 -46c0 -32 -24 -50 -48 -50c-21 0 -44 13 -44 45c0 30 19 51 46 51zM341 773h1c28 0 45 -21 45 -46c0 -32 -26 -50 -48 -50c-21 0 -44 13 -44 45c0 30 19 51 46 51z" />
    <glyph glyph-name="Zcaron" unicode="&#x17d;" horiz-adv-x="498" 
d="M222 624h39c46 0 83 1 114 1s61 2 90 3c-11 -45 -19 -57 -23 -66c-22 -43 -55 -112 -120 -250c-65 -142 -102 -213 -139 -296c193 0 209 8 240 46c23 28 37 72 50 126l10 -5c-5 -43 -17 -110 -18 -189c-28 3 -61 5 -96 5c-36 0 -66 1 -105 1h-153c-41 0 -55 0 -84 -3
l-5 11l297 600h-75c-109 0 -133 -17 -152 -57c-16 -31 -25 -72 -34 -105l-10 6c6 45 11 135 7 181c18 -4 35 -6 58 -8c21 -1 56 -1 109 -1zM259 674l-8 -3c-11 19 -45 66 -119 112l5 9c34 -12 84 -27 118 -47c40 20 83 35 118 47l5 -9c-74 -46 -108 -92 -119 -109z" />
    <glyph glyph-name="zcaron" unicode="&#x17e;" horiz-adv-x="380" 
d="M47 283h-13c4 29 11 105 12 148c9 -5 22 -8 38 -9c16 -2 35 -2 56 -2h79c51 0 89 1 133 2c-2 -13 -9 -31 -18 -49l-163 -358c41 -1 66 1 100 6c44 7 60 32 83 124l11 -8c-7 -43 -15 -105 -14 -142c-20 2 -112 5 -224 5c-26 0 -49 -1 -66 -1c-17 -1 -30 -2 -37 -2l-5 8
c54 90 173 345 190 399c-33 0 -64 -2 -87 -5c-29 -4 -39 -11 -52 -41c-11 -25 -18 -56 -23 -75zM206 477l-11 -4c-10 31 -40 102 -101 182l7 9c30 -20 72 -59 100 -90c30 32 71 70 100 90l7 -9c-62 -80 -93 -151 -102 -178z" />
    <glyph glyph-name="longs" unicode="&#x17f;" horiz-adv-x="244" 
d="M14 403l2 14h51v48c1 69 18 123 52 158c31 34 68 53 114 53c67 0 96 -32 96 -71c0 -28 -24 -49 -58 -49c-17 0 -27 9 -27 29c0 39 -3 74 -29 74c-20 0 -27 -20 -29 -51c-3 -57 2 -137 2 -205v-172c0 -85 0 -142 2 -188c1 -20 6 -28 19 -31c10 -2 20 -3 31 -3l-3 -12
c-25 0 -63 3 -109 3c-34 0 -86 -3 -114 -3l1 12c39 1 46 7 47 24c2 30 4 79 4 143v221z" />
    <glyph glyph-name="florin" unicode="&#x192;" horiz-adv-x="431" 
d="M14 323l11 26c17 -2 46 -3 76 -3c18 128 44 180 74 215c47 54 92 70 141 70s91 -23 91 -69c0 -36 -26 -51 -54 -51c-13 0 -35 7 -32 25c3 12 5 24 5 37c0 30 -9 42 -26 42s-27 -18 -35 -54c-10 -45 -22 -125 -32 -215c50 0 75 1 109 3l-9 -26c-23 0 -55 2 -104 2
c-15 -116 -27 -197 -42 -269c-21 -109 -55 -159 -114 -197c-35 -22 -68 -31 -106 -31c-44 0 -77 24 -77 56c0 28 22 54 52 54c17 0 26 -8 31 -28c8 -31 20 -57 37 -57c24 0 28 20 35 67c19 128 40 302 53 405c-12 0 -40 0 -84 -2z" />
    <glyph glyph-name="circumflex" unicode="&#x2c6;" horiz-adv-x="456" 
d="M223 661l11 4c10 -31 40 -102 101 -181l-7 -10c-29 20 -71 58 -100 91c-30 -33 -70 -71 -100 -91l-7 10c62 79 93 150 102 177z" />
    <glyph glyph-name="caron" unicode="&#x2c7;" horiz-adv-x="456" 
d="M233 477l-11 -4c-10 31 -40 102 -101 182l7 9c30 -20 72 -59 100 -90c30 32 71 70 100 90l7 -9c-62 -80 -93 -151 -102 -178z" />
    <glyph glyph-name="uni02C9" unicode="&#x2c9;" horiz-adv-x="456" 
d="M128 520l9 53h191l-7 -53h-193z" />
    <glyph glyph-name="breve" unicode="&#x2d8;" horiz-adv-x="456" 
d="M138 617h13c4 -34 13 -46 26 -54c9 -7 22 -13 51 -13c30 0 42 5 53 13c10 8 20 23 24 54h13c0 -64 -9 -131 -91 -131s-91 64 -89 131z" />
    <glyph glyph-name="dotaccent" unicode="&#x2d9;" horiz-adv-x="342" 
d="M172 625h1c34 0 55 -26 55 -59c0 -41 -31 -61 -58 -61s-55 19 -55 59c0 35 23 61 57 61z" />
    <glyph glyph-name="ring" unicode="&#x2da;" horiz-adv-x="325" 
d="M166 640h1c44 0 78 -26 78 -77s-37 -79 -83 -79c-48 0 -82 27 -82 75c0 52 37 81 86 81zM163 626h-1c-29 0 -35 -39 -35 -63c0 -46 16 -65 36 -65c33 0 35 43 35 66c0 20 -5 62 -35 62z" />
    <glyph glyph-name="ogonek" unicode="&#x2db;" horiz-adv-x="456" 
d="M256 12h13c-64 -50 -79 -93 -79 -136c0 -26 16 -47 44 -47c25 0 42 8 57 26l7 -10c-13 -19 -55 -66 -112 -66c-37 0 -65 25 -65 68c0 67 81 133 135 165z" />
    <glyph glyph-name="tilde" unicode="&#x2dc;" horiz-adv-x="456" 
d="M133 498l-13 4c2 43 18 99 66 99c15 0 30 -6 58 -27c26 -20 40 -25 47 -25c15 0 28 15 31 56l13 -5c-3 -48 -19 -102 -66 -102c-15 0 -32 8 -59 30c-18 13 -30 22 -44 22c-18 0 -30 -18 -33 -52z" />
    <glyph glyph-name="hungarumlaut" unicode="&#x2dd;" horiz-adv-x="456" 
d="M163 477l-11 5c10 35 27 102 33 123c9 30 24 43 41 43c15 0 23 -13 23 -30c0 -14 -10 -32 -17 -44zM285 477l-12 5c11 38 26 97 32 120c8 30 25 45 42 45c15 0 23 -11 23 -29c0 -14 -10 -33 -17 -44c-11 -18 -38 -55 -68 -97z" />
    <glyph glyph-name="pi" unicode="&#x3c0;" horiz-adv-x="430" 
d="M222 378h-94s-1 -164 -1 -250c0 -123 -28 -142 -61 -142c-26 0 -42 17 -42 48c0 16 7 29 17 27c6 -1 12 -3 22 -2c22 1 41 13 42 83c2 100 2 144 -1 236c-63 0 -77 -10 -99 -16c0 0 -5 9 -5 11c27 21 60 47 118 47h184c23 0 103 6 115 7l-7 -52c-24 1 -44 3 -65 3v-314
c0 -28 3 -44 18 -44c12 0 31 12 43 64l14 -14c-19 -56 -60 -82 -122 -82c-51 0 -76 22 -76 98v292z" />
    <glyph glyph-name="figuredash" unicode="&#x2012;" horiz-adv-x="282" 
d="M33 283l10 54c73 -2 130 -2 207 0l-10 -54c-77 3 -135 3 -207 0z" />
    <glyph glyph-name="endash" unicode="&#x2013;" horiz-adv-x="503" 
d="M46 200l11 48c118 -1 280 -1 401 0l-11 -48c-116 1 -277 1 -401 0z" />
    <glyph glyph-name="emdash" unicode="&#x2014;" horiz-adv-x="870" 
d="M46 200l11 48c118 -1 642 -1 769 0l-11 -48c-122 1 -645 1 -769 0z" />
    <glyph glyph-name="quoteleft" unicode="&#x2018;" horiz-adv-x="184" 
d="M158 700l4 -13c-59 -7 -105 -43 -105 -101c0 -7 4 -7 7 -4c9 9 24 12 38 12c28 0 54 -20 54 -58c0 -31 -29 -58 -60 -58c-48 0 -71 39 -71 90c0 89 75 128 133 132z" />
    <glyph glyph-name="quoteright" unicode="&#x2019;" horiz-adv-x="184" 
d="M27 474l-3 12c57 7 103 43 103 101c0 7 -3 7 -6 4c-8 -9 -25 -12 -38 -12c-28 0 -54 20 -53 59c0 30 27 57 58 57c49 0 73 -39 73 -90c0 -89 -76 -128 -134 -131z" />
    <glyph glyph-name="quotesinglbase" unicode="&#x201a;" horiz-adv-x="197" 
d="M29 -101l-4 13c62 8 112 47 112 109c0 6 -5 7 -7 4c-9 -9 -27 -12 -40 -12c-32 0 -60 21 -59 62c0 32 29 62 64 62c52 0 77 -43 77 -97c0 -96 -81 -138 -143 -141z" />
    <glyph glyph-name="quotedblleft" unicode="&#x201c;" horiz-adv-x="346" 
d="M318 698l4 -12c-58 -7 -104 -43 -104 -101c0 -7 4 -7 6 -4c9 9 25 12 39 12c28 0 54 -20 53 -58c0 -31 -28 -58 -59 -58c-48 0 -72 39 -72 90c0 89 75 128 133 131zM157 698l5 -12c-59 -7 -106 -43 -106 -101c0 -7 4 -7 7 -4c9 9 24 12 39 12c28 0 53 -20 53 -58
c0 -31 -28 -58 -60 -58c-48 0 -71 39 -71 90c0 89 75 128 133 131z" />
    <glyph glyph-name="quotedblright" unicode="&#x201d;" horiz-adv-x="346" 
d="M27 474l-3 12c57 7 103 43 103 101c0 7 -3 7 -6 4c-8 -9 -25 -12 -38 -12c-28 0 -54 20 -53 59c0 30 27 57 58 57c49 0 73 -39 73 -90c0 -89 -76 -128 -134 -131zM188 474l-3 12c58 7 104 43 104 101c0 7 -4 7 -6 4c-9 -9 -26 -12 -39 -12c-28 0 -54 20 -54 59
c0 30 28 57 60 57c49 0 72 -39 72 -90c0 -89 -75 -128 -134 -131z" />
    <glyph glyph-name="quotedblbase" unicode="&#x201e;" horiz-adv-x="373" 
d="M29 -101l-4 13c62 8 112 47 112 109c0 6 -5 7 -7 4c-9 -9 -27 -12 -40 -12c-32 0 -60 21 -59 62c0 32 29 62 64 62c52 0 77 -43 77 -97c0 -96 -81 -138 -143 -141zM203 -101l-4 13c62 8 112 47 112 109c0 6 -5 7 -7 4c-9 -9 -27 -12 -40 -12c-31 0 -60 21 -59 62
c1 32 30 62 64 62c52 0 77 -43 77 -97c0 -96 -81 -138 -143 -141z" />
    <glyph glyph-name="dagger" unicode="&#x2020;" horiz-adv-x="430" 
d="M218 566c11 -16 35 -38 48 -44c6 -3 7 -6 2 -11c-18 -22 -46 -75 -48 -154c44 2 93 24 111 49c4 5 9 5 11 0c5 -12 27 -36 44 -49c4 -3 5 -8 -1 -12c-17 -12 -39 -37 -44 -48c-2 -4 -8 -4 -10 -1c-20 27 -68 49 -111 49c0 -204 20 -294 41 -365c1 -6 1 -8 -3 -9
c-15 -6 -32 -19 -41 -27c-3 -2 -5 -1 -7 0c-10 8 -26 21 -41 27c-4 1 -4 4 -3 9c20 71 40 161 40 365c-43 0 -90 -22 -110 -49c-3 -3 -9 -4 -11 1c-6 11 -27 36 -44 48c-6 4 -5 9 0 12c16 13 38 38 43 49c2 5 7 5 11 0c19 -26 67 -47 111 -49c-1 79 -29 132 -48 154
c-4 4 -3 8 1 10c15 7 37 29 50 45c3 3 5 4 9 0z" />
    <glyph glyph-name="daggerdbl" unicode="&#x2021;" horiz-adv-x="430" 
d="M218 567c10 -15 34 -37 48 -44c4 -2 5 -5 1 -11c-19 -23 -46 -75 -47 -131c44 1 91 23 110 47c4 5 9 4 11 -1c4 -11 27 -33 43 -45c5 -4 5 -9 -1 -14c-16 -12 -38 -34 -43 -45c-2 -5 -7 -5 -10 -1c-21 25 -67 47 -110 47c0 -50 18 -83 43 -105c-23 -25 -40 -55 -43 -100
c44 1 91 23 110 51c4 5 9 5 11 0c4 -12 27 -39 43 -51c5 -3 5 -8 -1 -13c-16 -12 -38 -34 -43 -45c-2 -5 -7 -5 -10 -1c-21 25 -67 46 -110 47c1 -73 29 -132 48 -157c4 -4 1 -8 -4 -10c-12 -6 -35 -28 -46 -41c-4 -4 -6 -3 -9 0c-13 13 -35 33 -47 40c-5 3 -7 7 -4 11
c18 25 47 84 48 157c-43 -1 -90 -22 -111 -47c-2 -4 -8 -4 -9 1c-6 11 -27 33 -45 45c-5 5 -5 10 0 13c17 12 39 40 43 51c2 5 8 5 11 0c19 -28 67 -50 111 -51c-3 45 -21 76 -43 100c24 22 43 55 43 105c-44 0 -90 -22 -111 -47c-2 -4 -8 -4 -10 1c-5 11 -26 33 -44 45
c-6 5 -5 10 0 14c17 12 39 34 43 45c2 6 8 6 11 1c19 -24 67 -46 111 -47c-1 56 -29 108 -47 131c-4 6 -3 9 1 10c15 8 37 30 48 45c4 3 6 4 10 0z" />
    <glyph glyph-name="bullet" unicode="&#x2022;" horiz-adv-x="272" 
d="M136 319h1c55 0 92 -45 92 -101c0 -58 -41 -98 -93 -98c-51 0 -94 40 -94 98s43 101 94 101z" />
    <glyph glyph-name="onedotenleader" unicode="&#x2024;" horiz-adv-x="326" 
d="M163 133h1c37 0 68 -32 68 -74s-31 -73 -69 -73s-69 31 -69 73s31 74 69 74z" />
    <glyph glyph-name="twodotenleader" unicode="&#x2025;" horiz-adv-x="490" 
d="M123 133h1c37 0 67 -32 67 -74s-31 -73 -68 -73c-38 0 -69 31 -69 73s31 74 69 74zM369 133h1c40 0 68 -32 68 -74s-31 -73 -69 -73c-37 0 -69 31 -69 73s32 74 69 74z" />
    <glyph glyph-name="ellipsis" unicode="&#x2026;" horiz-adv-x="781" 
d="M131 133h1c37 0 67 -32 67 -74s-31 -73 -68 -73c-38 0 -70 31 -70 73s32 74 70 74zM391 133h1c37 0 67 -32 67 -74s-31 -73 -68 -73c-38 0 -70 31 -70 73s32 74 70 74zM652 133h1c37 0 67 -32 67 -74s-31 -73 -68 -73c-38 0 -70 31 -70 73s32 74 70 74z" />
    <glyph glyph-name="perthousand" unicode="&#x2030;" horiz-adv-x="818" 
d="M105 1l-16 20l338 557c-25 -18 -54 -34 -114 -34c-31 0 -55 5 -68 11c8 -20 14 -41 14 -91c0 -90 -37 -161 -113 -161c-74 0 -116 51 -116 151c0 101 55 161 130 161c17 0 33 -5 48 -14l14 8c18 -26 51 -48 108 -48c73 0 101 35 111 49c7 9 13 18 21 29l32 5
c-72 -113 -253 -405 -389 -643zM168 597h-1c-12 0 -23 -6 -31 -17c-10 -18 -20 -59 -21 -122c-1 -56 7 -103 20 -121c7 -9 18 -16 33 -16c27 0 62 42 62 150c0 47 -10 126 -62 126zM431 330h1c81 0 102 -83 102 -152c0 -88 -36 -160 -112 -160c-73 0 -116 53 -116 149
c0 104 52 163 125 163zM445 313h-1c-14 0 -26 -6 -33 -19c-9 -16 -20 -60 -20 -121c0 -63 7 -103 20 -122c7 -10 18 -15 31 -15c33 0 62 50 62 144c0 45 -10 133 -59 133zM686 330h1c83 0 104 -78 104 -152c0 -93 -38 -160 -113 -160c-74 0 -117 58 -117 149
c0 104 52 163 125 163zM701 313h-1c-14 0 -25 -6 -33 -19c-9 -16 -19 -60 -20 -121c0 -57 8 -103 21 -122c7 -10 18 -15 30 -15c36 0 64 51 64 141c0 55 -10 136 -61 136z" />
    <glyph glyph-name="guilsinglleft" unicode="&#x2039;" horiz-adv-x="266" 
d="M212 386l11 -8c-15 -65 -52 -133 -74 -169c26 -37 65 -109 74 -163l-8 -7c-39 87 -122 153 -171 167l4 9c61 21 130 91 164 171z" />
    <glyph glyph-name="guilsinglright" unicode="&#x203a;" horiz-adv-x="266" 
d="M55 39l-11 8c15 65 52 133 74 169c-26 37 -65 109 -74 163l8 7c39 -87 122 -153 171 -167l-4 -9c-61 -21 -130 -91 -164 -171z" />
    <glyph glyph-name="fraction" unicode="&#x2044;" horiz-adv-x="81" 
d="M222 656l16 -17l-393 -633l-16 18z" />
    <glyph glyph-name="zero.superior" unicode="&#x2070;" horiz-adv-x="301" 
d="M164 779h1c90 0 126 -75 126 -161c0 -93 -37 -170 -133 -170c-94 0 -128 72 -128 163c0 89 40 168 134 168zM163 767h-1c-11 0 -19 -5 -28 -27c-10 -24 -14 -83 -14 -126s3 -93 12 -123c6 -19 16 -31 31 -31c12 0 20 11 28 29c9 29 13 82 13 126c0 52 -5 102 -13 126
c-7 18 -14 26 -28 26z" />
    <glyph glyph-name="four.superior" unicode="&#x2074;" horiz-adv-x="301" 
d="M156 563c3 70 4 133 4 165l-108 -156c16 -4 51 -9 104 -9zM25 550l-7 14c56 70 110 145 145 196c26 3 68 14 82 19l3 -2c-1 -35 -3 -110 -3 -167v-46c25 1 46 7 56 13l2 -10c-12 -11 -30 -18 -58 -23c0 -32 1 -64 2 -88c-54 -2 -78 -5 -94 -9l-3 3c3 22 3 41 5 91
c-49 0 -109 3 -130 9z" />
    <glyph glyph-name="five.superior" unicode="&#x2075;" horiz-adv-x="301" 
d="M65 583l-11 13c14 41 23 157 22 181c18 -7 53 -13 92 -13c52 0 91 1 108 30l8 -3c-9 -41 -28 -69 -47 -82c-15 -11 -43 -14 -76 -14c-29 0 -61 3 -74 6c-3 -18 -8 -59 -15 -91c11 7 24 16 40 22c16 7 36 12 59 12c64 0 111 -27 111 -91c0 -23 -8 -48 -23 -65
c-20 -22 -59 -40 -116 -40c-68 0 -108 24 -108 61c0 21 19 37 47 37c14 0 22 -13 23 -28c4 -40 19 -58 41 -58c23 0 39 22 39 83c0 30 -6 55 -23 67c-8 7 -18 10 -30 10c-30 0 -54 -14 -67 -37z" />
    <glyph glyph-name="six.superior" unicode="&#x2076;" horiz-adv-x="301" 
d="M263 776l2 -15c-10 4 -21 5 -31 5c-63 0 -108 -57 -110 -140c10 10 24 19 38 25c14 7 29 11 41 11c61 0 92 -36 92 -94c0 -82 -59 -121 -136 -121c-85 0 -130 50 -130 137c0 64 21 119 69 156c35 28 79 39 132 39c13 0 24 -2 33 -3zM164 459h1c31 0 39 56 39 100
c0 28 -6 77 -37 77c-17 0 -34 -12 -43 -36c-3 -10 -3 -22 -3 -39c0 -29 5 -102 43 -102z" />
    <glyph glyph-name="seven.superior" unicode="&#x2077;" horiz-adv-x="301" 
d="M47 644l-11 3c13 51 19 116 17 132c14 -3 32 -7 120 -7c81 0 98 0 110 1l3 -4c-7 -27 -15 -57 -31 -83c-47 -77 -88 -157 -87 -235l-6 -4c-25 1 -45 5 -56 10c-8 3 -18 10 -18 21s4 21 9 31c25 55 120 143 147 186c-22 3 -60 3 -91 3c-75 0 -85 -5 -90 -15
c-7 -12 -11 -22 -16 -39z" />
    <glyph glyph-name="eight.superior" unicode="&#x2078;" horiz-adv-x="301" 
d="M171 779h1c48 0 101 -24 101 -78c0 -16 -8 -28 -17 -36c-11 -7 -25 -16 -45 -27c66 -33 78 -56 78 -91c0 -30 -14 -54 -35 -71c-22 -17 -62 -29 -99 -29c-69 0 -119 29 -119 83c0 22 11 35 25 45c12 8 23 12 45 25c-39 22 -55 42 -55 78c0 24 7 42 18 57
c20 28 55 44 102 44zM158 767h-1c-23 0 -44 -16 -44 -47c0 -14 4 -25 18 -37c16 -13 47 -28 69 -39c12 12 19 31 19 53c0 38 -20 70 -61 70zM166 460h1c28 0 54 14 54 47c0 23 -18 43 -104 87c-11 -8 -23 -27 -23 -54c0 -37 23 -80 72 -80z" />
    <glyph glyph-name="nine.superior" unicode="&#x2079;" horiz-adv-x="301" 
d="M58 452v13c17 -2 31 -5 52 1c53 12 82 63 88 130c-19 -18 -49 -32 -77 -32c-65 0 -94 43 -94 96c0 77 58 119 135 119c91 0 132 -63 132 -147c0 -65 -26 -118 -67 -148c-38 -29 -88 -37 -129 -37c-12 0 -27 3 -40 5zM159 767h-1c-34 0 -40 -57 -40 -96
c0 -42 13 -81 41 -81c17 0 30 10 38 28c3 9 6 27 6 48c0 35 -4 101 -44 101z" />
    <glyph glyph-name="parenleft.superior" unicode="&#x207d;" horiz-adv-x="226" 
d="M206 361l-6 -12c-28 12 -58 31 -85 60c-44 46 -67 117 -67 200c0 86 23 156 67 204c24 26 57 45 85 58l6 -11c-29 -13 -61 -45 -76 -122c-6 -34 -8 -74 -8 -129c0 -52 2 -95 8 -128c15 -77 47 -108 76 -120z" />
    <glyph glyph-name="parenright.superior" unicode="&#x207e;" horiz-adv-x="226" 
d="M40 858l7 12c29 -13 60 -31 85 -58c45 -48 67 -118 67 -203c0 -84 -23 -154 -67 -202c-26 -27 -57 -46 -85 -59l-7 12c30 12 66 43 78 122c5 32 7 73 7 127c0 53 -2 96 -7 128c-13 78 -48 109 -78 121z" />
    <glyph glyph-name="n.superior" unicode="&#x207f;" horiz-adv-x="361" 
d="M16 306v11c31 2 35 3 36 18c2 15 2 35 2 66v60c0 33 -1 54 -3 72c-1 8 -4 9 -35 9l1 11c27 -1 94 4 119 8c2 -12 5 -32 8 -44c23 20 52 44 95 44c37 0 52 -17 60 -30c7 -13 9 -25 9 -43v-105c0 -22 0 -35 1 -48s5 -17 36 -18l-2 -11c-17 0 -50 2 -78 2
c-34 0 -61 -2 -70 -2v11c17 2 20 4 22 20c1 16 2 35 2 64c0 89 -1 102 -4 114c-4 10 -11 17 -22 17c-15 0 -32 -10 -43 -34c-5 -11 -7 -18 -7 -33v-81c0 -23 1 -36 2 -51c0 -11 4 -14 26 -16l-1 -11c-13 0 -40 2 -68 2c-30 0 -69 -2 -86 -2z" />
    <glyph glyph-name="zero.inferior" unicode="&#x2080;" horiz-adv-x="301" 
d="M114 227h1c90 0 126 -75 126 -161c0 -93 -37 -170 -133 -170c-94 0 -128 72 -128 163c0 89 40 168 134 168zM113 215h-1c-11 0 -19 -5 -28 -27c-10 -24 -14 -83 -14 -126s3 -93 12 -123c6 -19 16 -31 31 -31c12 0 20 11 28 29c9 29 13 82 13 126c0 52 -5 102 -13 126
c-7 18 -14 26 -28 26z" />
    <glyph glyph-name="one.inferior" unicode="&#x2081;" horiz-adv-x="301" 
d="M209 -86v-13c-32 0 -67 3 -99 3c-39 0 -72 -3 -91 -3l-2 12l32 4c14 1 20 6 21 13c1 10 3 34 3 74v116c0 34 0 58 -2 70c-1 5 -4 7 -8 6c-10 -2 -25 -3 -45 -7l3 15c43 6 113 16 138 24l2 -2c0 -18 -2 -49 -2 -106v-116c0 -43 1 -60 2 -74c1 -5 4 -11 14 -12z" />
    <glyph glyph-name="two.inferior" unicode="&#x2082;" horiz-adv-x="301" 
d="M235 25l12 -6c-16 -50 -19 -99 -20 -119c-15 1 -39 3 -174 3c-30 0 -55 0 -67 -1l-2 4l17 48c76 40 109 83 120 126c5 19 7 40 7 68c0 37 -7 65 -32 65s-32 -20 -32 -54c0 -12 3 -25 4 -33s1 -12 -7 -18s-22 -8 -28 -8c-23 0 -43 12 -43 43c0 21 13 40 32 56
c20 17 58 28 89 28c34 0 63 -8 80 -21c24 -18 35 -41 35 -74c0 -32 -11 -53 -37 -73c-24 -19 -75 -52 -133 -87c88 3 139 6 149 7c8 1 11 3 15 10c3 7 11 24 15 36z" />
    <glyph glyph-name="three.inferior" unicode="&#x2083;" horiz-adv-x="301" 
d="M112 227h1c50 0 108 -17 108 -75c0 -30 -19 -47 -39 -57c-16 -7 -41 -14 -71 -21v-3c49 -3 81 -12 100 -26c18 -12 27 -28 27 -53c0 -34 -19 -55 -39 -68c-18 -14 -56 -28 -105 -28c-68 0 -112 26 -112 63c0 22 21 39 46 39c16 0 22 -8 23 -26c4 -45 24 -64 46 -64
c28 0 41 27 41 77c0 42 -13 77 -54 77c-12 0 -20 -1 -31 -5l-10 12l1 3c24 0 44 4 54 10c21 10 32 33 31 69c0 35 -10 63 -35 63c-21 0 -35 -13 -35 -50c0 -6 2 -16 3 -23c1 -17 -12 -22 -29 -22c-20 0 -40 9 -40 32c0 34 40 76 119 76z" />
    <glyph glyph-name="four.inferior" unicode="&#x2084;" horiz-adv-x="301" 
d="M106 11c3 70 4 133 4 165l-108 -156c16 -4 51 -9 104 -9zM-25 -2l-7 14c56 70 110 145 145 196c26 3 68 14 82 19l3 -2c-1 -35 -3 -110 -3 -167v-46c25 1 46 7 56 13l2 -10c-12 -11 -30 -18 -58 -23c0 -32 1 -64 2 -88c-54 -2 -78 -5 -94 -9l-3 3c3 22 3 41 5 91
c-49 0 -109 3 -130 9z" />
    <glyph glyph-name="five.inferior" unicode="&#x2085;" horiz-adv-x="301" 
d="M15 31l-11 13c14 41 23 157 22 181c18 -7 53 -13 92 -13c52 0 91 1 108 30l8 -3c-9 -41 -28 -69 -47 -82c-15 -11 -43 -14 -76 -14c-29 0 -61 3 -74 6c-3 -18 -8 -59 -15 -91c21 14 52 34 99 34c64 0 111 -27 111 -91c0 -23 -8 -48 -23 -65c-20 -22 -59 -40 -116 -40
c-68 0 -108 24 -108 61c0 21 19 37 47 37c14 0 22 -13 23 -28c4 -40 19 -58 41 -58c23 0 39 22 39 83c0 30 -6 55 -23 67c-8 7 -18 10 -30 10c-30 0 -54 -14 -67 -37z" />
    <glyph glyph-name="six.inferior" unicode="&#x2086;" horiz-adv-x="301" 
d="M213 224l2 -15c-10 4 -21 5 -31 5c-63 0 -108 -57 -110 -140c20 19 55 36 79 36c61 0 92 -36 92 -94c0 -82 -59 -121 -136 -121c-85 0 -130 50 -130 137c0 64 21 119 69 156c35 28 79 39 132 39c13 0 24 -2 33 -3zM114 -93h1c31 0 39 56 39 100c0 28 -6 77 -37 77
c-17 0 -34 -12 -43 -36c-3 -10 -3 -22 -3 -39c0 -29 5 -102 43 -102z" />
    <glyph glyph-name="seven.inferior" unicode="&#x2087;" horiz-adv-x="301" 
d="M-3 92l-11 3c13 51 19 116 17 132c14 -3 32 -7 120 -7c81 0 98 0 110 1l3 -4c-7 -27 -15 -57 -31 -83c-47 -77 -88 -157 -87 -235l-6 -4c-25 1 -45 5 -56 10c-8 3 -18 10 -18 21s4 21 9 31c25 55 120 143 147 186c-22 3 -60 3 -91 3c-75 0 -85 -5 -90 -15
c-7 -12 -11 -22 -16 -39z" />
    <glyph glyph-name="eight.inferior" unicode="&#x2088;" horiz-adv-x="301" 
d="M121 227h1c48 0 101 -24 101 -78c0 -16 -8 -28 -17 -36c-11 -7 -25 -16 -45 -27c66 -33 78 -56 78 -91c0 -30 -14 -54 -35 -71c-22 -17 -62 -29 -99 -29c-69 0 -119 29 -119 83c0 22 11 35 25 45c12 8 23 12 45 25c-39 22 -55 42 -55 78c0 24 7 42 18 57
c20 28 55 44 102 44zM108 215h-1c-23 0 -44 -16 -44 -47c0 -14 4 -25 18 -37c16 -13 47 -28 69 -39c12 12 19 31 19 53c0 38 -20 70 -61 70zM116 -92h1c28 0 54 14 54 47c0 23 -18 43 -104 87c-11 -8 -23 -27 -23 -54c0 -37 23 -80 72 -80z" />
    <glyph glyph-name="nine.inferior" unicode="&#x2089;" horiz-adv-x="301" 
d="M8 -100v13c17 -2 31 -5 52 1c53 12 82 63 88 130c-19 -18 -49 -32 -77 -32c-65 0 -94 43 -94 96c0 77 58 119 135 119c91 0 132 -63 132 -147c0 -65 -26 -118 -67 -148c-38 -29 -88 -37 -129 -37c-12 0 -27 3 -40 5zM109 215h-1c-34 0 -40 -57 -40 -96
c0 -42 13 -81 41 -81c17 0 30 10 38 28c3 9 6 27 6 48c0 35 -4 101 -44 101z" />
    <glyph glyph-name="parenleft.inferior" unicode="&#x208d;" horiz-adv-x="226" 
d="M156 -191l-6 -12c-28 12 -58 31 -85 60c-44 46 -67 117 -67 200c0 86 23 156 67 204c24 26 57 45 85 58l6 -11c-29 -13 -61 -45 -76 -122c-6 -34 -8 -74 -8 -129c0 -52 2 -95 8 -128c15 -77 47 -108 76 -120z" />
    <glyph glyph-name="parenright.inferior" unicode="&#x208e;" horiz-adv-x="226" 
d="M-10 306l7 12c29 -13 60 -31 85 -58c45 -48 67 -118 67 -203c0 -84 -23 -154 -67 -202c-26 -27 -57 -46 -85 -59l-7 12c30 12 66 43 78 122c5 32 7 73 7 127c0 53 -2 96 -7 128c-13 78 -48 109 -78 121z" />
    <glyph glyph-name="colonmonetary" unicode="&#x20a1;" horiz-adv-x="434" 
d="M158 301v-1c0 -106 12 -208 52 -244c11 184 25 353 36 537c-79 -26 -88 -230 -88 -292zM324 608c39 -9 88 -35 88 -85c0 -41 -26 -46 -40 -46c-3 0 -15 1 -19 5c-3 4 -10 10 -8 19c2 10 6 21 6 33c0 20 -5 51 -29 57c-13 -181 -26 -375 -36 -556c47 7 91 32 116 109
l11 -7c-21 -75 -69 -115 -129 -127l-5 -90l-23 -8l8 95c-14 -1 -22 -1 -37 1c-1 -20 -3 -51 -6 -88l-23 -8l10 99c-145 22 -183 164 -183 289c0 148 68 300 222 312l4 77l22 5l-6 -80c18 0 29 -2 38 -2l4 77l23 5zM304 596c-9 2 -21 3 -38 2c-15 -181 -26 -365 -38 -553
c11 -6 25 -11 37 -10c13 187 28 373 39 561z" />
    <glyph glyph-name="Euro" unicode="&#x20ac;" horiz-adv-x="431" 
d="M193 356l172 2l-7 -24l-166 1c0 -15 -1 -34 -1 -49l152 2l-6 -25l-145 3c1 -91 19 -243 110 -243c47 0 79 17 107 100l11 -6c-31 -101 -80 -130 -159 -130c-154 0 -194 137 -201 278h-51l8 21h42c0 14 1 34 2 49h-35l7 21h30c14 129 81 261 225 261
c100 0 128 -45 128 -89c0 -33 -24 -53 -50 -53c-6 0 -20 1 -27 7c-8 7 -11 17 -8 26c3 11 5 25 5 37c0 33 -15 57 -48 57c-78 0 -92 -178 -95 -246z" />
    <glyph glyph-name="afii61289" unicode="&#x2113;" horiz-adv-x="353" 
d="M324 129l11 -5c-24 -111 -75 -132 -137 -132c-99 0 -118 70 -118 168c-1 2 0 42 0 44c-15 -11 -32 -18 -48 -28l-8 12c23 17 36 24 54 38v197c0 226 84 261 131 261c48 0 77 -38 77 -127c0 -73 -18 -175 -110 -286v-96c0 -99 19 -137 58 -137c42 0 67 16 90 91zM176 532
v-222c49 75 74 163 74 254c0 33 -11 105 -44 105c-16 0 -30 -22 -30 -137z" />
    <glyph glyph-name="trademark" unicode="&#x2122;" horiz-adv-x="231" 
d="M42 606h15c20 0 31 0 36 3c0 -3 -3 -17 -1 -36l-4 -2c-2 15 -5 22 -7 25c-3 3 -6 5 -20 4v-44c0 -19 1 -30 1 -34c1 -3 2 -5 17 -5v-5c-6 0 -20 1 -34 1c-8 0 -15 -1 -25 -1l-1 5c16 0 16 2 16 5c1 6 1 15 1 35v43c-14 0 -16 -1 -18 -5c-4 -8 -6 -17 -8 -25l-5 1
c3 12 4 30 4 38c5 -2 17 -3 33 -3zM99 602v5c13 -1 18 -1 22 -1c9 0 14 0 18 1c2 -9 15 -38 23 -57c8 18 20 50 22 57c4 -1 10 -1 18 -1c10 0 14 1 20 1v-5c-11 -1 -11 -2 -12 -5c0 -3 -1 -10 -1 -18c0 -21 1 -49 3 -56c0 -4 1 -6 12 -6v-5c-4 0 -16 1 -26 1s-22 -1 -26 -1
v5c11 0 12 2 12 6c1 4 2 39 3 72h-1c-13 -37 -24 -68 -30 -80l-9 -3c-5 19 -23 60 -28 81h-1c-2 -29 -2 -49 -2 -62c0 -8 1 -13 7 -14l9 -1v-4c-8 0 -15 1 -22 1c-8 0 -15 -1 -18 -1v5c11 0 14 2 15 12c1 12 5 38 5 66v3c0 2 -1 3 -3 3z" />
    <glyph glyph-name="Omega" unicode="&#x2126;" horiz-adv-x="603" 
d="M243 84v5c-113 37 -193 120 -193 278c0 183 106 273 258 273c147 0 246 -91 246 -271c0 -154 -83 -236 -194 -280v-5h105c66 0 85 10 104 80l13 -2c-2 -32 -24 -141 -34 -165c-24 0 -22 3 -71 3h-157l-5 6c4 18 12 61 16 79c49 36 79 154 79 278c0 174 -27 263 -109 263
c-70 0 -107 -71 -107 -269c0 -115 19 -227 76 -272c3 -18 8 -61 10 -79l-2 -6h-150c-49 0 -58 -3 -82 -3c-8 26 -23 134 -25 162l13 4c23 -75 37 -79 103 -79h106z" />
    <glyph glyph-name="estimated" unicode="&#x212e;" horiz-adv-x="829" 
d="M760 288h-559c-3 0 -5 -1 -5 -4v-169c0 -7 3 -15 8 -20c53 -56 128 -91 212 -91c89 0 168 40 222 103h49c-63 -73 -162 -121 -273 -121c-190 0 -345 138 -345 310c0 173 155 311 345 311s346 -138 346 -311v-8zM633 309v171c0 8 -4 16 -9 21c-53 54 -126 88 -208 88
c-83 0 -158 -35 -211 -90c-5 -5 -9 -14 -9 -22v-168c0 -3 2 -4 5 -4h428c3 0 4 1 4 4z" />
    <glyph glyph-name="onethird" unicode="&#x2153;" horiz-adv-x="612" 
d="M231 318v-13c-32 0 -67 3 -99 3c-39 0 -72 -3 -91 -3l-2 12l32 4c14 1 20 6 21 12c1 11 3 35 3 74v117c0 34 0 58 -2 70c-1 5 -4 7 -8 6c-10 -2 -25 -3 -45 -7l3 15c43 6 113 16 138 24l2 -2c0 -18 -2 -50 -2 -106v-117c0 -42 1 -59 2 -73c1 -6 4 -11 14 -12zM482 656
l16 -17l-392 -630l-16 17zM457 373h1c49 0 107 -17 107 -74c0 -31 -19 -48 -39 -58c-16 -7 -40 -14 -70 -21v-3c48 -3 80 -12 99 -26c18 -12 27 -28 27 -53c0 -34 -19 -55 -39 -68c-18 -14 -56 -28 -105 -28c-68 0 -112 26 -112 63c0 22 21 39 46 39c16 0 22 -8 23 -26
c4 -45 24 -64 46 -64c28 0 41 27 41 77c0 42 -13 77 -54 77c-12 0 -20 -1 -32 -4l-10 11l2 4c24 -1 44 3 54 9c21 10 32 33 31 70c0 34 -10 62 -35 62c-21 0 -35 -13 -35 -50c0 -6 2 -15 3 -23c1 -16 -12 -22 -29 -22c-20 0 -40 9 -40 33c0 35 40 75 120 75z" />
    <glyph glyph-name="twothirds" unicode="&#x2154;" horiz-adv-x="612" 
d="M269 429l12 -6c-16 -50 -19 -99 -20 -119c-15 1 -39 3 -174 3c-30 0 -55 0 -67 -1l-2 4l17 48c76 40 109 83 120 126c5 19 7 40 7 67c0 38 -7 66 -32 66s-32 -20 -32 -54c0 -12 3 -25 4 -33s1 -12 -7 -18s-22 -8 -28 -8c-23 0 -43 12 -43 43c0 21 13 40 32 56
c20 17 58 28 89 28c34 0 63 -8 80 -21c24 -18 35 -41 35 -74c0 -32 -11 -53 -37 -73c-24 -19 -75 -52 -133 -87c88 2 139 6 149 7c8 1 11 3 15 10c3 7 11 24 15 36zM504 656l16 -17l-392 -630l-16 17zM465 373h1c50 0 108 -18 108 -75c0 -30 -19 -47 -39 -57
c-16 -7 -40 -15 -70 -21v-3c48 -3 80 -12 99 -26c18 -12 27 -28 27 -53c0 -34 -19 -55 -39 -68c-18 -14 -56 -28 -105 -28c-68 0 -112 26 -112 63c0 22 21 39 46 39c16 0 22 -8 23 -26c4 -45 24 -64 46 -64c28 0 41 27 41 77c0 42 -13 77 -54 77c-12 0 -20 -1 -32 -4l-10 11
l2 3c24 0 44 4 54 10c21 10 32 33 31 69c0 34 -10 63 -35 63c-21 0 -35 -13 -35 -51c0 -6 2 -15 3 -22c1 -17 -12 -22 -29 -22c-20 0 -40 8 -40 32c0 33 40 76 119 76z" />
    <glyph glyph-name="oneeighth" unicode="&#x215b;" horiz-adv-x="612" 
d="M230 318l1 -13c-32 0 -67 3 -99 3c-39 0 -72 -3 -91 -3l-2 12l32 4c14 1 20 6 21 13c1 10 3 35 3 74v116c0 34 0 58 -2 70c-1 5 -4 7 -8 6c-10 -2 -25 -3 -45 -7l3 15c43 6 113 16 138 24l2 -2c0 -18 -2 -49 -2 -106v-116c0 -42 1 -60 2 -74c1 -5 4 -11 14 -12zM482 656
l16 -17l-390 -631l-16 18zM453 374h1c48 0 101 -24 101 -78c0 -18 -10 -31 -19 -38c-10 -8 -25 -16 -42 -25c65 -33 78 -56 78 -91c0 -30 -14 -54 -36 -71c-21 -17 -61 -29 -98 -29c-70 0 -119 29 -119 83c0 22 12 36 26 46c13 8 22 12 43 24c-39 22 -55 43 -55 78
c0 24 7 42 18 57c20 28 55 44 102 44zM440 362h-1c-23 0 -44 -16 -44 -47c0 -14 5 -25 18 -37c16 -13 47 -28 69 -39c12 12 20 32 20 53c0 38 -21 70 -62 70zM451 55h1c28 0 52 14 52 47c0 23 -18 44 -105 87c-11 -8 -22 -27 -22 -54c0 -37 24 -80 74 -80z" />
    <glyph glyph-name="threeeighths" unicode="&#x215c;" horiz-adv-x="612" 
d="M154 631h1c50 0 108 -17 108 -75c0 -30 -19 -47 -39 -57c-16 -7 -41 -14 -71 -21v-3c49 -3 81 -12 100 -26c18 -12 27 -28 27 -53c0 -33 -19 -54 -39 -68c-18 -14 -56 -28 -105 -28c-69 0 -113 27 -113 64c0 22 21 38 46 38c16 0 22 -7 23 -25c4 -46 24 -65 47 -65
c28 0 41 28 41 78c0 41 -13 76 -54 76c-12 0 -21 -1 -32 -5l-10 12l1 3c24 0 44 4 55 10c21 10 32 33 31 69c0 35 -10 63 -36 63c-20 0 -35 -13 -35 -50c0 -6 2 -16 3 -23c1 -17 -12 -22 -29 -22c-20 0 -40 9 -40 32c0 34 40 76 120 76zM496 656l16 -17l-392 -631l-16 18z
M464 374h1c48 0 101 -24 101 -78c0 -18 -10 -30 -19 -38c-10 -8 -25 -16 -42 -25c65 -33 78 -56 78 -91c0 -30 -14 -54 -36 -71c-21 -17 -61 -29 -98 -29c-70 0 -119 29 -119 83c0 22 12 36 26 46c13 8 22 12 43 24c-39 22 -55 43 -55 79c0 23 7 40 18 55
c20 29 55 45 102 45zM451 362h-1c-23 0 -44 -17 -44 -48c0 -13 5 -24 18 -36c16 -13 47 -28 69 -39c12 12 20 32 20 54c0 37 -21 69 -62 69zM462 55h1c28 0 52 14 52 47c0 23 -18 44 -105 87c-11 -8 -22 -26 -22 -54c0 -37 24 -80 74 -80z" />
    <glyph glyph-name="fiveeighths" unicode="&#x215d;" horiz-adv-x="612" 
d="M63 435l-11 13c14 41 23 157 22 181c18 -7 53 -13 91 -13c52 0 91 2 108 31l8 -4c-9 -41 -28 -69 -47 -82c-15 -11 -43 -14 -76 -14c-28 0 -60 3 -73 6c-3 -18 -8 -59 -15 -91c21 14 52 34 98 34c64 0 111 -27 111 -91c0 -23 -8 -47 -23 -64c-20 -23 -59 -41 -115 -41
c-68 0 -108 24 -108 62c0 20 19 36 47 36c14 0 21 -12 23 -28c4 -40 19 -58 40 -58c24 0 39 22 39 83c0 30 -6 55 -23 67c-7 7 -17 10 -30 10c-29 0 -53 -14 -66 -37zM496 656l16 -17l-391 -631l-16 18c132 206 299 474 391 630zM464 374h1c48 0 101 -24 101 -78
c0 -18 -10 -30 -19 -38c-10 -8 -25 -16 -42 -25c65 -33 78 -56 78 -91c0 -30 -14 -54 -36 -71c-21 -17 -61 -29 -98 -29c-70 0 -119 29 -119 83c0 22 12 36 26 46c13 8 22 12 43 24c-39 22 -55 43 -55 79c0 23 7 41 18 56c20 28 55 44 102 44zM451 362h-1
c-23 0 -44 -17 -44 -48c0 -13 5 -24 18 -36c16 -13 47 -28 69 -39c12 12 20 32 20 54c0 37 -21 69 -62 69zM462 55h1c28 0 52 14 52 47c0 23 -18 44 -105 87c-11 -8 -22 -26 -22 -54c0 -37 24 -80 74 -80z" />
    <glyph glyph-name="seveneighths" unicode="&#x215e;" horiz-adv-x="612" 
d="M57 496l-11 3c13 51 19 116 17 132c14 -3 32 -7 120 -7c81 0 98 0 110 1l3 -4c-7 -27 -15 -57 -31 -83c-47 -77 -88 -157 -87 -234l-6 -5c-25 1 -45 6 -56 10c-8 3 -18 11 -18 22c0 10 4 20 9 31c25 54 120 142 147 185c-22 3 -60 3 -91 3c-75 0 -85 -5 -90 -15
c-7 -12 -11 -22 -16 -39zM461 656l16 -17l-391 -631l-16 18zM446 374h1c48 0 101 -24 101 -78c0 -18 -10 -30 -19 -38c-10 -8 -25 -15 -42 -25c65 -33 78 -56 78 -91c0 -30 -14 -54 -36 -71c-21 -17 -61 -29 -98 -29c-70 0 -119 29 -119 83c0 22 12 36 26 46
c13 8 22 12 43 24c-39 23 -55 43 -55 79c0 23 7 41 18 56c20 28 55 44 102 44zM433 362h-1c-23 0 -44 -16 -44 -47c0 -14 5 -25 18 -36c16 -14 47 -29 69 -40c12 12 20 32 20 54c0 37 -21 69 -62 69zM444 55h1c28 0 52 14 52 47c0 23 -18 44 -105 87c-11 -8 -22 -26 -22 -54
c0 -37 24 -80 74 -80z" />
    <glyph glyph-name="uni2190" unicode="&#x2190;" horiz-adv-x="482" 
d="M457 209h-347l161 -144l-27 -35l-219 200v1l219 200l27 -35l-161 -144h347v-43z" />
    <glyph glyph-name="uni2192" unicode="&#x2192;" horiz-adv-x="482" 
d="M25 252h347l-160 144l27 35l218 -200v-1l-218 -200l-27 35l160 144h-347v43z" />
    <glyph glyph-name="partialdiff" unicode="&#x2202;" horiz-adv-x="449" 
d="M54 557c-9 13 5 60 18 72s48 26 104 26c112 0 237 -105 237 -333c0 -191 -82 -333 -226 -333c-104 0 -156 63 -156 164c0 105 70 181 174 181c56 0 85 -25 97 -43h2c5 30 10 106 10 140c0 131 -33 200 -119 200c-58 0 -107 -38 -138 -74h-3zM199 6h1c52 0 85 151 100 262
c-8 13 -27 37 -61 37c-47 0 -95 -54 -95 -174c0 -90 25 -125 55 -125z" />
    <glyph glyph-name="Delta" unicode="&#x2206;" horiz-adv-x="496" 
d="M466 -3c-20 0 -26 4 -108 3c-225 -2 -294 0 -329 0v14l162 551c6 18 8 34 10 51c24 1 91 10 111 20c35 -171 106 -449 154 -623v-16zM205 554c-21 -82 -96 -340 -128 -484c-2 -9 -3 -28 14 -31c25 -5 49 -7 105 -7c58 0 73 1 96 4c16 2 24 1 18 28
c-27 124 -93 428 -105 490z" />
    <glyph glyph-name="product" unicode="&#x220f;" horiz-adv-x="590" 
d="M86 179v234c0 99 0 158 -2 191c-1 27 -7 31 -52 32l1 12c27 0 80 -3 112 -3h296c43 0 99 2 118 3v-12c-45 -2 -50 -6 -51 -29c-1 -38 -4 -107 -4 -182v-268c0 -103 2 -191 5 -219c1 -16 6 -19 56 -23l-3 -12c-25 1 -67 3 -122 3c-51 0 -93 -2 -118 -3l1 12
c41 4 47 8 48 33c2 22 5 76 5 182v467c0 21 -3 26 -19 28c-15 2 -28 3 -63 3c-31 0 -44 -1 -60 -3s-20 -8 -20 -28v-473c0 -87 2 -152 3 -177c2 -26 9 -31 51 -32v-12c-31 0 -74 3 -127 3c-41 0 -78 -3 -114 -3v12c45 2 52 7 54 31s5 100 5 233z" />
    <glyph glyph-name="summation" unicode="&#x2211;" horiz-adv-x="471" 
d="M25 636v11c30 0 99 -3 140 -3h122c55 0 98 3 114 6c-2 -33 -4 -126 -3 -157l-12 -1c-5 25 -17 66 -29 91c-14 29 -28 44 -105 44h-69c-12 0 -17 -9 -15 -15l124 -287l-182 -319c-3 -6 -1 -10 11 -12c19 -4 48 -6 120 -6c105 0 138 8 154 23c12 12 30 33 44 85l11 -4
c-2 -26 -27 -169 -36 -197c-36 3 -75 5 -163 5h-63c-60 0 -136 -3 -165 -3v13c49 75 154 257 186 317z" />
    <glyph glyph-name="minus" unicode="&#x2212;" horiz-adv-x="420" 
d="M39 230h341v-40h-341v40z" />
    <glyph glyph-name="uni2215" unicode="&#x2215;" horiz-adv-x="81" 
d="M222 656l16 -17l-393 -633l-16 18z" />
    <glyph glyph-name="uni2219" unicode="&#x2219;" horiz-adv-x="272" 
d="M136 319h1c55 0 92 -45 92 -101c0 -58 -41 -98 -93 -98c-51 0 -94 40 -94 98s43 101 94 101z" />
    <glyph glyph-name="radical" unicode="&#x221a;" horiz-adv-x="489" 
d="M468 777l-179 -924h-11l-180 432l-60 -29l-7 19l126 58l95 -240c11 -27 31 -82 39 -110h2c2 22 11 74 17 103l130 691h28z" />
    <glyph glyph-name="infinity" unicode="&#x221e;" horiz-adv-x="564" 
d="M413 97h-1c-56 0 -91 43 -130 87c-36 -40 -76 -87 -138 -87c-61 0 -105 42 -105 113c0 62 51 113 112 113s95 -48 131 -87c36 41 77 87 139 87c58 0 104 -46 104 -112c0 -63 -51 -114 -112 -114zM150 135h1c48 0 79 39 107 72c-33 34 -64 80 -109 80
c-43 0 -70 -34 -70 -76c0 -46 31 -76 71 -76zM415 135h1c41 0 68 33 68 76c0 45 -26 76 -67 76c-49 0 -83 -41 -111 -73c33 -38 62 -79 109 -79z" />
    <glyph glyph-name="integral" unicode="&#x222b;" horiz-adv-x="326" 
d="M307 722v-1c0 -21 -14 -31 -35 -31c-35 0 -29 43 -61 43c-21 0 -32 -39 -29 -111c6 -121 21 -336 25 -485c4 -179 -40 -314 -137 -314c-35 0 -57 15 -57 42c0 20 14 36 40 36c40 0 31 -41 65 -41c22 0 32 47 29 141c-4 118 -15 288 -23 405c-15 273 45 359 130 359
c32 0 53 -19 53 -43z" />
    <glyph glyph-name="approxequal" unicode="&#x2248;" horiz-adv-x="424" 
d="M352 322l32 -16c-16 -55 -46 -78 -98 -78c-26 0 -61 14 -92 32c-26 14 -48 21 -62 21c-25 0 -50 -9 -65 -50l-31 17c22 59 61 72 98 72c32 0 71 -20 90 -31c23 -14 50 -23 67 -23c20 0 48 7 61 56zM352 196l32 -16c-16 -55 -48 -78 -101 -78c-28 0 -56 13 -89 32
c-30 16 -50 21 -63 21c-25 0 -49 -9 -64 -49l-31 16c22 59 62 72 100 72c34 0 72 -21 90 -32c24 -14 50 -22 66 -22c20 0 47 7 60 56z" />
    <glyph glyph-name="notequal" unicode="&#x2260;" horiz-adv-x="420" 
d="M39 300h195l45 91l31 -16l-37 -75h107v-40h-127l-48 -98h175v-41h-196l-42 -86c-9 6 -21 11 -31 16l35 70h-107v41h127l48 98h-175v40z" />
    <glyph glyph-name="lessequal" unicode="&#x2264;" horiz-adv-x="408" 
d="M47 238v38l314 159v-47l-265 -130v-2l265 -131v-47zM47 47h314v-40h-314v40z" />
    <glyph glyph-name="greaterequal" unicode="&#x2265;" horiz-adv-x="408" 
d="M360 275v-37l-314 -160v47l265 130v3l-265 130v47zM46 47h314v-40h-314v40z" />
    <glyph glyph-name="blacksquare" unicode="&#x25a0;" horiz-adv-x="285" 
d="M45 334h195v-200h-195v200z" />
    <glyph glyph-name="blackrightpointingtriangle" unicode="&#x25b6;" horiz-adv-x="409" 
d="M50 74c0 0 1 310 0 310h1l324 -153v-1l-324 -157z" />
    <glyph glyph-name="whiterightpointingtriangle" unicode="&#x25b7;" horiz-adv-x="409" 
d="M86 329l1 -197l207 100zM50 76c0 0 1 310 0 310h1l324 -153v-1l-324 -157z" />
    <glyph glyph-name="blackleftpointingtriangle" unicode="&#x25c0;" horiz-adv-x="409" 
d="M359 383c0 0 -1 -310 0 -310h-1l-324 153v1l324 157z" />
    <glyph glyph-name="whiteleftpointingtriangle" unicode="&#x25c1;" horiz-adv-x="409" 
d="M322 132v197l-208 -100zM359 385c0 0 -1 -310 0 -310h-1l-324 153v1l324 157z" />
    <glyph glyph-name="blackdiamond" unicode="&#x25c6;" horiz-adv-x="335" 
d="M29 236l137 137l140 -141l-137 -137z" />
    <glyph glyph-name="fisheye" unicode="&#x25c9;" horiz-adv-x="331" 
d="M166 376h1c72 0 129 -60 129 -133s-57 -133 -130 -133c-74 0 -131 59 -131 133s57 133 131 133zM166 340h-1c-51 0 -88 -45 -88 -97c0 -53 37 -97 89 -97s88 45 88 97s-36 97 -88 97zM166 295h-1c-28 0 -48 -24 -48 -52c0 -29 20 -53 49 -53c28 0 48 25 48 53
s-20 52 -48 52z" />
    <glyph glyph-name="lozenge" unicode="&#x25ca;" horiz-adv-x="487" 
d="M443 300l-182 -340h-43l-173 335l172 344h48zM392 294l-149 306h-2l-146 -300l146 -296h1z" />
    <glyph glyph-name="uni2610" unicode="&#x2610;" horiz-adv-x="687" 
d="M101 542h498v-506l-38 -36h-495v509zM88 503v-480h468v480h-468z" />
    <glyph glyph-name="uni2611" unicode="&#x2611;" horiz-adv-x="687" 
d="M101 542h498v-506l-38 -36h-495v509zM88 503v-480h468v480h-468zM427 439c12 16 51 32 79 35v-2c-87 -95 -174 -285 -238 -412h-1c-23 19 -109 170 -109 195c6 13 31 36 43 39h1c7 -36 50 -139 70 -176c26 66 105 254 155 321z" />
    <glyph glyph-name="A.sc" unicode="&#xe000;" horiz-adv-x="439" 
d="M459 10v-13c-34 1 -74 3 -114 3c-46 0 -86 -2 -128 -3v13c44 5 46 10 44 23c-11 50 -27 110 -39 160c-19 1 -38 1 -59 1c-22 0 -44 0 -58 -1c-19 -73 -34 -128 -35 -145c-2 -22 5 -34 65 -38l1 -13c-26 0 -53 3 -82 3c-23 0 -49 -3 -80 -3v13c41 4 52 11 67 48
c27 70 96 319 111 373c4 13 7 25 10 50c26 -4 87 3 111 13c35 -135 101 -384 128 -460c5 -11 13 -19 28 -21zM168 429l-57 -215c13 -1 35 -2 54 -2s38 1 52 2c-13 61 -34 149 -49 215z" />
    <glyph glyph-name="AE.sc" unicode="&#xe001;" horiz-adv-x="611" 
d="M322 484h140c46 0 84 3 100 5c-2 -24 -3 -95 -2 -147l-13 -3c-4 31 -10 57 -22 83c-17 34 -41 44 -105 44h-19c-8 0 -11 -2 -12 -11c-3 -21 -4 -72 -4 -123v-86h40c41 0 66 20 73 78h10c-5 -66 -6 -136 -3 -188l-11 1c-5 45 -16 90 -72 90c-10 0 -28 0 -37 -1v-46
c0 -55 2 -119 3 -145c2 -13 4 -19 37 -19c56 0 89 7 110 32c23 28 40 69 51 119l11 -4c-2 -31 -16 -139 -18 -168c-31 2 -77 5 -156 5h-105c-14 0 -37 -1 -60 -1c-23 -1 -47 -2 -64 -2l1 13l33 3c18 2 25 6 26 23c1 26 4 90 4 153v38c-26 0 -89 1 -113 -2
c-29 -64 -62 -133 -77 -182c-5 -16 0 -24 26 -27l46 -6l-1 -13c-39 0 -60 3 -83 3c-33 0 -59 -3 -92 -3v13c42 5 56 9 79 52c66 128 139 288 188 393c4 9 2 14 -8 15l-63 5l-1 13c32 -1 112 -4 163 -4zM258 246v216h-4c-29 -58 -68 -147 -99 -216c18 -1 66 -1 103 0z" />
    <glyph glyph-name="Aacute.sc" unicode="&#xe002;" horiz-adv-x="439" 
d="M459 10v-13c-34 1 -74 3 -114 3c-46 0 -86 -2 -128 -3v13c44 5 46 10 44 23c-11 50 -27 110 -39 160c-19 1 -38 1 -59 1c-22 0 -44 0 -58 -1c-19 -73 -34 -128 -35 -145c-2 -22 5 -34 65 -38l1 -13c-26 0 -53 3 -82 3c-23 0 -49 -3 -80 -3v13c41 4 52 11 67 48
c27 70 96 319 111 373c4 13 7 25 10 50c26 -4 87 3 111 13c35 -135 101 -384 128 -460c5 -11 13 -19 28 -21zM168 429l-57 -215c13 -1 35 -2 54 -2s38 1 52 2c-13 61 -34 149 -49 215zM197 538l-8 8c23 31 65 93 83 116c19 25 37 35 51 35s26 -8 26 -26
c0 -20 -20 -41 -41 -56z" />
    <glyph glyph-name="Acircumflex.sc" unicode="&#xe003;" horiz-adv-x="439" 
d="M459 10v-13c-34 1 -74 3 -114 3c-46 0 -86 -2 -128 -3v13c44 5 46 10 44 23c-11 50 -27 110 -39 160c-19 1 -38 1 -59 1c-22 0 -44 0 -58 -1c-19 -73 -34 -128 -35 -145c-2 -22 5 -34 65 -38l1 -13c-26 0 -53 3 -82 3c-23 0 -49 -3 -80 -3v13c41 4 52 11 67 48
c27 70 96 319 111 373c4 13 7 25 10 50c26 -4 87 3 111 13c35 -135 101 -384 128 -460c5 -11 13 -19 28 -21zM168 429l-57 -215c13 -1 35 -2 54 -2s38 1 52 2c-13 61 -34 149 -49 215zM215 701l8 4c12 -30 46 -94 105 -162l-7 -8c-30 18 -74 49 -102 76
c-30 -27 -72 -58 -103 -76l-7 8c57 62 95 132 106 158z" />
    <glyph glyph-name="Adieresis.sc" unicode="&#xe004;" horiz-adv-x="439" 
d="M459 10v-13c-34 1 -74 3 -114 3c-46 0 -86 -2 -128 -3v13c44 5 46 10 44 23c-11 50 -27 110 -39 160c-19 1 -38 1 -59 1c-22 0 -44 0 -58 -1c-19 -73 -34 -128 -35 -145c-2 -22 5 -34 65 -38l1 -13c-26 0 -53 3 -82 3c-23 0 -49 -3 -80 -3v13c41 4 52 11 67 48
c27 70 96 319 111 373c4 13 7 25 10 50c26 -4 87 3 111 13c35 -135 101 -384 128 -460c5 -11 13 -19 28 -21zM168 429l-57 -215c13 -1 35 -2 54 -2s38 1 52 2c-13 61 -34 149 -49 215zM144 658h1c28 0 47 -20 47 -50c0 -37 -26 -56 -49 -56c-25 0 -50 14 -50 51
c0 33 19 55 51 55zM299 658h1c27 0 46 -20 46 -50c0 -37 -26 -56 -49 -56c-25 0 -50 14 -50 51c0 33 20 55 52 55z" />
    <glyph glyph-name="Agrave.sc" unicode="&#xe005;" horiz-adv-x="439" 
d="M459 10v-13c-34 1 -74 3 -114 3c-46 0 -86 -2 -128 -3v13c44 5 46 10 44 23c-11 50 -27 110 -39 160c-19 1 -38 1 -59 1c-22 0 -44 0 -58 -1c-19 -73 -34 -128 -35 -145c-2 -22 5 -34 65 -38l1 -13c-26 0 -53 3 -82 3c-23 0 -49 -3 -80 -3v13c41 4 52 11 67 48
c27 70 96 319 111 373c4 13 7 25 10 50c26 -4 87 3 111 13c35 -135 101 -384 128 -460c5 -11 13 -19 28 -21zM168 429l-57 -215c13 -1 35 -2 54 -2s38 1 52 2c-13 61 -34 149 -49 215zM238 538c-62 43 -81 56 -108 76c-19 14 -36 31 -36 52c0 19 14 30 28 30
c16 0 28 -8 47 -33c21 -30 53 -81 77 -117z" />
    <glyph glyph-name="Aring.sc" unicode="&#xe006;" horiz-adv-x="439" 
d="M459 10v-13c-34 1 -74 3 -114 3c-46 0 -86 -2 -128 -3v13c44 5 46 10 44 23c-11 50 -27 110 -39 160c-19 1 -38 1 -59 1c-22 0 -44 0 -58 -1c-19 -73 -34 -128 -35 -145c-2 -22 5 -34 65 -38l1 -13c-26 0 -53 3 -82 3c-23 0 -49 -3 -80 -3v13c41 4 52 11 67 48
c27 70 96 319 111 373c4 13 7 25 10 50c26 -4 87 3 111 13c35 -135 101 -384 128 -460c5 -11 13 -19 28 -21zM168 429l-57 -215c13 -1 35 -2 54 -2s38 1 52 2c-13 61 -34 149 -49 215zM220 694h1c44 0 79 -28 79 -79c0 -52 -38 -82 -84 -82c-48 0 -82 28 -82 78
c0 54 37 83 86 83zM218 679h-1c-31 0 -36 -40 -36 -65c0 -47 16 -66 37 -66c34 0 35 44 35 68c0 20 -3 63 -35 63z" />
    <glyph glyph-name="Atilde.sc" unicode="&#xe007;" horiz-adv-x="439" 
d="M459 10v-13c-34 1 -74 3 -114 3c-46 0 -86 -2 -128 -3v13c44 5 46 10 44 23c-11 50 -27 110 -39 160c-19 1 -38 1 -59 1c-22 0 -44 0 -58 -1c-19 -73 -34 -128 -35 -145c-2 -22 5 -34 65 -38l1 -13c-26 0 -53 3 -82 3c-23 0 -49 -3 -80 -3v13c41 4 52 11 67 48
c27 70 96 319 111 373c4 13 7 25 10 50c26 -4 87 3 111 13c35 -135 101 -384 128 -460c5 -11 13 -19 28 -21zM168 429l-57 -215c13 -1 35 -2 54 -2s38 1 52 2c-13 61 -34 149 -49 215zM126 548l-14 4c3 44 19 100 68 100c17 0 32 -6 60 -27c27 -20 41 -24 48 -24
c16 0 30 16 33 55l13 -5c-3 -46 -20 -102 -67 -102c-16 0 -33 8 -62 29c-18 13 -28 22 -42 22c-19 0 -33 -17 -37 -52z" />
    <glyph glyph-name="B.sc" unicode="&#xe008;" horiz-adv-x="478" 
d="M11 -4v14c48 2 56 7 57 22c2 20 4 69 4 149v137c0 61 0 111 -2 136c-1 13 -11 20 -55 20v13c18 0 81 -3 114 -3c52 0 97 3 143 3c74 0 102 -10 125 -30c22 -19 30 -47 30 -77c0 -54 -25 -81 -59 -97c-26 -12 -49 -18 -85 -21v-4c57 -3 99 -13 128 -30
c26 -16 44 -46 44 -90c0 -45 -17 -81 -46 -102c-34 -26 -88 -39 -165 -39c-40 0 -92 2 -134 3c-32 0 -77 -3 -99 -4zM199 358v-92c8 -1 26 -1 32 -1c45 0 70 28 70 106c0 32 -7 58 -17 73c-11 16 -23 26 -58 26c-17 0 -24 -4 -25 -12c0 -21 -2 -60 -2 -100zM199 249v-110
c0 -62 0 -88 3 -107c1 -11 10 -20 35 -20c31 0 51 10 63 32c13 20 19 54 19 92c0 42 -8 75 -25 91s-31 23 -63 23c-7 0 -27 -1 -32 -1z" />
    <glyph glyph-name="C.sc" unicode="&#xe009;" horiz-adv-x="464" 
d="M425 313l-13 -4c-4 46 -19 95 -37 124c-19 27 -44 48 -83 48c-27 0 -52 -9 -74 -40s-44 -98 -44 -195c0 -76 17 -149 44 -181c24 -28 54 -44 92 -44c58 0 95 33 124 112l12 -8c-29 -100 -88 -139 -189 -139c-80 0 -139 20 -179 73c-31 42 -48 104 -48 176
c0 84 28 156 76 202c39 37 89 61 173 61c59 0 105 -17 128 -43l15 48l10 -5c-7 -57 -9 -124 -7 -185z" />
    <glyph glyph-name="Ccedilla.sc" unicode="&#xe00a;" horiz-adv-x="463" 
d="M286 -13c-7 -11 -15 -22 -22 -34c31 -5 70 -21 70 -68c0 -51 -38 -78 -88 -78c-23 0 -45 11 -54 18l7 15c14 -8 28 -11 44 -11c25 0 36 13 36 32c0 22 -25 37 -61 37l-4 9l53 79h-8c-81 0 -143 23 -183 76c-31 42 -46 101 -46 173c0 82 28 156 77 202c39 37 86 60 175 60
c56 0 105 -20 126 -47l15 52l10 -4c-7 -57 -9 -124 -7 -185l-13 -4c-4 45 -17 93 -36 122c-19 27 -44 50 -83 50c-27 0 -53 -10 -75 -40c-23 -32 -45 -101 -45 -197c0 -80 19 -147 46 -180c24 -28 53 -43 90 -43c58 0 98 34 127 111l11 -8c-26 -86 -78 -131 -162 -137z" />
    <glyph glyph-name="D.sc" unicode="&#xe00b;" horiz-adv-x="528" 
d="M74 191v135c0 75 -1 105 -2 123c-1 13 -6 19 -17 20l-40 5v13c21 0 85 -3 112 -3c50 0 85 3 127 3c86 0 127 -13 161 -34c49 -32 84 -98 84 -199c0 -106 -35 -199 -138 -239c-31 -11 -73 -18 -130 -18c-40 0 -74 3 -109 3c-37 0 -97 -3 -114 -3l1 12l34 3
c19 3 24 7 26 21s5 80 5 158zM201 317v-132c0 -110 0 -138 2 -156c1 -8 4 -17 32 -17c43 0 74 16 93 47c21 34 36 101 36 192c0 80 -14 145 -35 174s-45 45 -96 45c-22 0 -27 -5 -28 -15c-1 -14 -4 -41 -4 -138z" />
    <glyph glyph-name="E.sc" unicode="&#xe00c;" horiz-adv-x="430" 
d="M16 475v13c13 0 33 -1 54 -2c22 -1 45 -2 65 -2h144c45 0 84 4 102 8c-4 -26 -5 -102 -4 -144l-12 -4c-4 27 -10 52 -22 78c-18 37 -45 45 -103 45h-22c-10 0 -14 -2 -14 -11c-2 -22 -3 -62 -3 -110v-87h38c41 0 67 21 74 78h12c-6 -63 -6 -136 -3 -186l-13 1
c-4 43 -17 88 -73 88c-12 0 -27 0 -35 -1v-55c0 -53 0 -124 3 -151c1 -13 7 -17 37 -17c58 0 93 6 115 33c25 28 38 63 50 104l10 -4c-3 -31 -16 -125 -22 -154c-31 3 -78 5 -155 5h-104c-20 0 -45 -1 -69 -1c-23 -1 -45 -2 -59 -2l1 13l36 2c15 3 25 6 26 22
c2 26 4 95 4 157v142c0 59 0 90 -2 120c-1 13 -4 17 -19 18z" />
    <glyph glyph-name="Eacute.sc" unicode="&#xe00d;" horiz-adv-x="430" 
d="M16 475v13c13 0 33 -1 54 -2c22 -1 45 -2 65 -2h144c45 0 84 4 102 8c-4 -26 -5 -102 -4 -144l-12 -4c-4 27 -10 52 -22 78c-18 37 -45 45 -103 45h-22c-10 0 -14 -2 -14 -11c-2 -22 -3 -62 -3 -110v-87h38c41 0 67 21 74 78h12c-6 -63 -6 -136 -3 -186l-13 1
c-4 43 -17 88 -73 88c-12 0 -27 0 -35 -1v-55c0 -53 0 -124 3 -151c1 -13 7 -17 37 -17c58 0 93 6 115 33c25 28 38 63 50 104l10 -4c-3 -31 -16 -125 -22 -154c-31 3 -78 5 -155 5h-104c-20 0 -45 -1 -69 -1c-23 -1 -45 -2 -59 -2l1 13l36 2c15 3 25 6 26 22
c2 26 4 95 4 157v142c0 59 0 90 -2 120c-1 13 -4 17 -19 18zM199 538l-8 8c23 31 65 93 83 116c19 25 37 35 51 35s26 -8 26 -26c0 -20 -20 -41 -41 -56z" />
    <glyph glyph-name="Ecircumflex.sc" unicode="&#xe00e;" horiz-adv-x="430" 
d="M16 475v13c13 0 33 -1 54 -2c22 -1 45 -2 65 -2h144c45 0 84 4 102 8c-4 -26 -5 -102 -4 -144l-12 -4c-4 27 -10 52 -22 78c-18 37 -45 45 -103 45h-22c-10 0 -14 -2 -14 -11c-2 -22 -3 -62 -3 -110v-87h38c41 0 67 21 74 78h12c-6 -63 -6 -136 -3 -186l-13 1
c-4 43 -17 88 -73 88c-12 0 -27 0 -35 -1v-55c0 -53 0 -124 3 -151c1 -13 7 -17 37 -17c58 0 93 6 115 33c25 28 38 63 50 104l10 -4c-3 -31 -16 -125 -22 -154c-31 3 -78 5 -155 5h-104c-20 0 -45 -1 -69 -1c-23 -1 -45 -2 -59 -2l1 13l36 2c15 3 25 6 26 22
c2 26 4 95 4 157v142c0 59 0 90 -2 120c-1 13 -4 17 -19 18zM219 701l8 4c12 -30 46 -94 105 -162l-7 -8c-30 18 -74 49 -102 76c-30 -27 -72 -58 -103 -76l-7 8c57 62 95 132 106 158z" />
    <glyph glyph-name="Edieresis.sc" unicode="&#xe00f;" horiz-adv-x="430" 
d="M16 475v13c13 0 33 -1 54 -2c22 -1 45 -2 65 -2h144c45 0 84 4 102 8c-4 -26 -5 -102 -4 -144l-12 -4c-4 27 -10 52 -22 78c-18 37 -45 45 -103 45h-22c-10 0 -14 -2 -14 -11c-2 -22 -3 -62 -3 -110v-87h38c41 0 67 21 74 78h12c-6 -63 -6 -136 -3 -186l-13 1
c-4 43 -17 88 -73 88c-12 0 -27 0 -35 -1v-55c0 -53 0 -124 3 -151c1 -13 7 -17 37 -17c58 0 93 6 115 33c25 28 38 63 50 104l10 -4c-3 -31 -16 -125 -22 -154c-31 3 -78 5 -155 5h-104c-20 0 -45 -1 -69 -1c-23 -1 -45 -2 -59 -2l1 13l36 2c15 3 25 6 26 22
c2 26 4 95 4 157v142c0 59 0 90 -2 120c-1 13 -4 17 -19 18zM145 653h1c28 0 47 -20 47 -50c0 -37 -26 -56 -49 -56c-25 0 -50 14 -50 51c0 33 19 55 51 55zM300 653h1c27 0 46 -20 46 -50c0 -37 -26 -56 -49 -56c-25 0 -50 14 -50 51c0 33 20 55 52 55z" />
    <glyph glyph-name="Egrave.sc" unicode="&#xe010;" horiz-adv-x="430" 
d="M16 475v13c13 0 33 -1 54 -2c22 -1 45 -2 65 -2h144c45 0 84 4 102 8c-4 -26 -5 -102 -4 -144l-12 -4c-4 27 -10 52 -22 78c-18 37 -45 45 -103 45h-22c-10 0 -14 -2 -14 -11c-2 -22 -3 -62 -3 -110v-87h38c41 0 67 21 74 78h12c-6 -63 -6 -136 -3 -186l-13 1
c-4 43 -17 88 -73 88c-12 0 -27 0 -35 -1v-55c0 -53 0 -124 3 -151c1 -13 7 -17 37 -17c58 0 93 6 115 33c25 28 38 63 50 104l10 -4c-3 -31 -16 -125 -22 -154c-31 3 -78 5 -155 5h-104c-20 0 -45 -1 -69 -1c-23 -1 -45 -2 -59 -2l1 13l36 2c15 3 25 6 26 22
c2 26 4 95 4 157v142c0 59 0 90 -2 120c-1 13 -4 17 -19 18zM240 538c-62 43 -81 56 -108 76c-19 14 -36 31 -36 52c0 19 14 30 28 30c16 0 28 -8 47 -33c21 -30 53 -81 77 -117z" />
    <glyph glyph-name="Eth.sc" unicode="&#xe011;" horiz-adv-x="537" 
d="M21 247l2 22c12 0 39 -2 61 -2v52c0 75 -1 115 -2 133c0 10 -5 15 -14 16l-45 6v13c18 0 86 -3 115 -3c52 0 61 3 118 3c94 0 135 -12 170 -34c48 -31 82 -93 82 -197c0 -115 -40 -202 -137 -239c-34 -13 -77 -20 -130 -20c-44 0 -76 3 -107 3c-40 0 -98 -3 -117 -3l1 13
l36 3c19 3 23 7 25 21s5 82 5 160v56c-27 0 -42 -1 -63 -3zM301 269l-4 -23c-9 1 -42 2 -87 3v-63c0 -110 1 -139 3 -157c1 -8 5 -16 28 -16c52 0 80 16 98 45c20 33 35 101 35 194c0 80 -12 145 -34 174c-20 29 -43 44 -98 44c-18 0 -27 -6 -27 -14c-2 -14 -5 -49 -5 -146
v-43c36 0 66 1 91 2z" />
    <glyph glyph-name="Euro.fitted" unicode="&#xe012;" horiz-adv-x="431" 
d="M193 356l172 2l-7 -24l-166 1c0 -15 -1 -34 -1 -49l152 2l-6 -25l-145 3c1 -91 19 -243 110 -243c47 0 79 17 107 100l11 -6c-31 -101 -80 -130 -159 -130c-154 0 -194 137 -201 278h-51l8 21h42c0 14 1 34 2 49h-35l7 21h30c14 129 81 261 225 261
c100 0 128 -45 128 -89c0 -33 -24 -53 -50 -53c-6 0 -20 1 -27 7c-8 7 -11 17 -8 26c3 11 5 25 5 37c0 33 -15 57 -48 57c-78 0 -92 -178 -95 -246z" />
    <glyph glyph-name="Euro.oldstyle" unicode="&#xe013;" horiz-adv-x="433" 
d="M197 306l165 1l-6 -22l-160 1c0 -13 -1 -35 -1 -48l146 1l-6 -23l-139 2c1 -73 12 -195 108 -195c44 0 84 17 107 93l12 -9c-30 -85 -77 -120 -161 -120c-152 0 -191 121 -196 230h-50l8 21h41c0 12 0 35 2 48h-35l8 20h29c15 105 73 217 217 217c97 0 130 -44 130 -87
c0 -34 -23 -51 -49 -51c-7 0 -17 2 -22 7c-6 5 -12 13 -8 25c3 10 5 27 5 38c0 30 -17 53 -52 53c-78 0 -90 -146 -93 -202z" />
    <glyph glyph-name="F.sc" unicode="&#xe014;" horiz-adv-x="411" 
d="M16 475l-1 13c24 0 99 -4 130 -4h117c73 0 106 5 128 7c-5 -60 -3 -127 -2 -151h-13c-3 23 -8 52 -25 84c-13 29 -34 43 -101 43h-31c-9 0 -14 -3 -14 -10c-1 -7 -3 -55 -3 -133v-76c8 -1 33 -1 45 -1c51 0 77 15 83 77l12 -2c-4 -52 -3 -161 -1 -183h-11
c-8 53 -17 91 -84 91c-15 0 -36 -1 -44 -2v-85c0 -76 0 -93 2 -108c1 -12 7 -18 19 -19c8 -1 30 -6 50 -6l-2 -13c-28 0 -88 3 -131 3s-96 -3 -126 -3l-2 13l37 4c12 1 19 6 21 20c3 22 5 74 5 142v155c0 80 -1 113 -2 124s-7 15 -18 16z" />
    <glyph glyph-name="G.sc" unicode="&#xe015;" horiz-adv-x="495" 
d="M429 317l-13 -3c-7 102 -61 168 -127 168c-41 0 -65 -20 -84 -52c-23 -40 -38 -107 -38 -192c0 -73 11 -139 30 -174c20 -40 43 -61 79 -61c30 0 41 14 44 39c3 24 2 91 2 132c0 38 -8 43 -41 46l-25 2l-2 13c29 1 78 -3 113 -3c45 0 84 2 113 4l2 -13
c-28 -4 -36 -7 -38 -25c-3 -20 -3 -53 -3 -90c0 -38 2 -67 4 -85c-18 -4 -46 -13 -72 -20c-39 -10 -70 -17 -107 -17c-96 0 -150 27 -186 72c-32 42 -51 101 -51 183c0 87 34 166 92 210c41 32 89 47 160 47c78 0 120 -30 134 -44l15 45l9 -10c-4 -33 -12 -121 -10 -172z
" />
    <glyph glyph-name="H.sc" unicode="&#xe016;" horiz-adv-x="534" 
d="M74 161v157c0 71 0 109 -1 131c-1 19 -8 24 -54 26v13c27 0 73 -4 110 -4s67 3 122 4l-2 -13c-36 -1 -44 -8 -46 -28c0 -18 -2 -62 -2 -114v-69c18 -1 45 -1 68 -1c27 0 49 0 64 1v79c0 57 0 87 -1 111c-1 15 -11 20 -47 21l1 13c21 0 75 -4 113 -4c40 0 97 4 116 4v-13
c-45 -2 -50 -8 -52 -32c-1 -20 -3 -62 -3 -118v-145c0 -70 2 -132 4 -147c1 -16 7 -23 54 -23l-3 -13c-37 1 -80 3 -116 3c-45 0 -91 -2 -116 -3l1 13c39 2 46 8 47 28c1 40 2 86 2 135v69c-19 1 -40 2 -66 2c-22 0 -48 -1 -66 -2v-83c0 -87 1 -107 2 -125
c2 -16 10 -21 47 -24v-13c-25 0 -75 3 -120 3c-35 0 -80 -3 -116 -3v13c47 1 55 7 56 25c2 20 4 73 4 126z" />
    <glyph glyph-name="I.sc" unicode="&#xe017;" horiz-adv-x="275" 
d="M75 161v166c0 90 -1 110 -2 126s-4 19 -52 22v13c21 0 67 -4 113 -4c54 0 97 4 119 4l1 -13c-45 -4 -49 -9 -50 -24c-1 -17 -3 -55 -3 -123v-167c0 -72 0 -110 3 -128c2 -16 3 -19 52 -23l-1 -13c-25 0 -83 3 -124 3c-42 0 -91 -3 -114 -3l1 13c48 4 53 6 54 23
c2 18 3 56 3 128z" />
    <glyph glyph-name="Iacute.sc" unicode="&#xe018;" horiz-adv-x="275" 
d="M75 161v166c0 90 -1 110 -2 126s-4 19 -52 22v13c21 0 67 -4 113 -4c54 0 97 4 119 4l1 -13c-45 -4 -49 -9 -50 -24c-1 -17 -3 -55 -3 -123v-167c0 -72 0 -110 3 -128c2 -16 3 -19 52 -23l-1 -13c-25 0 -83 3 -124 3c-42 0 -91 -3 -114 -3l1 13c48 4 53 6 54 23
c2 18 3 56 3 128zM123 538l-8 8c23 31 65 93 83 116c19 25 37 35 51 35s26 -8 26 -26c0 -20 -20 -41 -41 -56z" />
    <glyph glyph-name="Icircumflex.sc" unicode="&#xe019;" horiz-adv-x="275" 
d="M75 161v166c0 90 -1 110 -2 126s-4 19 -52 22v13c21 0 67 -4 113 -4c54 0 97 4 119 4l1 -13c-45 -4 -49 -9 -50 -24c-1 -17 -3 -55 -3 -123v-167c0 -72 0 -110 3 -128c2 -16 3 -19 52 -23l-1 -13c-25 0 -83 3 -124 3c-42 0 -91 -3 -114 -3l1 13c48 4 53 6 54 23
c2 18 3 56 3 128zM128 701l8 4c12 -30 46 -94 105 -162l-7 -8c-30 18 -74 49 -102 76c-30 -27 -72 -58 -103 -76l-7 8c57 62 95 132 106 158z" />
    <glyph glyph-name="Idieresis.sc" unicode="&#xe01a;" horiz-adv-x="275" 
d="M75 161v166c0 90 -1 110 -2 126s-4 19 -52 22v13c21 0 67 -4 113 -4c54 0 97 4 119 4l1 -13c-45 -4 -49 -9 -50 -24c-1 -17 -3 -55 -3 -123v-167c0 -72 0 -110 3 -128c2 -16 3 -19 52 -23l-1 -13c-25 0 -83 3 -124 3c-42 0 -91 -3 -114 -3l1 13c48 4 53 6 54 23
c2 18 3 56 3 128zM63 653h1c28 0 47 -20 47 -50c0 -37 -26 -56 -49 -56c-25 0 -50 14 -50 51c0 33 19 55 51 55zM218 653h1c27 0 46 -20 46 -50c0 -37 -26 -56 -49 -56c-25 0 -50 14 -50 51c0 33 20 55 52 55z" />
    <glyph glyph-name="Igrave.sc" unicode="&#xe01b;" horiz-adv-x="275" 
d="M75 161v166c0 90 -1 110 -2 126s-4 19 -52 22v13c21 0 67 -4 113 -4c54 0 97 4 119 4l1 -13c-45 -4 -49 -9 -50 -24c-1 -17 -3 -55 -3 -123v-167c0 -72 0 -110 3 -128c2 -16 3 -19 52 -23l-1 -13c-25 0 -83 3 -124 3c-42 0 -91 -3 -114 -3l1 13c48 4 53 6 54 23
c2 18 3 56 3 128zM158 538c-62 43 -81 56 -108 76c-19 14 -36 31 -36 52c0 19 14 30 28 30c16 0 28 -8 47 -33c21 -30 53 -81 77 -117z" />
    <glyph glyph-name="J.sc" unicode="&#xe01c;" horiz-adv-x="266" 
d="M14 475l2 13c31 0 79 -4 120 -4c42 0 93 4 116 4l-1 -13l-27 -4c-16 -1 -19 -5 -20 -19c-2 -19 -3 -145 -3 -318c0 -42 -5 -85 -13 -113c-8 -30 -24 -64 -50 -94c-45 -54 -106 -80 -151 -80c-38 0 -59 19 -59 37c0 22 27 42 40 42c8 0 14 -3 21 -13c17 -25 32 -38 49 -38
c16 0 28 17 31 68c3 81 5 179 5 259v143c0 57 -1 84 -2 104c-1 15 -4 21 -18 22s-29 3 -40 4z" />
    <glyph glyph-name="K.sc" unicode="&#xe01d;" horiz-adv-x="507" 
d="M75 166v135c0 74 -1 124 -2 149c0 20 -4 22 -52 25l2 13c21 0 78 -4 118 -4c48 0 91 4 112 4l1 -13c-44 -2 -48 -5 -50 -24c-1 -18 -2 -70 -2 -145v-57c67 27 163 160 181 201c5 11 2 15 -10 17l-51 8l3 12c18 0 52 -2 84 -2c31 0 62 2 91 3l2 -13
c-50 -4 -65 -13 -79 -25c-28 -27 -72 -81 -114 -133c38 -83 134 -251 164 -286c10 -13 15 -16 58 -20l-4 -13c-49 2 -90 2 -119 0c-34 -2 -59 -3 -75 -6c-9 24 -84 170 -112 225c-8 15 -12 20 -19 20v-57c0 -79 1 -129 2 -147c2 -17 6 -18 55 -23l-1 -13c-28 0 -74 3 -117 3
c-41 0 -102 -3 -127 -3l2 13c52 4 54 9 56 22c1 18 3 61 3 134z" />
    <glyph glyph-name="L.sc" unicode="&#xe01e;" horiz-adv-x="410" 
d="M386 163l12 -3c-9 -48 -14 -122 -19 -164c-14 2 -48 4 -90 4c-43 1 -95 0 -143 0c-24 0 -53 -1 -79 -1c-25 -1 -47 -2 -58 -2v13l42 4c15 1 19 8 20 20c2 23 4 85 4 162v142c0 77 -1 99 -2 114c-1 13 -6 18 -19 19l-36 4l1 13c26 0 71 -4 122 -4c47 0 81 4 126 4l2 -13
l-43 -4c-13 -1 -18 -6 -19 -18c-2 -30 -4 -88 -5 -157v-103c-1 -84 0 -143 2 -164c0 -9 4 -13 23 -13c55 0 85 6 105 30c22 25 41 59 54 117z" />
    <glyph glyph-name="Lslash.sc" unicode="&#xe01f;" horiz-adv-x="420" 
d="M30 475v13c28 0 74 -4 126 -4c42 0 78 4 123 4l3 -13l-46 -4c-13 -1 -17 -6 -18 -19c-3 -31 -4 -101 -4 -161c21 12 59 32 75 42l14 -15c-16 -8 -66 -34 -89 -48v-70c0 -84 0 -150 2 -170c0 -10 6 -14 25 -14c55 0 83 9 103 32c22 25 41 64 53 114l11 -6
c-8 -39 -12 -117 -17 -159c-7 1 -19 2 -35 2c-16 1 -35 1 -56 1h-142c-24 0 -53 -1 -78 -1c-26 -1 -48 -2 -61 -2v13l44 4c15 1 20 5 20 17c2 25 4 111 5 171c-15 -7 -39 -19 -52 -26l-13 14l65 34v121c0 76 -1 93 -3 109c-1 13 -3 16 -17 17z" />
    <glyph glyph-name="M.sc" unicode="&#xe020;" horiz-adv-x="624" 
d="M299 7l-55 -10l-144 441h-4c0 -153 3 -299 4 -360c1 -46 6 -59 39 -64l35 -4v-13c-30 0 -58 3 -89 3c-35 0 -61 -3 -82 -3v13c13 1 23 4 32 4c22 4 32 19 35 60c5 63 20 215 11 373c0 4 -1 7 -2 11c-2 6 -9 12 -20 13l-42 4l1 13c24 0 43 -1 60 -2s32 -2 49 -2
c48 0 71 1 85 2c14 -47 76 -201 112 -302c34 99 85 264 95 302c10 -2 27 -2 64 -2c44 0 88 3 118 4l3 -13c-20 -2 -36 -4 -45 -5c-8 0 -10 -5 -11 -18c-1 -12 -2 -41 -2 -92c0 -182 1 -286 5 -323c2 -17 6 -21 21 -23l36 -4v-13c-17 0 -68 3 -126 3c-37 0 -75 -2 -120 -3
l4 13c42 3 47 9 48 27c2 36 9 232 10 404h-2c-44 -155 -97 -337 -123 -434z" />
    <glyph glyph-name="N.sc" unicode="&#xe021;" horiz-adv-x="489" 
d="M10 475v13c17 0 55 -4 99 -4c30 0 53 1 90 4c6 -13 16 -31 36 -63c20 -35 81 -140 170 -280c0 169 -5 271 -8 292c-2 26 -16 33 -44 36l-27 2l2 13c39 0 59 -4 86 -4c22 0 54 4 76 4v-13c-13 -2 -23 -3 -29 -4c-19 -5 -24 -16 -29 -36c-4 -22 -8 -136 -8 -251v-184
c-39 0 -73 -3 -87 -8l-240 418c0 -192 1 -327 6 -354c4 -24 8 -36 31 -40c13 -2 25 -5 41 -6l-1 -13c-28 0 -59 3 -95 3c-21 0 -51 -3 -78 -3v13c10 0 22 2 33 4c19 3 31 16 34 45c2 19 11 163 11 375c-3 6 -7 16 -11 21c-6 11 -12 14 -20 16z" />
    <glyph glyph-name="Ntilde.sc" unicode="&#xe022;" horiz-adv-x="489" 
d="M10 475v13c17 0 55 -4 99 -4c30 0 53 1 90 4c6 -13 16 -31 36 -63c20 -35 81 -140 170 -280c0 169 -5 271 -8 292c-2 26 -16 33 -44 36l-27 2l2 13c39 0 59 -4 86 -4c22 0 54 4 76 4v-13c-13 -2 -23 -3 -29 -4c-19 -5 -24 -16 -29 -36c-4 -22 -8 -136 -8 -251v-184
c-39 0 -73 -3 -87 -8l-240 418c0 -192 1 -327 6 -354c4 -24 8 -36 31 -40c13 -2 25 -5 41 -6l-1 -13c-28 0 -59 3 -95 3c-21 0 -51 -3 -78 -3v13c10 0 22 2 33 4c19 3 31 16 34 45c2 19 11 163 11 375c-3 6 -7 16 -11 21c-6 11 -12 14 -20 16zM164 548l-14 4
c3 44 19 100 68 100c17 0 32 -6 60 -27c27 -20 41 -24 48 -24c16 0 30 16 33 55l13 -5c-3 -46 -20 -102 -67 -102c-16 0 -33 8 -62 29c-18 13 -28 22 -42 22c-19 0 -33 -17 -37 -52z" />
    <glyph glyph-name="O.sc" unicode="&#xe023;" horiz-adv-x="513" 
d="M261 498h1c148 0 221 -113 221 -250c0 -161 -80 -262 -226 -262c-153 0 -227 97 -227 250c0 147 72 262 231 262zM257 482h-1c-27 0 -43 -14 -55 -41c-16 -36 -27 -105 -27 -182c0 -96 13 -177 27 -209s34 -48 61 -48c24 0 46 13 59 49c11 31 19 105 19 187
c0 75 -8 161 -26 202c-12 27 -30 42 -57 42z" />
    <glyph glyph-name="OE.sc" unicode="&#xe024;" horiz-adv-x="740" 
d="M392 248v1c0 107 -3 139 -8 157c-15 49 -44 69 -92 69c-31 0 -55 -13 -74 -40c-21 -31 -40 -101 -40 -190c0 -78 12 -145 33 -183c17 -31 49 -49 81 -49c33 0 58 13 76 38c20 27 24 75 24 197zM457 484h137c46 0 84 4 100 7c-3 -25 -3 -94 -3 -150l-12 -4
c-3 33 -9 64 -22 90c-17 34 -41 40 -104 40h-21c-7 0 -10 -3 -11 -11c-3 -21 -5 -76 -5 -127v-66c8 -1 28 -1 39 -1c41 0 66 16 73 74h11c-5 -65 -7 -130 -3 -183h-12c-5 45 -16 90 -73 90c-12 0 -27 0 -35 -1v-56c0 -57 2 -125 3 -151c2 -13 4 -18 36 -18c56 0 91 7 113 33
c22 27 40 66 51 110l10 -4c-2 -29 -16 -132 -19 -160c-15 1 -35 2 -60 3s-57 1 -97 1h-103c-28 0 -51 0 -61 -1v46c-29 -32 -75 -59 -138 -59c-64 0 -108 14 -141 41c-51 41 -78 113 -78 208c0 94 31 170 83 214c38 32 85 49 149 49c53 0 95 -13 125 -53c0 16 -1 31 0 42
c11 -1 45 -3 68 -3z" />
    <glyph glyph-name="Oacute.sc" unicode="&#xe025;" horiz-adv-x="513" 
d="M261 498h1c148 0 221 -113 221 -250c0 -161 -80 -262 -226 -262c-153 0 -227 97 -227 250c0 147 72 262 231 262zM257 482h-1c-27 0 -43 -14 -55 -41c-16 -36 -27 -105 -27 -182c0 -96 13 -177 27 -209s34 -48 61 -48c24 0 46 13 59 49c11 31 19 105 19 187
c0 75 -8 161 -26 202c-12 27 -30 42 -57 42zM233 538l-8 8c23 31 65 93 83 116c19 25 37 35 51 35s26 -8 26 -26c0 -20 -20 -41 -41 -56z" />
    <glyph glyph-name="Ocircumflex.sc" unicode="&#xe026;" horiz-adv-x="513" 
d="M261 498h1c148 0 221 -113 221 -250c0 -161 -80 -262 -226 -262c-153 0 -227 97 -227 250c0 147 72 262 231 262zM257 482h-1c-27 0 -43 -14 -55 -41c-16 -36 -27 -105 -27 -182c0 -96 13 -177 27 -209s34 -48 61 -48c24 0 46 13 59 49c11 31 19 105 19 187
c0 75 -8 161 -26 202c-12 27 -30 42 -57 42zM254 701l8 4c12 -30 46 -94 105 -162l-7 -8c-30 18 -74 49 -102 76c-30 -27 -72 -58 -103 -76l-7 8c57 62 95 132 106 158z" />
    <glyph glyph-name="Odieresis.sc" unicode="&#xe027;" horiz-adv-x="513" 
d="M261 498h1c148 0 221 -113 221 -250c0 -161 -80 -262 -226 -262c-153 0 -227 97 -227 250c0 147 72 262 231 262zM257 482h-1c-27 0 -43 -14 -55 -41c-16 -36 -27 -105 -27 -182c0 -96 13 -177 27 -209s34 -48 61 -48c24 0 46 13 59 49c11 31 19 105 19 187
c0 75 -8 161 -26 202c-12 27 -30 42 -57 42zM181 654h1c28 0 47 -20 47 -50c0 -37 -26 -56 -49 -56c-25 0 -50 14 -50 51c0 33 19 55 51 55zM336 654h1c27 0 46 -20 46 -50c0 -37 -26 -56 -49 -56c-25 0 -50 14 -50 51c0 33 20 55 52 55z" />
    <glyph glyph-name="Ograve.sc" unicode="&#xe028;" horiz-adv-x="513" 
d="M261 498h1c148 0 221 -113 221 -250c0 -161 -80 -262 -226 -262c-153 0 -227 97 -227 250c0 147 72 262 231 262zM257 482h-1c-27 0 -43 -14 -55 -41c-16 -36 -27 -105 -27 -182c0 -96 13 -177 27 -209s34 -48 61 -48c24 0 46 13 59 49c11 31 19 105 19 187
c0 75 -8 161 -26 202c-12 27 -30 42 -57 42zM279 538c-62 43 -81 56 -108 76c-19 14 -36 31 -36 52c0 19 14 30 28 30c16 0 28 -8 47 -33c21 -30 53 -81 77 -117z" />
    <glyph glyph-name="Oslash.sc" unicode="&#xe029;" horiz-adv-x="513" 
d="M415 518l22 -8c-7 -11 -14 -22 -37 -55c49 -41 83 -118 83 -206c0 -172 -90 -263 -232 -263c-47 0 -94 11 -129 35l-35 -53l-23 6l41 57c-45 36 -76 101 -76 201c0 163 92 266 234 266c45 0 86 -11 120 -32c16 25 24 40 32 52zM262 480h-1c-30 0 -45 -15 -59 -41
c-19 -38 -33 -116 -33 -198c0 -45 5 -86 9 -109c32 48 125 218 151 260c-8 34 -22 88 -67 88zM251 2h1c24 0 45 11 62 43c19 37 29 128 29 212c0 37 -3 87 -8 108c-29 -47 -121 -213 -151 -262c7 -31 21 -101 67 -101z" />
    <glyph glyph-name="Otilde.sc" unicode="&#xe02a;" horiz-adv-x="513" 
d="M261 498h1c148 0 221 -113 221 -250c0 -161 -80 -262 -226 -262c-153 0 -227 97 -227 250c0 147 72 262 231 262zM257 482h-1c-27 0 -43 -14 -55 -41c-16 -36 -27 -105 -27 -182c0 -96 13 -177 27 -209s34 -48 61 -48c24 0 46 13 59 49c11 31 19 105 19 187
c0 75 -8 161 -26 202c-12 27 -30 42 -57 42zM163 547l-14 4c3 44 19 100 68 100c17 0 32 -6 60 -27c27 -20 41 -24 48 -24c16 0 30 16 33 55l13 -5c-3 -46 -20 -102 -67 -102c-16 0 -33 8 -62 29c-18 13 -28 22 -42 22c-19 0 -33 -17 -37 -52z" />
    <glyph glyph-name="P.sc" unicode="&#xe02b;" horiz-adv-x="463" 
d="M74 210v108c0 70 -1 120 -2 132c-1 15 -6 21 -19 22l-39 3l4 12c11 0 75 -3 116 -3c50 0 84 3 124 3c92 0 122 -16 146 -38c23 -21 37 -55 37 -105c0 -45 -16 -84 -37 -107c-33 -36 -85 -49 -139 -49c-14 0 -32 4 -42 6l3 15c8 -3 21 -6 28 -6c16 0 33 14 41 35
c9 24 14 58 14 100c0 49 -10 90 -21 105c-14 21 -33 28 -61 28c-18 0 -22 -4 -23 -15c-2 -21 -3 -88 -3 -161v-84v-81c0 -54 1 -79 2 -93c1 -15 8 -19 27 -22l42 -5l-1 -13c-27 0 -62 3 -136 3c-51 0 -96 -3 -126 -3l1 13l31 3c23 2 28 6 29 28c2 37 4 102 4 169z" />
    <glyph glyph-name="Q.alt" unicode="&#xe02c;" horiz-adv-x="581" 
d="M877 -125l5 -9c-46 -71 -118 -105 -215 -105c-70 0 -142 35 -230 101l-109 85c-43 32 -66 40 -103 49c-116 28 -194 125 -194 307c0 180 77 337 264 337c172 0 255 -144 255 -325c0 -221 -114 -307 -210 -323v-4c23 -6 78 -27 138 -59c68 -35 180 -90 281 -90
c40 0 89 7 118 36zM292 626h-1c-32 0 -53 -18 -72 -56c-25 -50 -38 -155 -38 -257c0 -109 16 -216 42 -264c20 -37 41 -54 75 -54c30 0 51 12 69 51c18 46 33 163 33 274c0 107 -13 203 -36 254c-18 35 -38 52 -72 52z" />
    <glyph glyph-name="Q.sc" unicode="&#xe02d;" horiz-adv-x="513" 
d="M546 -82v-6c-24 -32 -72 -50 -122 -50c-53 0 -100 40 -163 96c-14 12 -32 23 -65 31c-103 25 -166 106 -166 243c0 164 92 265 231 265c141 0 222 -103 222 -253c0 -171 -92 -240 -176 -254v-3c17 -4 73 -26 111 -41c43 -19 95 -30 128 -28zM260 482h-1
c-28 0 -44 -15 -57 -42c-19 -39 -29 -117 -29 -195c0 -72 13 -167 28 -202c12 -29 32 -45 60 -45c25 0 45 12 58 51c11 29 21 105 21 186c0 80 -7 165 -25 204c-13 29 -29 43 -55 43z" />
    <glyph glyph-name="Q.scalt" unicode="&#xe02e;" horiz-adv-x="512" 
d="M817 -132l4 -11c-47 -57 -106 -96 -200 -96c-62 0 -130 29 -202 85c-43 33 -86 74 -131 104c-36 24 -63 35 -92 42c-82 20 -166 89 -166 241c0 170 92 264 231 264c141 0 222 -104 222 -254c0 -168 -91 -235 -183 -250v-3c38 -6 119 -44 179 -73c87 -43 164 -78 239 -78
c46 0 78 8 99 29zM260 482h-1c-29 0 -44 -14 -57 -41c-19 -39 -29 -94 -29 -196c0 -94 14 -164 29 -198c12 -29 31 -46 59 -46c25 0 46 12 59 51c11 29 20 88 20 182c0 81 -8 166 -26 205c-13 29 -28 43 -54 43z" />
    <glyph glyph-name="R.sc" unicode="&#xe02f;" horiz-adv-x="490" 
d="M74 178v132c0 79 -1 127 -2 143c-1 11 -5 17 -24 18l-36 4l3 12c20 0 85 -3 115 -3c55 0 89 3 147 3c117 0 154 -33 154 -113c0 -47 -26 -78 -52 -94c-22 -12 -56 -23 -99 -27v-5c109 -12 152 -43 157 -114c2 -28 4 -56 5 -82c0 -30 11 -45 34 -45c8 0 10 0 21 2l-3 -11
c-9 -3 -44 -9 -75 -9c-78 0 -113 25 -115 95c-1 19 -2 50 -3 70c-1 70 -27 87 -86 87h-14v-70c0 -78 2 -118 3 -137s7 -19 58 -24l-1 -13c-24 0 -73 3 -116 3c-48 0 -108 -3 -131 -3l1 13c51 4 56 7 57 23c0 14 2 61 2 145zM201 320v-63h14c28 0 45 3 59 14
c14 13 27 37 27 98c0 29 -5 56 -14 72c-8 15 -22 30 -54 30c-8 0 -16 0 -22 -2s-8 -6 -8 -16c0 -6 -2 -45 -2 -133z" />
    <glyph glyph-name="S.sc" unicode="&#xe030;" horiz-adv-x="395" 
d="M35 170l12 5c-1 -117 69 -172 138 -172c59 0 84 34 84 74c0 34 -14 53 -45 72s-86 49 -120 69c-45 28 -69 73 -69 122c0 56 20 93 51 119c25 22 65 39 121 39c52 0 92 -19 109 -33l20 40l10 -4c-12 -67 -12 -131 -10 -171l-12 -2c-7 76 -50 154 -123 154
c-41 0 -71 -26 -71 -73c0 -31 14 -55 48 -75c68 -35 114 -60 142 -81c36 -27 51 -60 52 -107c0 -44 -16 -79 -40 -105c-29 -32 -81 -55 -151 -55c-31 0 -67 5 -103 13c-18 4 -30 7 -49 11c4 40 6 83 6 160z" />
    <glyph glyph-name="Scaron.sc" unicode="&#xe031;" horiz-adv-x="395" 
d="M35 170l12 5c-1 -117 69 -172 138 -172c59 0 84 34 84 74c0 34 -14 53 -45 72s-86 49 -120 69c-45 28 -69 73 -69 122c0 56 20 93 51 119c25 22 65 39 121 39c52 0 92 -19 109 -33l20 40l10 -4c-12 -67 -12 -131 -10 -171l-12 -2c-7 76 -50 154 -123 154
c-41 0 -71 -26 -71 -73c0 -31 14 -55 48 -75c68 -35 114 -60 142 -81c36 -27 51 -60 52 -107c0 -44 -16 -79 -40 -105c-29 -32 -81 -55 -151 -55c-31 0 -67 5 -103 13c-18 4 -30 7 -49 11c4 40 6 83 6 160zM208 539l-8 -3c-12 30 -46 94 -105 162l7 8c30 -18 74 -50 102 -77
c30 27 72 59 103 77l7 -8c-57 -62 -95 -133 -106 -159z" />
    <glyph glyph-name="T.sc" unicode="&#xe032;" horiz-adv-x="436" 
d="M281 363v-150c0 -103 2 -155 3 -173c1 -15 4 -23 18 -25l53 -5v-13c-26 0 -94 3 -152 3c-43 0 -84 -3 -121 -3l-3 13c15 1 28 2 49 5c12 2 21 8 22 24c2 24 5 68 5 174v137c0 53 0 98 -1 119c-66 0 -82 -17 -97 -49c-12 -26 -23 -59 -33 -95l-11 6c7 55 12 127 13 164
c12 -4 33 -7 58 -8c26 -2 58 -3 91 -3h88c86 0 130 0 158 11c-1 -14 -8 -65 -6 -160l-12 -8c-7 52 -21 94 -30 109c-12 22 -25 33 -91 33c-1 -20 -1 -56 -1 -106z" />
    <glyph glyph-name="Thorn.sc" unicode="&#xe034;" horiz-adv-x="460" 
d="M75 218v117c0 69 0 93 -1 113c-1 18 -5 24 -58 27l4 13c11 0 72 -4 113 -4c50 -1 96 4 123 4l1 -13c-47 -2 -51 -7 -52 -26c-2 -12 -2 -39 -3 -55c22 2 59 3 82 3c65 0 99 -16 120 -37c22 -21 34 -61 34 -103c0 -48 -18 -90 -40 -114c-32 -36 -80 -49 -139 -49
c-21 0 -42 4 -58 9c0 -21 0 -45 2 -65c2 -16 4 -22 64 -28l1 -13c-33 0 -63 3 -132 3c-49 0 -91 -3 -126 -3v13c54 4 59 6 61 30c2 38 4 112 4 178zM202 371l-1 -250c11 -6 22 -9 37 -9c21 0 40 13 48 29c10 19 20 57 20 105c0 54 -8 90 -19 108c-11 17 -32 27 -56 27
c-22 0 -29 -3 -29 -10z" />
    <glyph glyph-name="U.sc" unicode="&#xe035;" horiz-adv-x="480" 
d="M15 475v13c29 0 63 -4 110 -4c56 0 90 3 117 4l3 -13l-34 -4c-11 -2 -16 -6 -17 -22c-4 -59 -6 -242 0 -334c3 -47 17 -64 31 -76c15 -13 39 -20 62 -20c51 0 95 10 105 122c9 115 4 253 1 298c-1 22 -10 29 -33 32l-34 4l-1 13c23 0 46 -4 80 -4s52 3 75 4l2 -13l-27 -3
c-23 -3 -27 -11 -29 -32c-3 -79 -6 -246 -11 -292c-7 -72 -31 -111 -63 -133c-24 -17 -61 -29 -114 -29c-62 0 -107 17 -133 43c-26 27 -38 63 -38 119c0 121 -1 274 -2 300c-1 15 -5 22 -15 23z" />
    <glyph glyph-name="Uacute.sc" unicode="&#xe036;" horiz-adv-x="480" 
d="M15 475v13c29 0 63 -4 110 -4c56 0 90 3 117 4l3 -13l-34 -4c-11 -2 -16 -6 -17 -22c-4 -59 -6 -242 0 -334c3 -47 17 -64 31 -76c15 -13 39 -20 62 -20c51 0 95 10 105 122c9 115 4 253 1 298c-1 22 -10 29 -33 32l-34 4l-1 13c23 0 46 -4 80 -4s52 3 75 4l2 -13l-27 -3
c-23 -3 -27 -11 -29 -32c-3 -79 -6 -246 -11 -292c-7 -72 -31 -111 -63 -133c-24 -17 -61 -29 -114 -29c-62 0 -107 17 -133 43c-26 27 -38 63 -38 119c0 121 -1 274 -2 300c-1 15 -5 22 -15 23zM246 538l-8 8c23 31 65 93 83 116c19 25 37 35 51 35s26 -8 26 -26
c0 -20 -20 -41 -41 -56z" />
    <glyph glyph-name="Ucircumflex.sc" unicode="&#xe037;" horiz-adv-x="480" 
d="M15 475v13c29 0 63 -4 110 -4c56 0 90 3 117 4l3 -13l-34 -4c-11 -2 -16 -6 -17 -22c-4 -59 -6 -242 0 -334c3 -47 17 -64 31 -76c15 -13 39 -20 62 -20c51 0 95 10 105 122c9 115 4 253 1 298c-1 22 -10 29 -33 32l-34 4l-1 13c23 0 46 -4 80 -4s52 3 75 4l2 -13l-27 -3
c-23 -3 -27 -11 -29 -32c-3 -79 -6 -246 -11 -292c-7 -72 -31 -111 -63 -133c-24 -17 -61 -29 -114 -29c-62 0 -107 17 -133 43c-26 27 -38 63 -38 119c0 121 -1 274 -2 300c-1 15 -5 22 -15 23zM259 701l8 4c12 -30 46 -94 105 -162l-7 -8c-30 18 -74 49 -102 76
c-30 -27 -72 -58 -103 -76l-7 8c57 62 95 132 106 158z" />
    <glyph glyph-name="Udieresis.sc" unicode="&#xe038;" horiz-adv-x="480" 
d="M15 475v13c29 0 63 -4 110 -4c56 0 90 3 117 4l3 -13l-34 -4c-11 -2 -16 -6 -17 -22c-4 -59 -6 -242 0 -334c3 -47 17 -64 31 -76c15 -13 39 -20 62 -20c51 0 95 10 105 122c9 115 4 253 1 298c-1 22 -10 29 -33 32l-34 4l-1 13c23 0 46 -4 80 -4s52 3 75 4l2 -13l-27 -3
c-23 -3 -27 -11 -29 -32c-3 -79 -6 -246 -11 -292c-7 -72 -31 -111 -63 -133c-24 -17 -61 -29 -114 -29c-62 0 -107 17 -133 43c-26 27 -38 63 -38 119c0 121 -1 274 -2 300c-1 15 -5 22 -15 23zM184 658h1c28 0 47 -20 47 -50c0 -37 -26 -56 -49 -56c-25 0 -50 14 -50 51
c0 33 19 55 51 55zM339 658h1c27 0 46 -20 46 -50c0 -37 -26 -56 -49 -56c-25 0 -50 14 -50 51c0 33 20 55 52 55z" />
    <glyph glyph-name="Ugrave.sc" unicode="&#xe039;" horiz-adv-x="480" 
d="M15 475v13c29 0 63 -4 110 -4c56 0 90 3 117 4l3 -13l-34 -4c-11 -2 -16 -6 -17 -22c-4 -59 -6 -242 0 -334c3 -47 17 -64 31 -76c15 -13 39 -20 62 -20c51 0 95 10 105 122c9 115 4 253 1 298c-1 22 -10 29 -33 32l-34 4l-1 13c23 0 46 -4 80 -4s52 3 75 4l2 -13l-27 -3
c-23 -3 -27 -11 -29 -32c-3 -79 -6 -246 -11 -292c-7 -72 -31 -111 -63 -133c-24 -17 -61 -29 -114 -29c-62 0 -107 17 -133 43c-26 27 -38 63 -38 119c0 121 -1 274 -2 300c-1 15 -5 22 -15 23zM293 538c-62 43 -81 56 -108 76c-19 14 -36 31 -36 52c0 19 14 30 28 30
c16 0 28 -8 47 -33c21 -30 53 -81 77 -117z" />
    <glyph glyph-name="V.sc" unicode="&#xe03a;" horiz-adv-x="453" 
d="M-19 475v13c20 0 86 -4 121 -4c37 0 82 4 130 4l5 -13l-41 -4c-10 -1 -12 -8 -8 -22c18 -70 67 -235 100 -342c33 100 86 277 97 338c3 16 -2 20 -13 23c-15 2 -31 5 -55 7l-3 13c15 0 58 -4 83 -4c23 0 49 4 84 4l5 -13c-42 -1 -56 -8 -72 -46
c-33 -74 -94 -277 -142 -439c-13 2 -69 2 -81 0c-42 143 -100 330 -144 448c-12 30 -20 36 -66 37z" />
    <glyph glyph-name="W.sc" unicode="&#xe03b;" horiz-adv-x="658" 
d="M530 475l-4 13c23 0 52 -4 80 -4c23 0 48 4 80 4v-13c-46 -6 -51 -15 -64 -50c-29 -83 -81 -279 -120 -435c-23 2 -65 2 -76 0c-21 83 -67 243 -101 369c-35 -151 -63 -268 -82 -369c-8 2 -66 2 -76 0c-38 145 -88 353 -115 432c-16 47 -21 53 -65 53v13
c26 0 69 -4 118 -4c42 0 77 4 120 4l2 -13l-29 -4c-13 -2 -17 -8 -15 -17c14 -68 55 -253 71 -315c27 104 74 325 77 347c14 -2 51 -2 89 0c16 -65 63 -228 98 -362c30 107 68 264 75 321c2 13 -2 23 -22 25z" />
    <glyph glyph-name="X.sc" unicode="&#xe03c;" horiz-adv-x="440" 
d="M439 14l31 -4l1 -13c-34 1 -79 3 -133 3c-59 0 -81 -3 -126 -3l-1 13c40 5 47 9 42 24l-77 169c-33 -55 -66 -118 -81 -151c-12 -26 -6 -34 14 -36l46 -6l3 -13c-24 0 -51 3 -92 3c-33 0 -52 -3 -83 -3l-2 13c40 3 50 8 70 31c27 33 78 119 117 179
c-57 127 -95 201 -116 236c-7 12 -16 16 -58 19l-3 13c39 0 81 -4 128 -4c39 0 84 4 120 4l4 -12l-35 -4c-12 -1 -13 -8 -9 -17c9 -24 32 -75 63 -139c30 46 61 103 72 130c6 14 2 23 -20 26l-28 3l2 13c28 0 57 -4 75 -4c30 0 52 4 82 4l3 -13c-54 -4 -67 -16 -88 -39
c-20 -22 -51 -79 -90 -137c71 -145 111 -227 130 -256c13 -17 22 -27 39 -29z" />
    <glyph glyph-name="Y.sc" unicode="&#xe03d;" horiz-adv-x="422" 
d="M357 10l3 -13c-45 0 -94 3 -152 3c-52 0 -91 -3 -134 -3l-2 13c25 2 41 4 56 6c16 2 21 11 23 27c3 22 6 115 6 153c0 9 -2 21 -8 35c-11 25 -75 158 -106 211c-18 28 -30 31 -68 33v13c15 0 82 -4 133 -4c53 0 92 4 118 4l2 -13l-33 -4c-10 -1 -15 -7 -11 -19
c11 -28 64 -141 92 -206c35 77 66 168 77 201c3 14 -2 22 -12 23c-14 2 -31 4 -45 5v13c16 0 50 -4 81 -4c28 0 44 4 76 4l3 -13c-41 -2 -56 -9 -73 -36c-26 -43 -70 -151 -90 -195c-6 -14 -10 -26 -10 -41c-1 -41 0 -141 5 -171c2 -9 5 -15 18 -16c10 -1 26 -4 51 -6z" />
    <glyph glyph-name="Yacute.sc" unicode="&#xe03e;" horiz-adv-x="422" 
d="M357 10l3 -13c-45 0 -94 3 -152 3c-52 0 -91 -3 -134 -3l-2 13c25 2 41 4 56 6c16 2 21 11 23 27c3 22 6 115 6 153c0 9 -2 21 -8 35c-11 25 -75 158 -106 211c-18 28 -30 31 -68 33v13c15 0 82 -4 133 -4c53 0 92 4 118 4l2 -13l-33 -4c-10 -1 -15 -7 -11 -19
c11 -28 64 -141 92 -206c35 77 66 168 77 201c3 14 -2 22 -12 23c-14 2 -31 4 -45 5v13c16 0 50 -4 81 -4c28 0 44 4 76 4l3 -13c-41 -2 -56 -9 -73 -36c-26 -43 -70 -151 -90 -195c-6 -14 -10 -26 -10 -41c-1 -41 0 -141 5 -171c2 -9 5 -15 18 -16c10 -1 26 -4 51 -6z
M211 538l-8 8c23 31 65 93 83 116c19 25 37 35 51 35s26 -8 26 -26c0 -20 -20 -41 -41 -56z" />
    <glyph glyph-name="Ydieresis.sc" unicode="&#xe03f;" horiz-adv-x="422" 
d="M357 10l3 -13c-45 0 -94 3 -152 3c-52 0 -91 -3 -134 -3l-2 13c25 2 41 4 56 6c16 2 21 11 23 27c3 22 6 115 6 153c0 9 -2 21 -8 35c-11 25 -75 158 -106 211c-18 28 -30 31 -68 33v13c15 0 82 -4 133 -4c53 0 92 4 118 4l2 -13l-33 -4c-10 -1 -15 -7 -11 -19
c11 -28 64 -141 92 -206c35 77 66 168 77 201c3 14 -2 22 -12 23c-14 2 -31 4 -45 5v13c16 0 50 -4 81 -4c28 0 44 4 76 4l3 -13c-41 -2 -56 -9 -73 -36c-26 -43 -70 -151 -90 -195c-6 -14 -10 -26 -10 -41c-1 -41 0 -141 5 -171c2 -9 5 -15 18 -16c10 -1 26 -4 51 -6z
M154 658h1c28 0 47 -20 47 -50c0 -37 -26 -56 -49 -56c-25 0 -50 14 -50 51c0 33 19 55 51 55zM309 658h1c27 0 46 -20 46 -50c0 -37 -26 -56 -49 -56c-25 0 -50 14 -50 51c0 33 20 55 52 55z" />
    <glyph glyph-name="Z.sc" unicode="&#xe040;" horiz-adv-x="442" 
d="M53 313l-11 4c11 81 13 138 10 178c17 -5 34 -7 53 -10c17 -2 50 -2 103 -2c43 0 78 0 113 1c36 0 63 2 93 3c-5 -27 -16 -54 -20 -61l-99 -190l-116 -219c127 0 172 12 193 45c25 38 35 70 46 122l11 -6c-4 -45 -12 -115 -13 -183c-22 2 -48 3 -77 4c-30 1 -56 1 -89 1
h-154c-33 0 -44 0 -70 -1l-6 11c59 101 187 341 246 456h-45c-84 0 -115 -19 -134 -57c-13 -29 -21 -54 -34 -96z" />
    <glyph glyph-name="Zcaron.sc" unicode="&#xe041;" horiz-adv-x="442" 
d="M53 313l-11 4c11 81 13 138 10 178c17 -5 34 -7 53 -10c17 -2 50 -2 103 -2c43 0 78 0 113 1c36 0 63 2 93 3c-5 -27 -16 -54 -20 -61l-99 -190l-116 -219c127 0 172 12 193 45c25 38 35 70 46 122l11 -6c-4 -45 -12 -115 -13 -183c-22 2 -48 3 -77 4c-30 1 -56 1 -89 1
h-154c-33 0 -44 0 -70 -1l-6 11c59 101 187 341 246 456h-45c-84 0 -115 -19 -134 -57c-13 -29 -21 -54 -34 -96zM234 539l-8 -3c-12 30 -46 94 -105 162l7 8c30 -18 74 -50 102 -77c30 27 72 59 103 77l7 -8c-57 -62 -95 -133 -106 -159z" />
    <glyph glyph-name="c_t" unicode="&#xe042;" horiz-adv-x="669" 
d="M665 418l-2 -16l-94 -6c-1 -36 -3 -102 -3 -175c0 -80 0 -140 4 -175c2 -21 10 -29 25 -29c39 0 64 50 68 85h5l9 -22c-17 -56 -65 -93 -135 -93c-36 0 -67 11 -83 29c-12 14 -16 30 -17 58c-1 75 3 232 4 323l-52 6l4 15h50c1 47 0 66 0 88c0 16 -3 22 -7 27
c-8 9 -54 16 -72 16c-73 0 -90 -20 -90 -74c0 -21 4 -36 13 -51c48 -12 76 -46 76 -90c0 -42 -33 -57 -59 -57c-10 0 -19 2 -31 9c-7 4 -13 12 -10 24c4 17 7 33 7 45c0 42 -14 64 -44 64c-47 0 -74 -79 -74 -201c0 -43 6 -94 17 -125c18 -47 44 -71 86 -71
c56 0 83 38 101 95l13 -7c-24 -82 -67 -123 -159 -123c-80 0 -121 21 -153 67c-25 34 -37 83 -37 148c0 127 69 231 210 231c16 0 25 -2 36 -4c-11 13 -17 31 -17 49c0 36 23 96 139 96c6 0 60 -2 68 -5c28 5 96 21 113 27l2 -3c-1 -25 -6 -130 -6 -175h95z" />
    <glyph glyph-name="cent.fitted" unicode="&#xe043;" horiz-adv-x="431" 
d="M389 228l-5 -33c-29 -56 -89 -81 -130 -84l-2 -75l-24 -9l6 83c-71 0 -120 21 -150 58c-27 31 -45 75 -45 143c0 125 81 219 213 221l2 67l24 6l-4 -73c78 -4 119 -40 119 -92c0 -32 -20 -47 -46 -47c-19 0 -37 11 -30 31c4 11 6 23 6 33c0 31 -16 53 -50 59
c-7 -129 -15 -250 -18 -379c59 -1 102 24 125 94zM165 325v-1c0 -64 9 -124 25 -151c12 -19 25 -29 45 -34c6 125 12 249 17 379c-70 -9 -87 -121 -87 -193z" />
    <glyph glyph-name="currency.taboldstyle" unicode="&#xe044;" horiz-adv-x="430" 
d="M216 378h-1c-57 0 -86 -65 -86 -150c0 -108 37 -150 84 -150c58 0 85 64 85 148c0 76 -19 152 -82 152zM217 399h1c28 0 64 -8 91 -28l50 65l34 -35l-61 -54c30 -30 40 -75 40 -121c0 -41 -13 -87 -40 -117l64 -60l-33 -34l-55 71c-25 -18 -57 -30 -93 -30
c-37 0 -72 11 -97 28l-53 -68l-31 34l61 58c-29 32 -40 75 -40 115c0 49 14 93 45 124l-63 54l33 36l53 -68c28 21 63 30 94 30z" />
    <glyph glyph-name="dollar.fitted" unicode="&#xe045;" horiz-adv-x="431" 
d="M315 119v1c0 54 -34 74 -90 107l-6 -198c55 3 96 35 96 90zM130 494v-1c0 -53 40 -78 85 -104l8 193c-67 -2 -93 -44 -93 -88zM227 663l23 6l-4 -72c40 -2 80 -17 101 -35l16 40l9 -5c-12 -70 -18 -136 -17 -180l-13 2c0 86 -29 147 -98 162l-12 -203
c76 -46 102 -60 120 -75c31 -25 48 -62 48 -116c0 -45 -15 -82 -37 -108c-32 -37 -81 -62 -144 -65l-2 -72l-24 -9l4 81c-60 0 -114 17 -156 25c7 52 12 107 14 168l13 5c-3 -132 59 -181 130 -183l9 208c-30 16 -70 41 -96 60c-49 36 -63 86 -63 130c0 56 23 99 53 126
c26 24 71 43 124 44z" />
    <glyph glyph-name="dotlessi.sc" unicode="&#xe046;" horiz-adv-x="275" 
d="M75 161v166c0 90 -1 110 -2 126s-4 19 -52 22v13c21 0 67 -4 113 -4c54 0 97 4 119 4l1 -13c-45 -4 -49 -9 -50 -24c-1 -17 -3 -55 -3 -123v-167c0 -72 0 -110 3 -128c2 -16 3 -19 52 -23l-1 -13c-25 0 -83 3 -124 3c-42 0 -91 -3 -114 -3l1 13c48 4 53 6 54 23
c2 18 3 56 3 128z" />
    <glyph glyph-name="egrave.superior" unicode="&#xe047;" horiz-adv-x="299" 
d="M180 592l-10 -5c-34 29 -71 56 -78 63c-8 7 -15 17 -16 27c-1 17 14 28 25 29c13 0 22 -5 30 -16c11 -16 37 -76 49 -98zM271 380c-17 -59 -61 -80 -119 -80c-48 0 -81 13 -102 37c-16 19 -26 48 -26 84c0 72 42 139 137 139c98 0 112 -68 112 -98c0 -10 -3 -17 -9 -21
c-7 -3 -29 -6 -49 -7c-26 -2 -64 -1 -96 -1c-1 -27 4 -51 12 -70c9 -23 26 -37 56 -37c34 0 60 16 74 58zM158 548h-1c-23 0 -36 -45 -37 -101c9 0 19 -1 31 -1s21 1 29 2c7 2 11 9 11 17c0 39 -5 83 -33 83z" />
    <glyph glyph-name="f_i.sc" unicode="&#xe048;" horiz-adv-x="686" 
d="M16 475l-1 13c24 0 99 -4 130 -4h117c73 0 106 5 128 7c-5 -60 -3 -127 -2 -151h-13c-3 23 -8 52 -25 84c-13 29 -34 43 -101 43h-31c-9 0 -14 -3 -14 -10c-1 -7 -3 -55 -3 -133v-76c8 -1 33 -1 45 -1c51 0 77 15 83 77l12 -2c-4 -52 -3 -161 -1 -183h-11
c-8 53 -17 91 -84 91c-15 0 -36 -1 -44 -2v-85c0 -76 0 -93 2 -108c1 -12 7 -18 19 -19c8 -1 30 -6 50 -6l-2 -13c-28 0 -88 3 -131 3s-96 -3 -126 -3l-2 13l37 4c12 1 19 6 21 20c3 22 5 74 5 142v155c0 80 -1 113 -2 124s-7 15 -18 16zM486 161v166c0 90 -1 110 -2 126
s-4 19 -52 22v13c21 0 67 -4 113 -4c54 0 97 4 119 4l1 -13c-45 -4 -49 -9 -50 -24c-1 -17 -3 -55 -3 -123v-167c0 -72 0 -110 3 -128c2 -16 3 -19 52 -23l-1 -13c-25 0 -83 3 -124 3c-42 0 -91 -3 -114 -3l1 13c48 4 53 6 54 23c2 18 3 56 3 128z" />
    <glyph glyph-name="f_l.sc" unicode="&#xe049;" horiz-adv-x="821" 
d="M16 475l-1 13c24 0 99 -4 130 -4h117c73 0 106 5 128 7c-5 -60 -3 -127 -2 -151h-13c-3 23 -8 52 -25 84c-13 29 -34 43 -101 43h-31c-9 0 -14 -3 -14 -10c-1 -7 -3 -55 -3 -133v-76c8 -1 33 -1 45 -1c51 0 77 15 83 77l12 -2c-4 -52 -3 -161 -1 -183h-11
c-8 53 -17 91 -84 91c-15 0 -36 -1 -44 -2v-85c0 -76 0 -93 2 -108c1 -12 7 -18 19 -19c8 -1 30 -6 50 -6l-2 -13c-28 0 -88 3 -131 3s-96 -3 -126 -3l-2 13l37 4c12 1 19 6 21 20c3 22 5 74 5 142v155c0 80 -1 113 -2 124s-7 15 -18 16zM797 163l12 -3
c-9 -48 -14 -122 -19 -164c-14 2 -48 4 -90 4c-43 1 -95 0 -143 0c-24 0 -53 -1 -79 -1c-25 -1 -47 -2 -58 -2v13l42 4c15 1 19 8 20 20c2 23 4 85 4 162v142c0 77 -1 99 -2 114c-1 13 -6 18 -19 19l-36 4l1 13c26 0 71 -4 122 -4c47 0 81 4 126 4l2 -13l-43 -4
c-13 -1 -18 -6 -19 -18c-2 -30 -4 -88 -5 -157v-103c-1 -84 0 -143 2 -164c0 -9 4 -13 23 -13c55 0 85 6 105 30c22 25 41 59 54 117z" />
    <glyph glyph-name="florin.fitted" unicode="&#xe04a;" horiz-adv-x="431" 
d="M14 323l11 26c17 -2 46 -3 76 -3c18 128 44 180 74 215c47 54 92 70 141 70s91 -23 91 -69c0 -36 -26 -51 -54 -51c-13 0 -35 7 -32 25c3 12 5 24 5 37c0 30 -9 42 -26 42s-27 -18 -35 -54c-10 -45 -22 -125 -32 -215c50 0 75 1 109 3l-9 -26c-23 0 -55 2 -104 2
c-15 -116 -27 -197 -42 -269c-21 -109 -55 -159 -114 -197c-35 -22 -68 -31 -106 -31c-44 0 -77 24 -77 56c0 28 22 54 52 54c17 0 26 -8 31 -28c8 -31 20 -57 37 -57c24 0 28 20 35 67c19 128 40 302 53 405c-12 0 -40 0 -84 -2z" />
    <glyph glyph-name="florin.oldstyle" unicode="&#xe04b;" horiz-adv-x="428" 
d="M30 297l10 24c16 -2 42 -2 69 -2c17 119 42 167 70 200c43 50 96 65 143 65s84 -23 84 -65c0 -35 -25 -50 -52 -50c-13 0 -35 7 -32 25c3 11 5 23 5 35c0 29 -7 40 -23 40s-28 -15 -35 -48c-10 -42 -20 -110 -30 -202c47 0 70 0 103 2l-9 -25c-20 1 -52 2 -98 2
c-14 -108 -23 -175 -36 -243c-20 -101 -52 -153 -107 -188c-33 -21 -68 -29 -104 -29c-46 0 -76 23 -76 51s24 52 49 52c15 0 24 -9 29 -29c7 -29 18 -52 34 -52c22 0 27 11 36 67c18 120 34 270 47 371c-10 0 -33 1 -77 -1z" />
    <glyph glyph-name="g.superior" unicode="&#xe04c;" horiz-adv-x="322" 
d="M91 264l3 -6c-13 -6 -22 -12 -22 -31c0 -25 31 -51 87 -51c72 0 101 32 101 61c0 19 -15 32 -38 32h-111c-33 0 -58 8 -76 28c-10 10 -16 29 -16 45c0 32 24 55 43 68c-13 13 -22 30 -22 56c0 73 70 94 117 94c38 0 61 -9 67 -13c17 13 40 31 62 31c16 0 31 -12 31 -19
c-1 -8 -20 -28 -28 -30c-7 7 -20 12 -33 12c-8 0 -13 0 -18 -2c20 -15 33 -39 33 -67c0 -70 -70 -91 -119 -91c-39 0 -67 9 -79 19c-16 -4 -19 -16 -19 -29s12 -22 33 -22c39 0 75 2 146 2c16 0 33 -4 50 -17c16 -12 27 -35 27 -57c0 -80 -88 -120 -172 -120
c-73 0 -117 25 -117 62c0 13 6 21 25 31c9 6 34 12 45 14zM156 546h-1c-17 0 -29 -12 -29 -75c0 -55 11 -77 30 -77c21 0 28 28 28 76c0 37 -4 76 -28 76z" />
    <glyph glyph-name="germandbls.sc" unicode="&#xe04d;" horiz-adv-x="789" 
d="M35 170l12 5c-1 -117 69 -172 138 -172c59 0 84 34 84 74c0 34 -14 53 -45 72s-86 49 -120 69c-45 28 -69 73 -69 122c0 56 20 93 51 119c25 22 65 39 121 39c52 0 92 -19 109 -33l20 40l10 -4c-12 -67 -12 -131 -10 -171l-12 -2c-7 76 -50 154 -123 154
c-41 0 -71 -26 -71 -73c0 -31 14 -55 48 -75c68 -35 114 -60 142 -81c36 -27 51 -60 52 -107c0 -44 -16 -79 -40 -105c-29 -32 -81 -55 -151 -55c-31 0 -67 5 -103 13c-18 4 -30 7 -49 11c4 40 6 83 6 160zM430 170l12 5c-1 -117 69 -172 138 -172c59 0 84 34 84 74
c0 34 -14 53 -45 72s-86 49 -120 69c-45 28 -69 73 -69 122c0 56 20 93 51 119c25 22 65 39 121 39c52 0 92 -19 109 -33l20 40l10 -4c-12 -67 -12 -131 -10 -171l-12 -2c-7 76 -50 154 -123 154c-41 0 -71 -26 -71 -73c0 -31 14 -55 48 -75c68 -35 114 -60 142 -81
c36 -27 51 -60 52 -107c0 -44 -16 -79 -40 -105c-29 -32 -81 -55 -151 -55c-31 0 -67 5 -103 13c-18 4 -30 7 -49 11c4 40 6 83 6 160z" />
    <glyph glyph-name="numbersign.oldstyle" unicode="&#xe04e;" horiz-adv-x="418" 
d="M263 276h-91l-23 -95h92zM192 465l30 3c-7 -17 -20 -68 -34 -122h91c10 44 20 88 26 119l32 3c-11 -32 -24 -77 -35 -122c38 0 65 1 83 1c-8 -21 -14 -54 -17 -72h-81l-24 -94c49 2 68 2 92 2c-4 -13 -12 -50 -16 -73c-20 1 -46 0 -91 2c-10 -52 -20 -102 -28 -135
l-30 -3c7 21 21 76 36 138h-91c-15 -58 -25 -110 -31 -135l-30 -6c6 16 17 65 37 141c-25 -2 -46 0 -79 -2c7 23 12 50 15 72c15 -1 36 -1 80 -1l24 95c-32 1 -66 0 -92 -1c6 18 11 48 15 72c19 0 57 0 93 -1c10 43 20 90 25 119z" />
    <glyph glyph-name="orn.001" unicode="&#xe04f;" horiz-adv-x="865" 
d="M501 422c51 6 75 31 75 66c0 29 -15 49 -37 64c-9 6 -12 14 -8 21c5 11 26 18 41 14c-5 6 -6 8 -29 45s1 46 30 38c64 -16 86 -70 86 -112c0 -69 -53 -144 -160 -152c-4 -40 -15 -80 -24 -107c-3 -10 5 -18 15 -4c22 31 64 69 114 69c74 0 108 -57 119 -192
c6 -77 23 -88 43 -88c15 0 32 16 32 50c0 30 -19 45 -26 48s-10 7 -4 13c8 9 22 20 37 20c13 0 35 -13 35 -50c0 -33 -22 -63 -54 -95c-35 -35 -60 -39 -78 -39c-54 0 -89 37 -108 123c-16 72 -58 76 -78 76c-21 0 -34 -18 -29 -26c4 -8 20 -37 20 -77
c0 -47 -34 -93 -63 -131c-28 -37 -36 -61 -36 -88c0 -25 9 -29 22 -29c14 0 27 15 54 63c8 13 17 -8 17 -19c2 -45 -33 -68 -61 -68c-23 0 -40 9 -54 23c-11 12 -18 13 -30 17c-24 7 -67 34 -67 95c0 35 11 71 64 131c36 41 43 61 41 79c0 18 -17 42 -52 42
c-48 0 -63 -28 -101 -99c-30 -54 -70 -66 -109 -66c-53 0 -113 46 -113 100c0 45 29 58 38 60c6 2 4 -3 2 -12c-12 -43 16 -71 56 -71c49 0 65 60 44 115c-4 9 -4 16 7 33c12 19 58 75 140 75c64 0 87 -30 101 -58c7 -15 19 -15 26 -5c21 28 33 57 38 91
c-83 7 -137 43 -137 112c0 35 28 66 66 77c-17 14 -51 22 -83 22c-83 0 -137 -52 -137 -116c0 -14 15 -25 26 -33s11 -13 11 -18c0 -6 -10 -13 -19 -9c-21 7 -34 -2 -50 -6c-8 -5 -10 -3 -17 6c-5 9 -6 23 -6 35c0 23 9 64 37 97c35 42 90 72 155 72
c135 0 179 -139 179 -201c0 -5 0 -16 -1 -21zM479 421c1 10 1 16 1 22c0 48 -20 107 -63 142c-25 -6 -43 -36 -43 -61c0 -71 52 -100 105 -103z" />
    <glyph glyph-name="orn.002" unicode="&#xe050;" horiz-adv-x="865" 
d="M364 104c-51 -6 -75 -31 -75 -66c0 -29 15 -49 37 -64c9 -6 12 -14 8 -21c-5 -11 -26 -18 -41 -14c5 -6 6 -8 29 -45s-1 -46 -30 -38c-64 16 -86 70 -86 112c0 69 53 144 160 152c4 40 15 80 24 107c3 10 -5 18 -15 4c-22 -31 -64 -69 -114 -69c-74 0 -108 57 -119 192
c-6 77 -23 88 -43 88c-15 0 -32 -16 -32 -50c0 -30 19 -45 26 -48s10 -7 4 -13c-8 -9 -22 -20 -37 -20c-13 0 -35 13 -35 50c0 33 22 63 54 95c35 35 60 39 78 39c54 0 89 -37 108 -123c16 -72 58 -76 78 -76c21 0 34 18 29 26c-4 8 -20 37 -20 77c0 47 34 93 63 131
c28 37 36 61 36 88c0 25 -9 29 -22 29c-14 0 -27 -15 -54 -63c-8 -13 -17 8 -17 19c-2 45 33 68 61 68c23 0 40 -9 54 -23c11 -12 18 -13 30 -17c24 -7 67 -34 67 -95c0 -35 -11 -71 -64 -131c-36 -41 -43 -61 -41 -79c0 -18 17 -42 52 -42c48 0 63 28 101 99
c30 54 70 66 109 66c53 0 113 -46 113 -100c0 -45 -29 -58 -38 -60c-6 -2 -4 3 -2 12c12 43 -16 71 -56 71c-49 0 -65 -60 -44 -115c4 -9 4 -16 -7 -33c-12 -19 -58 -75 -140 -75c-64 0 -87 30 -101 58c-7 15 -19 15 -26 5c-21 -28 -33 -57 -38 -91c83 -7 137 -43 137 -112
c0 -35 -28 -66 -66 -77c17 -14 51 -22 83 -22c83 0 137 52 137 116c0 14 -15 25 -26 33s-11 13 -11 18c0 6 10 13 19 9c21 -7 34 2 50 6c8 5 10 3 17 -6c5 -9 6 -23 6 -35c0 -23 -9 -64 -37 -97c-35 -42 -90 -72 -155 -72c-135 0 -179 139 -179 201c0 5 0 16 1 21zM386 105
c-1 -10 -1 -16 -1 -22c0 -48 20 -107 63 -142c25 6 43 36 43 61c0 71 -52 100 -105 103z" />
    <glyph glyph-name="orn.003" unicode="&#xe051;" horiz-adv-x="865" 
d="M592 196c6 -51 31 -75 66 -75c29 0 49 15 64 37c6 9 14 12 21 8c11 -5 18 -26 14 -41c6 5 8 6 45 29s46 -1 38 -30c-16 -64 -70 -86 -112 -86c-69 0 -144 53 -152 160c-40 4 -80 15 -107 24c-10 3 -18 -5 -4 -15c31 -22 69 -64 69 -114c0 -74 -57 -108 -192 -119
c-77 -6 -88 -23 -88 -43c0 -15 16 -32 50 -32c30 0 45 19 48 26s7 10 13 4c9 -8 20 -22 20 -37c0 -13 -13 -35 -50 -35c-33 0 -63 22 -95 54c-35 35 -39 60 -39 78c0 54 37 89 123 108c72 16 76 58 76 78c0 21 -18 34 -26 29c-8 -4 -37 -20 -77 -20c-47 0 -93 34 -131 63
c-37 28 -61 36 -88 36c-25 0 -29 -9 -29 -22c0 -14 15 -27 63 -54c13 -8 -8 -17 -19 -17c-45 -2 -68 33 -68 61c0 23 9 40 23 54c12 11 13 18 17 30c7 24 34 67 95 67c35 0 71 -11 131 -64c41 -36 61 -43 79 -41c18 0 42 17 42 52c0 48 -28 63 -99 101
c-54 30 -66 70 -66 109c0 53 46 113 100 113c45 0 58 -29 60 -38c2 -6 -3 -4 -12 -2c-43 12 -71 -16 -71 -56c0 -49 60 -65 115 -44c9 4 16 4 33 -7c19 -12 75 -58 75 -140c0 -64 -30 -87 -58 -101c-15 -7 -15 -19 -5 -26c28 -21 57 -33 91 -38c7 83 43 137 112 137
c35 0 66 -28 77 -66c14 17 22 51 22 83c0 83 -52 137 -116 137c-14 0 -25 -15 -33 -26s-13 -11 -18 -11c-6 0 -13 10 -9 19c7 21 -2 34 -6 50c-5 8 -3 10 6 17c9 5 23 6 35 6c23 0 64 -9 97 -37c42 -35 72 -90 72 -155c0 -135 -139 -179 -201 -179c-5 0 -16 0 -21 1z
M591 218c10 -1 16 -1 22 -1c48 0 107 20 142 63c-6 25 -36 43 -61 43c-71 0 -100 -52 -103 -105z" />
    <glyph glyph-name="orn.004" unicode="&#xe052;" horiz-adv-x="865" 
d="M276 331c-6 51 -31 75 -66 75c-29 0 -49 -15 -64 -37c-6 -9 -14 -12 -21 -8c-11 5 -18 26 -14 41c-6 -5 -8 -6 -45 -29s-46 1 -38 30c16 64 70 86 112 86c69 0 144 -53 152 -160c40 -4 80 -15 107 -24c10 -3 18 5 4 15c-31 22 -69 64 -69 114c0 74 57 108 192 119
c77 6 88 23 88 43c0 15 -16 32 -50 32c-30 0 -45 -19 -48 -26s-7 -10 -13 -4c-9 8 -20 22 -20 37c0 13 13 35 50 35c33 0 63 -22 95 -54c35 -35 39 -60 39 -78c0 -54 -37 -89 -123 -108c-72 -16 -76 -58 -76 -78c0 -21 18 -34 26 -29c8 4 37 20 77 20c47 0 93 -34 131 -63
c37 -28 61 -36 88 -36c25 0 29 9 29 22c0 14 -15 27 -63 54c-13 8 8 17 19 17c45 2 68 -33 68 -61c0 -23 -9 -40 -23 -54c-12 -11 -13 -18 -17 -30c-7 -24 -34 -67 -95 -67c-35 0 -71 11 -131 64c-41 36 -61 43 -79 41c-18 0 -42 -17 -42 -52c0 -48 28 -63 99 -101
c54 -30 66 -70 66 -109c0 -53 -46 -113 -100 -113c-45 0 -58 29 -60 38c-2 6 3 4 12 2c43 -12 71 16 71 56c0 49 -60 65 -115 44c-9 -4 -16 -4 -33 7c-19 12 -75 58 -75 140c0 64 30 87 58 101c15 7 15 19 5 26c-28 21 -57 33 -91 38c-7 -83 -43 -137 -112 -137
c-35 0 -66 28 -77 66c-14 -17 -22 -51 -22 -83c0 -83 52 -137 116 -137c14 0 25 15 33 26s13 11 18 11c6 0 13 -10 9 -19c-7 -21 2 -34 6 -50c5 -8 3 -10 -6 -17c-9 -5 -23 -6 -35 -6c-23 0 -64 9 -97 37c-42 35 -72 90 -72 155c0 135 139 179 201 179c5 0 16 0 21 -1z
M277 309c-10 1 -16 1 -22 1c-48 0 -107 -20 -142 -63c6 -25 36 -43 61 -43c71 0 100 52 103 105z" />
    <glyph glyph-name="orn.005" unicode="&#xe053;" horiz-adv-x="877" 
d="M664 343c-3 -25 -6 -43 -6 -60c0 -119 84 -169 125 -169c7 0 18 0 22 4c3 7 3 7 3 21c0 96 -57 174 -144 204zM653 370c15 43 36 77 69 99c14 10 34 15 53 15c55 0 77 -44 77 -65c0 -23 -23 -34 -30 -36s-11 -2 -15 5c-6 11 -24 30 -51 30c-36 0 -71 -24 -83 -56
c116 -48 179 -151 179 -262c0 -52 -17 -105 -45 -130c-32 7 -61 -4 -69 -7c-7 -7 -10 -4 -10 2c0 9 0 13 10 20c11 7 49 17 67 89c-85 -10 -171 87 -171 198c0 20 3 44 10 79c-14 3 -28 5 -42 5c-68 0 -123 -26 -130 -96c40 11 59 3 71 -20c11 -20 18 -45 18 -68
c0 -54 -20 -108 -58 -145c-33 -31 -98 -57 -179 -57s-153 25 -207 74c-45 40 -55 78 -55 111c0 31 10 62 22 92c13 33 23 61 23 84c0 53 -54 54 -83 28c-7 -7 -14 -7 -14 8c0 27 18 45 43 45c33 0 56 -22 68 -47c11 -24 6 -70 -6 -110c-10 -33 -16 -65 -16 -90
c0 -33 25 -62 57 -62c43 0 79 36 79 87c0 18 -8 57 -25 97c-8 18 -11 25 -3 47c7 18 28 67 93 67c43 0 76 -7 97 -22c18 -10 22 -17 22 -31c4 -14 11 -47 22 -65c4 36 43 96 143 96c24 0 47 -3 69 -9z" />
    <glyph glyph-name="orn.006" unicode="&#xe054;" horiz-adv-x="877" 
d="M664 37c87 30 144 108 144 204c0 14 0 14 -3 21c-4 4 -15 4 -22 4c-41 0 -125 -50 -125 -169c0 -17 3 -35 6 -60zM653 9c-22 -6 -45 -9 -69 -9c-100 0 -139 60 -143 97c-11 -18 -18 -51 -22 -65c0 -14 -4 -21 -22 -31c-21 -15 -54 -22 -97 -22c-65 0 -86 49 -93 67
c-8 22 -5 29 3 47c17 40 25 79 25 97c0 51 -36 87 -79 87c-32 0 -57 -29 -57 -62c0 -25 6 -57 16 -90c12 -40 17 -86 6 -110c-12 -25 -35 -47 -68 -47c-25 0 -43 18 -43 45c0 14 7 14 14 7c29 -26 83 -25 83 28c0 23 -10 51 -23 83c-12 32 -22 63 -22 94c0 33 10 71 55 111
c54 49 126 74 207 74s146 -26 179 -57c38 -37 58 -91 58 -145c0 -23 -7 -48 -18 -69c-12 -23 -31 -31 -71 -20c7 -70 62 -96 130 -96c14 0 28 2 42 5c-7 35 -10 59 -10 79c0 112 86 209 171 199c-18 72 -56 82 -67 89c-10 7 -10 11 -10 20c0 6 3 9 10 2c8 -3 37 -14 69 -7
c28 -25 45 -78 45 -130c0 -111 -63 -216 -179 -264c12 -32 47 -55 83 -55c27 0 45 19 51 29c4 7 8 7 15 5s30 -13 30 -35c0 -21 -22 -65 -77 -65c-19 0 -39 5 -53 15c-33 22 -54 56 -69 99z" />
    <glyph glyph-name="orn.007" unicode="&#xe055;" horiz-adv-x="877" 
d="M213 343c-87 -30 -144 -108 -144 -204c0 -14 0 -14 3 -21c4 -4 15 -4 22 -4c41 0 125 50 125 169c0 17 -3 35 -6 60zM224 370c22 6 45 9 69 9c100 0 139 -60 143 -96c11 18 18 51 22 65c0 14 4 21 22 31c21 15 54 22 97 22c65 0 86 -49 93 -67c8 -22 5 -29 -3 -47
c-17 -40 -25 -79 -25 -97c0 -51 36 -87 79 -87c32 0 57 29 57 62c0 25 -6 57 -16 90c-12 40 -17 86 -6 110c12 25 35 47 68 47c25 0 43 -18 43 -45c0 -14 -7 -14 -14 -8c-29 26 -83 25 -83 -28c0 -23 10 -51 23 -83c12 -31 22 -62 22 -93c0 -33 -10 -71 -55 -111
c-54 -49 -126 -74 -207 -74s-146 26 -179 57c-38 37 -58 91 -58 145c0 23 7 48 18 68c12 23 31 31 71 20c-7 70 -62 96 -130 96c-14 0 -28 -2 -42 -5c7 -35 10 -59 10 -79c0 -111 -86 -208 -171 -198c18 -72 56 -82 67 -89c10 -7 10 -11 10 -20c0 -6 -3 -9 -10 -2
c-8 3 -37 14 -69 7c-28 25 -45 78 -45 130c0 111 63 214 179 262c-12 32 -47 56 -83 56c-27 0 -45 -19 -51 -30c-4 -7 -8 -7 -15 -5s-30 13 -30 36c0 21 22 65 77 65c19 0 39 -5 53 -15c33 -22 54 -56 69 -99z" />
    <glyph glyph-name="orn.008" unicode="&#xe056;" horiz-adv-x="877" 
d="M213 37c3 25 6 43 6 60c0 119 -84 169 -125 169c-7 0 -18 0 -22 -4c-3 -7 -3 -7 -3 -21c0 -96 57 -174 144 -204zM224 9c-15 -44 -36 -78 -69 -99c-14 -10 -34 -15 -53 -15c-55 0 -77 44 -77 65c0 22 23 33 30 35s11 2 15 -5c6 -10 24 -29 51 -29c36 0 71 23 83 55
c-116 48 -179 153 -179 264c0 52 17 105 45 130c32 -7 61 4 69 7c7 7 10 4 10 -2c0 -9 0 -13 -10 -20c-11 -7 -49 -17 -67 -89c85 10 171 -87 171 -199c0 -20 -3 -44 -10 -79c14 -3 28 -5 42 -5c68 0 123 26 130 96c-40 -11 -59 -3 -71 20c-11 21 -18 46 -18 69
c0 54 20 108 58 145c33 31 98 57 179 57s153 -25 207 -74c45 -40 55 -78 55 -111c0 -31 -10 -62 -22 -93c-13 -33 -23 -61 -23 -84c0 -53 54 -54 83 -28c7 7 14 7 14 -7c0 -27 -18 -45 -43 -45c-33 0 -56 22 -68 47c-11 24 -6 70 6 110c10 33 16 65 16 90
c0 33 -25 62 -57 62c-43 0 -79 -36 -79 -87c0 -18 8 -57 25 -97c8 -18 11 -25 3 -47c-7 -18 -28 -67 -93 -67c-43 0 -76 7 -97 22c-18 10 -22 17 -22 31c-4 14 -11 47 -22 64c-4 -36 -43 -96 -143 -96c-24 0 -47 3 -69 9z" />
    <glyph glyph-name="orn.009" unicode="&#xe057;" horiz-adv-x="718" 
d="M447 33l-8 12c14 18 15 61 15 76c0 67 -15 129 -44 166c-31 41 -79 58 -126 58c-58 0 -139 -53 -139 -158c0 -89 60 -113 96 -113c27 0 93 26 93 82c0 43 -31 64 -62 64c-37 0 -53 -30 -53 -54c0 -11 2 -20 9 -30c4 -4 -2 -8 -12 -1c-12 8 -22 26 -22 47
c0 27 18 78 83 78s108 -67 108 -143c0 -111 -88 -146 -174 -146c-169 0 -201 172 -201 236c0 62 19 150 88 223c78 82 169 111 257 111c98 0 193 -42 265 -139c76 -103 88 -204 88 -239c0 -107 -36 -143 -43 -149c-8 -5 -12 -8 -23 -4c-39 15 -145 25 -195 23zM466 249
c36 3 108 35 108 120c0 33 -16 67 -41 84c-6 4 -8 -4 -6 -10c7 -33 5 -74 -12 -102c-17 -26 -36 -34 -58 -34c-6 0 -17 13 -5 21c15 9 87 108 8 167c-6 4 -9 3 -9 -1c13 -22 2 -95 -27 -114c-13 -9 -34 1 -23 8c12 10 24 42 24 69c0 28 -15 65 -65 67c-14 0 -16 -2 -10 -7
c22 -20 30 -52 30 -83c0 -41 -22 -53 -30 -53c-10 0 -10 1 -5 11c5 12 6 22 6 31c0 56 -54 89 -84 87c-19 -1 -28 -3 -38 -8c-6 -3 -1 -7 6 -9c43 -17 69 -61 69 -87c0 -5 0 -24 -12 -29c58 -5 120 -12 174 -128zM279 372c5 36 -19 93 -79 93c-21 0 -44 -7 -59 -28
c-5 -6 -3 -11 2 -11c23 0 42 -5 55 -18c12 -11 18 -29 18 -33c0 -6 1 -10 6 -8c9 5 41 8 57 5zM128 264c3 6 0 11 -6 17c-39 41 -91 -4 -91 -52c0 -18 4 -33 12 -28c11 3 36 12 54 2s21 -11 21 0c0 12 6 47 10 61zM109 177c-9 4 -38 6 -50 -4c-10 -8 -12 -20 -12 -38
c0 -16 12 -41 19 -47c8 -8 15 -12 18 -2s15 34 29 44c7 5 9 9 7 21c-3 10 -4 23 -11 26zM146 71c3 25 2 40 -16 40c-9 0 -17 -3 -21 -20c-9 -35 4 -74 29 -87c12 -6 19 -7 15 1c-5 7 -10 39 -7 66zM61 335c-2 -7 1 -8 6 -8c9 0 50 -13 67 -30c4 -4 10 -5 13 1
c8 12 25 30 48 47c7 5 11 10 6 18c-17 27 -68 46 -111 14c-16 -12 -26 -32 -29 -42zM238 -9h1c10 0 16 0 7 21c-6 19 -50 55 -61 55c-10 0 -12 -1 -12 -17c0 -14 8 -47 23 -52c14 -5 28 -7 42 -7zM668 257c-15 -100 -126 -113 -183 -99c3 -29 2 -66 -6 -95
c24 -2 131 -13 176 -25c15 24 26 48 28 72c-21 -20 -47 -37 -86 -39c-29 -1 -59 5 -71 13c-9 6 -9 13 -3 12c39 -8 88 0 113 20c22 18 42 42 42 91c0 17 -2 45 -10 50zM473 223c4 -9 7 -25 10 -41c54 -4 157 16 157 112c0 29 -9 49 -21 64c-4 5 -8 0 -8 -3
c-4 -49 -27 -123 -138 -132zM320 37c2 7 7 18 -3 21c-10 5 -28 2 -46 -6c-19 -8 -19 -15 -13 -24c8 -13 22 -22 31 -21c12 2 27 19 31 30zM347 82c10 4 21 14 8 21c-11 4 -26 4 -26 -13c0 -16 11 -12 18 -8z" />
    <glyph glyph-name="orn.010" unicode="&#xe058;" horiz-adv-x="718" 
d="M439 467l8 12c50 -2 156 8 195 23c11 4 15 1 23 -4c7 -6 43 -42 43 -149c0 -35 -12 -136 -88 -239c-72 -97 -166 -139 -265 -139c-88 0 -179 29 -257 111c-69 73 -88 161 -88 223c0 64 32 236 201 236c86 0 174 -35 174 -146c0 -76 -43 -143 -108 -143s-83 51 -83 78
c0 21 10 39 22 47c10 7 16 3 12 -1c-7 -10 -9 -19 -9 -30c0 -24 16 -54 53 -54c31 0 62 21 62 64c0 56 -66 82 -93 82c-36 0 -96 -24 -96 -113c0 -105 81 -158 139 -158c47 0 95 17 126 58c29 37 44 99 44 166c0 15 -1 58 -15 76zM466 263c-54 -116 -116 -123 -174 -128
c12 -5 12 -24 12 -29c0 -26 -26 -70 -69 -87c-7 -2 -12 -6 -6 -9c10 -5 19 -7 38 -8c30 -2 84 31 84 87c0 9 -1 19 -6 31c-5 10 -5 11 5 11c8 0 30 -12 30 -53c0 -31 -8 -63 -30 -83c-6 -5 -4 -7 10 -7c50 2 65 39 65 67c0 27 -12 59 -24 69c-11 7 10 17 23 8
c30 -19 40 -92 27 -114c0 -4 4 -5 9 -1c79 59 7 158 -8 167c-12 8 -1 21 6 21c21 0 40 -8 57 -34c17 -28 19 -69 12 -102c-2 -6 0 -14 6 -10c25 17 41 51 41 84c0 85 -72 117 -108 120zM279 140c-16 -3 -48 0 -57 5c-5 2 -6 -2 -6 -8c0 -4 -6 -22 -18 -33
c-13 -13 -32 -18 -55 -18c-5 0 -7 -5 -2 -11c15 -21 38 -28 59 -28c60 0 84 57 79 93zM128 248c-4 14 -10 49 -10 61c0 11 -3 10 -21 0s-43 -1 -54 2c-8 5 -12 -10 -12 -28c0 -48 52 -93 91 -52c6 6 9 11 6 17zM109 335c7 3 8 16 11 26c2 12 0 16 -7 21
c-14 10 -26 34 -29 44s-10 6 -18 -2c-7 -6 -19 -31 -19 -47c0 -18 2 -30 12 -38c12 -10 41 -8 50 -4zM146 441c-3 27 2 59 7 66c4 8 -3 7 -15 1c-25 -13 -38 -52 -29 -87c4 -17 12 -20 21 -20c18 0 19 15 16 40zM61 177c3 -10 13 -30 29 -42c43 -32 94 -13 111 14
c5 8 1 13 -6 18c-23 17 -40 35 -48 47c-3 6 -9 5 -13 1c-17 -17 -58 -30 -67 -30c-5 0 -8 -1 -6 -8zM238 521h-1c-13 0 -27 -2 -41 -7c-15 -5 -23 -38 -23 -52c0 -16 2 -17 12 -17c11 0 55 36 61 55c9 21 3 21 -8 21zM668 255c8 5 10 33 10 50c0 49 -20 73 -42 91
c-25 20 -74 28 -113 20c-6 -1 -6 6 3 12c12 8 42 14 71 13c39 -2 65 -19 86 -39c-2 24 -13 48 -28 72c-45 -12 -152 -23 -176 -25c8 -29 9 -66 6 -95c57 14 168 1 183 -99zM473 289c111 -9 134 -83 138 -132c0 -3 4 -8 8 -3c12 15 21 35 21 64c0 96 -103 116 -157 112
c-3 -16 -6 -32 -10 -41zM320 475c-4 11 -19 28 -31 30c-9 1 -23 -8 -31 -21c-6 -9 -6 -16 13 -24c18 -8 36 -11 46 -6c10 3 5 14 3 21zM347 430c-7 4 -18 8 -18 -8c0 -17 15 -17 26 -13c13 7 2 17 -8 21z" />
    <glyph glyph-name="orn.011" unicode="&#xe059;" horiz-adv-x="718" 
d="M279 45l-8 -12c-50 2 -156 -8 -195 -23c-11 -4 -15 -1 -23 4c-7 6 -43 42 -43 149c0 35 12 136 88 239c72 97 166 139 265 139c88 0 179 -29 257 -111c69 -73 88 -161 88 -223c0 -64 -32 -236 -201 -236c-86 0 -174 35 -174 146c0 76 43 143 108 143s83 -51 83 -78
c0 -21 -10 -39 -22 -47c-10 -7 -16 -3 -12 1c7 10 9 19 9 30c0 24 -16 54 -53 54c-31 0 -62 -21 -62 -64c0 -56 66 -82 93 -82c36 0 96 24 96 113c0 105 -81 158 -139 158c-47 0 -95 -17 -126 -58c-29 -37 -44 -99 -44 -166c0 -15 1 -58 15 -76zM252 249
c54 116 116 123 174 128c-12 5 -12 24 -12 29c0 26 26 70 69 87c7 2 12 6 6 9c-10 5 -19 7 -38 8c-30 2 -84 -31 -84 -87c0 -9 1 -19 6 -31c5 -10 5 -11 -5 -11c-8 0 -30 12 -30 53c0 31 8 63 30 83c6 5 4 7 -10 7c-50 -2 -65 -39 -65 -67c0 -27 12 -59 24 -69
c11 -7 -10 -17 -23 -8c-30 19 -40 92 -27 114c0 4 -4 5 -9 1c-79 -59 -7 -158 8 -167c12 -8 1 -21 -6 -21c-21 0 -40 8 -57 34c-17 28 -19 69 -12 102c2 6 0 14 -6 10c-25 -17 -41 -51 -41 -84c0 -85 72 -117 108 -120zM439 372c16 3 48 0 57 -5c5 -2 6 2 6 8
c0 4 6 22 18 33c13 13 32 18 55 18c5 0 7 5 2 11c-15 21 -38 28 -59 28c-60 0 -84 -57 -79 -93zM590 264c4 -14 10 -49 10 -61c0 -11 3 -10 21 0s43 1 54 -2c8 -5 12 10 12 28c0 48 -52 93 -91 52c-6 -6 -9 -11 -6 -17zM609 177c-7 -3 -8 -16 -11 -26c-2 -12 0 -16 7 -21
c14 -10 26 -34 29 -44s10 -6 18 2c7 6 19 31 19 47c0 18 -2 30 -12 38c-12 10 -41 8 -50 4zM572 71c3 -27 -2 -59 -7 -66c-4 -8 3 -7 15 -1c25 13 38 52 29 87c-4 17 -12 20 -21 20c-18 0 -19 -15 -16 -40zM657 335c-3 10 -13 30 -29 42c-43 32 -94 13 -111 -14
c-5 -8 -1 -13 6 -18c23 -17 40 -35 48 -47c3 -6 9 -5 13 -1c17 17 58 30 67 30c5 0 8 1 6 8zM480 -9h1c13 0 27 2 41 7c15 5 23 38 23 52c0 16 -2 17 -12 17c-11 0 -55 -36 -61 -55c-9 -21 -3 -21 8 -21zM50 257c-8 -5 -10 -33 -10 -50c0 -49 20 -73 42 -91
c25 -20 74 -28 113 -20c6 1 6 -6 -3 -12c-12 -8 -42 -14 -71 -13c-39 2 -65 19 -86 39c2 -24 13 -48 28 -72c45 12 152 23 176 25c-8 29 -9 66 -6 95c-57 -14 -168 -1 -183 99zM245 223c-111 9 -134 83 -138 132c0 3 -4 8 -8 3c-12 -15 -21 -35 -21 -64
c0 -96 103 -116 157 -112c3 16 6 32 10 41zM398 37c4 -11 19 -28 31 -30c9 -1 23 8 31 21c6 9 6 16 -13 24c-18 8 -36 11 -46 6c-10 -3 -5 -14 -3 -21zM371 82c7 -4 18 -8 18 8c0 17 -15 17 -26 13c-13 -7 -2 -17 8 -21z" />
    <glyph glyph-name="orn.012" unicode="&#xe05a;" horiz-adv-x="718" 
d="M271 479l8 -12c-14 -18 -15 -61 -15 -76c0 -67 15 -129 44 -166c31 -41 79 -58 126 -58c58 0 139 53 139 158c0 89 -60 113 -96 113c-27 0 -93 -26 -93 -82c0 -43 31 -64 62 -64c37 0 53 30 53 54c0 11 -2 20 -9 30c-4 4 2 8 12 1c12 -8 22 -26 22 -47
c0 -27 -18 -78 -83 -78s-108 67 -108 143c0 111 88 146 174 146c169 0 201 -172 201 -236c0 -62 -19 -150 -88 -223c-78 -82 -169 -111 -257 -111c-98 0 -193 42 -265 139c-76 103 -88 204 -88 239c0 107 36 143 43 149c8 5 12 8 23 4c39 -15 145 -25 195 -23zM252 263
c-36 -3 -108 -35 -108 -120c0 -33 16 -67 41 -84c6 -4 8 4 6 10c-7 33 -5 74 12 102c17 26 36 34 58 34c6 0 17 -13 5 -21c-15 -9 -87 -108 -8 -167c6 -4 9 -3 9 1c-13 22 -2 95 27 114c13 9 34 -1 23 -8c-12 -10 -24 -42 -24 -69c0 -28 15 -65 65 -67c14 0 16 2 10 7
c-22 20 -30 52 -30 83c0 41 22 53 30 53c10 0 10 -1 5 -11c-5 -12 -6 -22 -6 -31c0 -56 54 -89 84 -87c19 1 28 3 38 8c6 3 1 7 -6 9c-43 17 -69 61 -69 87c0 5 0 24 12 29c-58 5 -120 12 -174 128zM439 140c-5 -36 19 -93 79 -93c21 0 44 7 59 28c5 6 3 11 -2 11
c-23 0 -42 5 -55 18c-12 11 -18 29 -18 33c0 6 -1 10 -6 8c-9 -5 -41 -8 -57 -5zM590 248c-3 -6 0 -11 6 -17c39 -41 91 4 91 52c0 18 -4 33 -12 28c-11 -3 -36 -12 -54 -2s-21 11 -21 0c0 -12 -6 -47 -10 -61zM609 335c9 -4 38 -6 50 4c10 8 12 20 12 38
c0 16 -12 41 -19 47c-8 8 -15 12 -18 2s-15 -34 -29 -44c-7 -5 -9 -9 -7 -21c3 -10 4 -23 11 -26zM572 441c-3 -25 -2 -40 16 -40c9 0 17 3 21 20c9 35 -4 74 -29 87c-12 6 -19 7 -15 -1c5 -7 10 -39 7 -66zM657 177c2 7 -1 8 -6 8c-9 0 -50 13 -67 30c-4 4 -10 5 -13 -1
c-8 -12 -25 -30 -48 -47c-7 -5 -11 -10 -6 -18c17 -27 68 -46 111 -14c16 12 26 32 29 42zM480 521h-1c-10 0 -16 0 -7 -21c6 -19 50 -55 61 -55c10 0 12 1 12 17c0 14 -8 47 -23 52c-14 5 -28 7 -42 7zM50 255c15 100 126 113 183 99c-3 29 -2 66 6 95
c-24 2 -131 13 -176 25c-15 -24 -26 -48 -28 -72c21 20 47 37 86 39c29 1 59 -5 71 -13c9 -6 9 -13 3 -12c-39 8 -88 0 -113 -20c-22 -18 -42 -42 -42 -91c0 -17 2 -45 10 -50zM245 289c-4 9 -7 25 -10 41c-54 4 -157 -16 -157 -112c0 -29 9 -49 21 -64c4 -5 8 0 8 3
c4 49 27 123 138 132zM398 475c-2 -7 -7 -18 3 -21c10 -5 28 -2 46 6c19 8 19 15 13 24c-8 13 -22 22 -31 21c-12 -2 -27 -19 -31 -30zM371 430c-10 -4 -21 -14 -8 -21c11 -4 26 -4 26 13c0 16 -11 12 -18 8z" />
    <glyph glyph-name="orn.013" unicode="&#xe05b;" horiz-adv-x="881" 
d="M282 490h1c104 0 292 -52 436 -247c-14 71 -75 211 -212 256c4 8 12 19 23 23c18 0 128 15 232 -97c103 -109 114 -236 114 -297c0 -71 -14 -127 -27 -146c-6 -6 -25 -13 -32 -13c-4 0 -12 3 -4 21c5 15 29 53 29 143c0 217 -119 345 -261 361c-5 1 -3 -6 1 -8
c103 -54 211 -243 211 -459c0 -7 -6 -15 -14 -22s-17 -12 -22 -12c-4 0 -7 5 -7 26c0 7 -3 6 -9 1c-14 -11 -39 -33 -47 -33c-6 0 -11 4 -14 13c-11 35 -51 70 -115 70c-31 0 -51 -7 -65 -14c-11 -5 -8 -6 -8 3c0 6 4 13 10 20c15 17 72 46 154 2c-29 78 -100 144 -187 144
c-26 0 -51 -5 -58 -8c-10 -4 -14 0 -14 10c0 41 43 79 130 79c28 0 67 -7 117 -32c-101 138 -240 184 -334 184c-138 0 -179 -53 -179 -123c0 -67 45 -118 96 -118c32 0 66 7 96 58c4 8 7 12 16 6c32 -23 79 -83 79 -153c0 -100 -77 -159 -176 -159c-122 0 -237 98 -237 260
c0 60 41 261 277 261zM205 164h-1c-82 0 -110 112 -105 175c1 18 -3 18 -13 11c-40 -31 -51 -82 -51 -125c0 -146 111 -228 211 -228c68 0 163 37 148 159c-1 8 -9 12 -10 3c-15 -92 -85 -108 -142 -108c-107 0 -192 113 -173 221c2 13 11 16 10 1c-3 -36 46 -159 170 -159
c76 0 112 42 112 73c0 20 -11 40 -25 47c-25 -51 -70 -70 -131 -70zM715 51l27 -4c-1 111 -66 232 -208 232c-54 0 -91 -12 -100 -23c-6 -6 -10 -12 -1 -11c115 15 197 -34 282 -194z" />
    </font>
</defs>
</svg>
